<svg width="25" height="24" viewBox="0 0 25 24" fill="none" xmlns="http://www.w3.org/2000/svg">
<path d="M18.8843 7.20986C18.7913 7.11613 18.6807 7.04174 18.5588 6.99097C18.437 6.9402 18.3063 6.91406 18.1743 6.91406C18.0423 6.91406 17.9115 6.9402 17.7897 6.99097C17.6678 7.04174 17.5572 7.11613 17.4643 7.20986L10.0143 14.6699L6.88427 11.5299C6.78774 11.4366 6.6738 11.3633 6.54895 11.3141C6.42409 11.2649 6.29077 11.2408 6.15659 11.2431C6.02241 11.2454 5.89 11.2741 5.76692 11.3276C5.64384 11.3811 5.5325 11.4583 5.43927 11.5549C5.34603 11.6514 5.27271 11.7653 5.22351 11.8902C5.17431 12.015 5.15018 12.1484 5.1525 12.2825C5.15482 12.4167 5.18355 12.5491 5.23704 12.6722C5.29053 12.7953 5.36774 12.9066 5.46427 12.9999L9.30427 16.8399C9.39723 16.9336 9.50783 17.008 9.62969 17.0588C9.75155 17.1095 9.88225 17.1357 10.0143 17.1357C10.1463 17.1357 10.277 17.1095 10.3988 17.0588C10.5207 17.008 10.6313 16.9336 10.7243 16.8399L18.8843 8.67986C18.9858 8.58622 19.0668 8.47257 19.1222 8.34607C19.1776 8.21957 19.2062 8.08296 19.2062 7.94486C19.2062 7.80676 19.1776 7.67015 19.1222 7.54365C19.0668 7.41715 18.9858 7.3035 18.8843 7.20986Z" fill="#A851FA"/>
</svg>
