<?xml version="1.0" standalone="no"?>
<!DOCTYPE svg PUBLIC "-//W3C//DTD SVG 20010904//EN"
 "http://www.w3.org/TR/2001/REC-SVG-20010904/DTD/svg10.dtd">
<svg version="1.0" xmlns="http://www.w3.org/2000/svg"
 width="800.000000pt" height="800.000000pt" viewBox="0 0 800.000000 800.000000"
 preserveAspectRatio="xMidYMid meet">

<g transform="translate(0.000000,800.000000) scale(0.100000,-0.100000)"
fill="#000000" stroke="none">
<path d="M3675 4855 c-80 -43 -107 -102 -113 -251 -7 -171 34 -273 122 -305
23 -8 39 -24 50 -48 9 -20 28 -44 42 -55 34 -24 105 -32 144 -16 34 14 33 11
21 44 -9 23 -12 24 -44 14 -26 -8 -41 -7 -63 3 -41 20 -41 42 0 57 48 18 93
72 112 138 23 81 16 261 -13 325 -32 70 -81 103 -162 107 -47 2 -75 -2 -96
-13z m135 -60 c17 -9 40 -34 52 -58 19 -36 22 -58 23 -152 0 -161 -29 -221
-112 -231 -83 -10 -130 54 -140 188 -14 201 64 312 177 253z"/>
<path d="M2128 4848 c-3 -11 -2 -494 1 -535 1 -8 15 -13 34 -13 l33 0 -1 214
-2 214 55 -92 c30 -50 57 -93 59 -96 10 -12 39 23 86 105 l52 91 -3 -219 -4
-218 38 3 37 3 1 268 c1 148 -2 273 -5 279 -3 5 -19 8 -35 6 -24 -3 -37 -17
-82 -93 -29 -49 -56 -96 -61 -103 -5 -10 -28 18 -72 90 -57 91 -68 103 -96
106 -18 2 -32 -2 -35 -10z"/>
<path d="M4764 4696 c-18 -8 -35 -19 -38 -25 -12 -18 -36 -12 -36 9 0 18 -7
20 -80 20 l-80 0 0 -30 c0 -30 1 -30 55 -30 l55 0 0 -140 0 -140 -55 0 c-54 0
-55 0 -55 -30 l0 -30 165 0 165 0 0 30 0 30 -78 0 -79 0 1 116 1 116 30 24
c36 29 90 41 109 25 8 -7 17 -27 20 -46 6 -31 11 -35 38 -35 l30 0 -6 48 c-10
70 -33 96 -87 99 -24 2 -58 -4 -75 -11z"/>
<path d="M5098 4694 c-48 -15 -59 -32 -39 -62 7 -11 17 -11 61 2 75 22 107 20
136 -9 18 -19 24 -34 22 -57 l-3 -31 -70 2 c-56 1 -79 -3 -115 -21 -51 -26
-70 -56 -70 -113 0 -70 51 -115 130 -115 44 0 72 11 106 42 21 19 22 19 28 -6
6 -24 11 -26 61 -26 54 0 55 0 55 30 0 27 -3 30 -30 30 l-30 0 0 130 c0 146
-10 179 -60 205 -36 19 -120 18 -182 -1z m150 -220 c27 -6 30 -9 26 -38 -10
-88 -173 -117 -182 -33 -7 59 61 90 156 71z"/>
<path d="M5630 4689 c-19 -12 -39 -29 -45 -38 -8 -13 -10 -11 -15 14 -5 29 -7
30 -63 33 l-57 3 0 -31 c0 -27 3 -30 30 -30 l30 0 0 -170 0 -170 35 0 35 0 0
134 c0 130 1 136 26 165 33 40 92 58 133 42 44 -19 55 -58 57 -201 1 -69 2
-128 3 -132 1 -5 15 -8 31 -8 l30 0 0 150 c0 213 -20 251 -133 258 -50 2 -69
-1 -97 -19z"/>
<path d="M2600 4693 c0 -4 37 -94 81 -200 73 -173 84 -193 105 -193 34 0 31
-34 -6 -72 -31 -30 -37 -31 -101 -12 -12 3 -19 -4 -23 -22 -9 -36 3 -46 61
-51 58 -5 103 19 129 69 16 31 154 460 154 479 0 5 -15 9 -32 9 l-33 0 -49
-171 c-36 -125 -53 -169 -63 -167 -8 2 -44 75 -82 168 l-67 165 -37 3 c-20 2
-37 0 -37 -5z"/>
<path d="M4020 4670 c0 -25 4 -30 25 -30 l25 0 0 -107 c1 -137 11 -181 50
-215 25 -23 40 -28 81 -28 57 0 112 22 134 54 15 20 15 19 15 -12 l0 -32 55 0
c30 0 56 5 56 10 5 40 3 45 -23 48 l-28 3 0 170 0 169 -60 0 -60 0 0 -30 c0
-25 4 -30 25 -30 l25 0 0 -105 c0 -105 0 -105 -33 -141 -41 -45 -99 -56 -137
-26 -24 20 -25 24 -28 176 l-3 156 -60 0 c-59 0 -59 0 -59 -30z"/>
<path d="M1129 4619 c-21 -23 -29 -41 -29 -69 0 -55 44 -100 98 -100 32 0 47
7 71 31 43 43 43 95 0 138 -43 44 -99 44 -140 0z"/>
<path d="M6729 4619 c-21 -23 -29 -41 -29 -69 0 -55 44 -100 98 -100 56 0 102
45 102 100 0 55 -46 100 -102 100 -32 0 -46 -6 -69 -31z"/>
<path d="M2000 3700 l0 -50 550 0 550 0 0 50 0 50 -550 0 -550 0 0 -50z"/>
<path d="M4900 3700 l0 -50 550 0 550 0 0 50 0 50 -550 0 -550 0 0 -50z"/>
<path d="M3633 3668 c-12 -6 -25 -18 -28 -26 -7 -19 -7 -916 1 -935 12 -33 53
-37 379 -37 312 0 326 1 345 20 13 13 20 33 20 56 0 19 7 42 15 50 10 11 15
36 15 84 0 66 1 68 31 80 17 7 35 24 40 37 13 34 12 529 -1 554 -7 12 -21 19
-40 19 -28 0 -30 2 -30 38 0 73 7 72 -381 71 -220 0 -352 -4 -366 -11z m715
-437 c2 -317 -1 -406 -10 -413 -7 -4 -129 -8 -270 -8 l-258 0 -2 323 c-3 278
-5 322 -18 322 -13 0 -15 -44 -18 -322 l-2 -323 -70 0 -70 0 0 408 c0 225 3
412 7 415 4 4 164 6 357 5 l351 -3 3 -404z m72 220 c0 -86 -5 -101 -36 -101
-7 0 -4 176 3 183 3 4 12 7 20 7 10 0 13 -21 13 -89z m0 -201 c0 -38 -2 -70
-4 -70 -2 0 -11 -3 -20 -6 -14 -5 -16 4 -16 64 0 66 5 78 33 81 4 1 7 -30 7
-69z m0 -180 c0 -38 -2 -70 -4 -70 -2 0 -11 -3 -20 -6 -14 -5 -16 4 -16 64 0
66 5 78 33 81 4 1 7 -30 7 -69z m-110 -325 l0 -35 -334 0 c-328 0 -335 0 -341
20 -15 49 -6 50 346 50 l329 0 0 -35z"/>
<path d="M3670 3584 c0 -11 8 -14 32 -12 46 4 49 28 4 28 -26 0 -36 -4 -36
-16z"/>
<path d="M3774 3586 c-10 -27 0 -81 16 -81 11 0 16 13 18 48 2 37 0 47 -13 47
-8 0 -18 -6 -21 -14z"/>
<path d="M3677 3513 c-4 -3 -7 -12 -7 -20 0 -16 56 -18 66 -2 12 20 -42 40
-59 22z"/>
<path d="M3677 3423 c-4 -3 -7 -12 -7 -20 0 -16 56 -18 66 -2 12 20 -42 40
-59 22z"/>
<path d="M4033 3421 c-87 -22 -113 -68 -113 -199 0 -76 3 -94 23 -123 34 -52
78 -69 175 -69 74 0 83 2 80 18 -3 14 -18 18 -94 22 -128 7 -154 34 -154 162
0 115 36 158 133 158 88 0 127 -51 127 -167 0 -61 -7 -83 -26 -83 -11 0 -14
17 -14 74 0 66 -3 78 -26 105 -35 42 -93 44 -129 5 -21 -23 -25 -37 -25 -91 0
-35 5 -73 11 -85 16 -30 72 -50 104 -38 15 6 38 7 53 3 65 -17 82 6 82 115 0
98 -16 142 -64 171 -38 23 -99 32 -143 22z m79 -118 c14 -12 18 -31 18 -79 0
-54 -3 -65 -21 -74 -51 -28 -89 10 -89 88 0 68 50 104 92 65z"/>
<path d="M3677 3333 c-4 -3 -7 -12 -7 -20 0 -16 56 -18 66 -2 12 20 -42 40
-59 22z"/>
<path d="M3677 3243 c-4 -3 -7 -12 -7 -20 0 -16 56 -18 66 -2 12 20 -42 40
-59 22z"/>
<path d="M3677 3153 c-4 -3 -7 -12 -7 -20 0 -16 56 -18 66 -2 12 20 -42 40
-59 22z"/>
<path d="M3675 3060 c-4 -7 -3 -16 3 -22 14 -14 57 -6 57 12 0 18 -50 26 -60
10z"/>
<path d="M3675 2970 c-4 -7 -3 -16 3 -22 14 -14 57 -6 57 12 0 18 -50 26 -60
10z"/>
<path d="M3675 2880 c-4 -7 -3 -16 3 -22 14 -14 57 -6 57 12 0 18 -50 26 -60
10z"/>
</g>
</svg>
