<!-- icon666.com - MILLIONS vector ICONS FREE --><svg viewBox="0 0 64 64" xmlns="http://www.w3.org/2000/svg"><g id="p"><path d="m49.89 47.57-13.05-4.34-.82-3.34c1.22-.21 2.37-.74 3.34-1.53l9.27-7.59c.22-.17.35-.44.37-.72.01-.28-.09-.56-.29-.76l-.3-.29 1.71-1.71c.57-.56.88-1.32.88-2.12v-4.17c0-1.65-1.35-3-3-3h-1c-.48 0-.89.34-.98.8l-.94 4.71-1.08 1.08-.29-.3c-.35-.35-.91-.39-1.31-.09l-7.26 5.44-.54-.61-1.87-8.75c-.18-.83-.46-1.63-.82-2.38 1.81-.37 3.29-1.81 3.68-3.76.27-1.35.41-2.74.41-4.12v-4.02c0-3.31-2.69-6-6-6h-2c-3.31 0-6 2.69-6 6v3.52c0 1.48.48 2.9 1.32 4.07-5.22 3.97-8.32 10.14-8.32 16.73v14.15c0 1.85.49 3.68 1.42 5.28.75 1.29 1.77 2.39 2.96 3.25h-6.38c-2.21 0-4 1.79-4 4v6c0 .55.45 1 1 1h1.84c1.72 0 3.25-1.1 3.79-2.73l.03-.08 2.34.59v1.22c0 .55.45 1 1 1h28.04c2.81 0 5.33-1.67 6.44-4.24l.91-2.14c.41-.94.61-1.93.61-2.95 0-3.22-2.06-6.08-5.11-7.1zm-31.89 12.15-2.76-.69c-.5-.13-1.02.16-1.19.65l-.31.95c-.28.82-1.04 1.37-1.9 1.37h-.84v-5c0-1.1.9-2 2-2h5zm28.71-35.01c.14-.14.23-.32.27-.51l.84-4.2h.18c.55 0 1 .45 1 1v4.17c0 .27-.1.52-.29.71l-1.71 1.71-1.59-1.59zm-22.71-18.71c0-2.21 1.79-4 4-4h2c2.21 0 4 1.79 4 4v.08l-10 .83zm0 2.92 10-.83v1.93c0 1.25-.12 2.5-.39 3.82-.25 1.25-1.36 2.16-2.63 2.16-.47 0-.93-.12-1.33-.35l-3.13-1.79c-1.55-.89-2.52-2.55-2.52-4.34zm28.56 47.91-.92 2.14c-.79 1.84-2.59 3.03-4.6 3.03h-27.04v-7h23c.55 0 1-.45 1-1s-.45-1-1-1h-17.47c-1.49 0-2.95-.39-4.24-1.13-1.29-.73-2.38-1.81-3.13-3.12-.76-1.3-1.16-2.78-1.16-4.28v-14.15c0-6.04 2.87-11.69 7.72-15.27.25.2.52.38.81.55l3.12 1.78c.29.17.6.29.91.39.57.9.98 1.88 1.21 2.93l1.12 5.23-3.14-3.59c-.36-.42-.99-.46-1.41-.09-.41.36-.46.99-.09 1.41l7 8c.34.39.93.46 1.35.14l7.31-5.48 3.6 3.61-8.41 6.88c-.94.77-2.12 1.19-3.33 1.19-1.48 0-2.9-.63-3.89-1.72l-8.14-8.95c-.37-.41-1-.44-1.41-.07s-.44 1-.07 1.41l8.14 8.96c1.19 1.31 2.83 2.13 4.57 2.32l1.06 4.29c.08.33.33.6.65.71l13.57 4.52c2.24.75 3.75 2.84 3.75 5.2 0 .75-.15 1.47-.44 2.16z"></path></g></svg>