<!-- icon666.com - MILLIONS vector ICONS FREE --><svg xmlns="http://www.w3.org/2000/svg" xmlns:xlink="http://www.w3.org/1999/xlink" version="1.1" id="Layer_1" x="0px" y="0px" viewBox="0 0 24 24" style="enable-background:new 0 0 24 24;" xml:space="preserve"><title>Artboard 37</title><title>Artboard 37</title><g><path style="fill:none;" d="M11.738,10.993c-0.273-0.41-0.599-0.777-0.977-1.082c0.052,0.305,0.168,0.578,0.347,0.819 c0.084,0.137,0.052,0.305-0.074,0.389c-0.578,0.242-0.62-0.746-0.872-1.029C9.942,9.87,9.553,9.439,9.322,9.649 C9.301,9.67,9.28,9.733,9.301,9.775c0.2,0.882,0.998,1.502,1.659,2.058C10.961,11.813,11.717,11.004,11.738,10.993z"></path><path style="fill:none;" d="M14.784,4.146c-0.305,0.882-0.252,1.901-0.084,2.836c0.116,0.63,0.861,1.113,1.229,1.344 C16.958,6.225,15.424,4.671,14.784,4.146z"></path><path style="fill:none;" d="M5.048,3.589L4.932,4.23c0.084-0.031,0.599-0.336,0.704-0.336c0.116,0,0.609,0.305,0.704,0.336 L6.224,3.589C6.161,3.369,6.665,3.043,6.77,2.896C6.602,2.843,5.993,2.875,5.919,2.654L5.636,2.066 C5.531,2.213,5.373,2.801,5.142,2.801L4.502,2.896C4.596,3.032,5.111,3.369,5.048,3.589z"></path><path style="fill:none;" d="M17.042,14.701c-0.021-0.021-2.027-1.176-2.037-1.208c-0.053,0-2.647-2.479-2.72-2.479l-1.25,1.355 l2.762,2.531C14.7,15.793,16.222,15.698,17.042,14.701z"></path><path style="fill:none;" d="M22.534,22.441c-0.368-0.105-0.378-0.462-0.588-0.672c-0.263-0.357-0.714-0.483-1.145-0.41l0.011,1.817 c0,0,2.248,0.252,2.584-0.116C23.868,22.557,22.902,22.462,22.534,22.441z"></path><path style="fill:#FFD600;" d="M3.22,0.953c-4.159,1.25-3.298,7.373,1.071,7.415c1.733,0,3.182-1.176,3.634-2.762 C4.796,8.683,0.185,4.135,3.22,0.953z"></path><path style="fill:#FFD600;" d="M13.009,20.498c-0.347,0.011-0.336-0.525,0-0.525h5.325c1.386-0.431,2.363-1.638,2.447-3.088 l-3.277-1.911c-0.788,1.04-2.321,1.376-3.455,0.746c-0.042,0.42,0.116,1.334-0.147,1.397c-0.756,0.315-1.554,0.63-2.3,0.956 c-2.395,1.113-1.88,4.842,0.788,5.104h7.898l-0.011-2.678H13.009z"></path><path style="fill:#FE2732;" d="M16.895,2.539c-0.788,0.011-1.481,0.452-1.869,1.124c0.672,0.546,2.731,2.5,1.271,5.104l-0.84,4.39 l5.356,3.161C20.927,13.272,20.801,2.633,16.895,2.539z"></path><path d="M10.698,5.469c0.242,0.011,0.242-0.368,0-0.368C10.467,5.112,10.467,5.469,10.698,5.469z"></path><path d="M9.532,2.129h0.315c0,0.21-0.052,0.599,0.263,0.588c0.315,0.011,0.263-0.378,0.263-0.588 c0.21,0.011,0.588,0.052,0.588-0.263c0-0.305-0.378-0.263-0.588-0.263c0-0.2,0.052-0.588-0.263-0.588S9.847,1.405,9.847,1.604 H9.532C9.186,1.604,9.186,2.14,9.532,2.129z"></path><path d="M23.322,22c-0.21-0.052-0.452-0.084-0.641-0.052c-0.326-0.725-1.061-1.271-1.88-1.103v-0.704 c0-0.095-0.074-0.168-0.157-0.168h-1.113c2.205-1.344,1.848-4.232,1.827-6.48c-0.042-2.836-0.326-5.587-1.145-8.286 c-0.746-3.403-4.338-4.243-5.755-1.628c-0.557,1.05-0.473,2.353-0.273,3.508c0.158,0.893,1.166,1.512,1.565,1.743l-0.756,3.949 l-2.479-2.29c-0.126-0.116-0.305-0.074-0.41,0.052c-0.567-0.704-1.145-1.554-1.775-1.04C9.385,8.746,8.22,9.029,8.881,10.395 c0.368,0.767,1.019,1.355,1.691,1.869c-0.126,0.084-0.116,0.294-0.011,0.389c0,0,2.93,2.678,2.962,2.71v1.344 c0,0-1.638,0.672-2.227,0.935c-2.794,1.386-2.1,5.766,1.071,6.06c0,0.011,8.181,0,8.181,0s2.815,0.168,3.245-0.305 C24.173,22.987,24.036,22.095,23.322,22z M14.7,6.981c-0.168-0.935-0.221-1.953,0.084-2.836c0.641,0.525,2.174,2.08,1.145,4.18 C15.561,8.095,14.815,7.612,14.7,6.981z M16.296,8.767c1.46-2.605-0.599-4.558-1.271-5.104c0.389-0.672,1.082-1.113,1.869-1.124 c3.907,0.094,4.033,10.734,3.917,13.779l-5.356-3.161L16.296,8.767z M9.301,9.775c-0.021-0.042,0-0.105,0.021-0.126 c0.231-0.21,0.62,0.221,0.84,0.441c0.252,0.284,0.294,1.271,0.872,1.029c0.126-0.084,0.158-0.252,0.074-0.389 c-0.179-0.242-0.294-0.515-0.347-0.819c0.378,0.305,0.704,0.672,0.977,1.082c-0.021,0.011-0.777,0.819-0.777,0.84 C10.299,11.277,9.501,10.657,9.301,9.775z M11.034,12.369l1.25-1.355c0.074,0,2.668,2.479,2.72,2.479 c0.01,0.032,2.016,1.187,2.037,1.208c-0.819,0.998-2.342,1.092-3.245,0.2L11.034,12.369z M12.389,23.176 c-2.668-0.263-3.182-3.991-0.788-5.104c0.746-0.326,1.544-0.641,2.3-0.956c0.263-0.063,0.105-0.977,0.147-1.397 c1.134,0.63,2.668,0.294,3.455-0.746l3.277,1.911c-0.084,1.449-1.061,2.657-2.447,3.088h-5.325c-0.336,0-0.347,0.536,0,0.525h7.268 l0.011,2.678H12.389z M23.396,23.061c-0.336,0.368-2.584,0.116-2.584,0.116l-0.011-1.817c0.431-0.074,0.882,0.052,1.145,0.41 c0.21,0.21,0.221,0.567,0.588,0.672C22.902,22.462,23.868,22.557,23.396,23.061z"></path><path d="M7.516,0.974c0.242,0.011,0.242-0.368,0-0.368C7.285,0.617,7.285,0.974,7.516,0.974z"></path><path d="M4.743,10.584c-0.231,0-0.231,0.378,0,0.368C4.974,10.962,4.974,10.584,4.743,10.584z"></path><path d="M3.682,2.633C3.546,2.854,4.323,3.411,4.502,3.631C4.491,3.936,4.187,4.818,4.428,4.923c0.168,0.2,0.945-0.368,1.208-0.462 c0.284,0.105,1.029,0.662,1.208,0.462C7.085,4.818,6.781,3.925,6.77,3.631l0.746-0.735c0.157-0.136,0.063-0.42-0.147-0.441 L6.34,2.308L5.867,1.352c-0.084-0.179-0.378-0.179-0.473,0L4.932,2.308C4.607,2.392,3.703,2.371,3.682,2.633z M5.142,2.801 c0.231,0,0.389-0.588,0.494-0.735l0.284,0.588C5.993,2.875,6.602,2.843,6.77,2.896C6.665,3.043,6.161,3.369,6.224,3.589L6.34,4.23 C6.245,4.198,5.751,3.894,5.636,3.894c-0.105,0-0.62,0.305-0.704,0.336l0.116-0.641c0.063-0.221-0.452-0.557-0.546-0.693 L5.142,2.801z"></path><path d="M3.168,12.243H2.842c0-0.21,0.042-0.588-0.263-0.588c-0.305,0-0.263,0.378-0.263,0.588 c-0.21-0.011-0.599-0.052-0.588,0.263c-0.011,0.305,0.378,0.263,0.588,0.263c0,0.2-0.052,0.588,0.263,0.578 c0.315,0.011,0.263-0.378,0.263-0.578h0.326C3.504,12.768,3.504,12.233,3.168,12.243z"></path><path d="M0.742,8.62c-0.242,0-0.242,0.378,0,0.368C0.973,8.987,0.973,8.63,0.742,8.62z"></path><path d="M8.104,4.419c-0.62,1.407-2.258,2.048-3.665,1.428C2.265,4.965,2.254,1.678,4.397,0.774 C4.712,0.701,4.628,0.249,4.281,0.27c-5.713,0.189-5.703,8.444,0,8.623c2.405,0.011,4.327-1.964,4.306-4.369 c0-0.095-0.042-0.189-0.137-0.242C8.314,4.23,8.167,4.293,8.104,4.419z M4.292,8.368c-4.369-0.042-5.23-6.165-1.071-7.415 c-3.035,3.182,1.575,7.73,4.705,4.653C7.474,7.191,6.024,8.368,4.292,8.368z"></path></g></svg>