<svg width="34" height="34" viewBox="0 0 34 34" fill="none" xmlns="http://www.w3.org/2000/svg">
<path opacity="0.5" d="M31.1668 24.0833V17C31.1668 9.17595 24.8242 2.83331 17.0002 2.83331C9.17613 2.83331 2.8335 9.17595 2.8335 17V25.5" stroke="#1C274C" stroke-width="2.5"/>
<path d="M11.3335 21.5151C11.3335 20.6958 11.3335 20.2861 11.2357 19.9607C11.0096 19.2083 10.4191 18.6376 9.6842 18.4611C9.36636 18.3847 8.97585 18.417 8.19483 18.4815C6.83944 18.5934 6.16174 18.6493 5.60923 18.8631C4.33522 19.3559 3.36319 20.4559 2.99373 21.823C2.8335 22.4158 2.8335 23.1268 2.8335 24.5488V24.8115C2.8335 26.2694 2.8335 26.9984 3.00781 27.6152C3.34992 28.8256 4.16799 29.8269 5.25788 30.3691C5.81322 30.6454 6.5017 30.7591 7.87866 30.9865C8.79244 31.1374 9.24933 31.2128 9.6191 31.1367C10.3477 30.9866 10.9485 30.4496 11.2039 29.7204C11.3335 29.3502 11.3335 28.8665 11.3335 27.899V21.5151Z" stroke="#1C274C" stroke-width="2.5"/>
<path d="M22.6665 21.5151C22.6665 20.6958 22.6665 20.2861 22.7643 19.9607C22.9904 19.2083 23.5809 18.6376 24.3158 18.4611C24.6336 18.3847 25.0242 18.417 25.8052 18.4815C27.1606 18.5934 27.8383 18.6493 28.3908 18.8631C29.6648 19.3559 30.6368 20.4559 31.0063 21.823C31.1665 22.4158 31.1665 23.1268 31.1665 24.5488V24.8115C31.1665 26.2694 31.1665 26.9984 30.9922 27.6152C30.6501 28.8256 29.832 29.8269 28.7421 30.3691C28.1868 30.6454 27.4983 30.7591 26.1213 30.9865C25.2076 31.1374 24.7507 31.2128 24.3809 31.1367C23.6523 30.9866 23.0515 30.4496 22.7961 29.7204C22.6665 29.3502 22.6665 28.8665 22.6665 27.899V21.5151Z" stroke="#1C274C" stroke-width="2.5"/>
</svg>
