<svg width="36" height="36" viewBox="0 0 36 36" fill="none" xmlns="http://www.w3.org/2000/svg">
<path d="M30.0929 16.9104V31.4952C30.0929 31.8253 30.0298 32.1522 29.9072 32.4571C29.7847 32.7619 29.6051 33.0387 29.3787 33.2714C29.1524 33.5042 28.8837 33.6884 28.5883 33.8134C28.2929 33.9385 27.9766 34.0018 27.6574 34H8.46346C7.82118 34 7.20513 33.7361 6.75097 33.2663C6.29681 32.7966 6.04173 32.1595 6.04173 31.4952V16.9104M13.6943 34V28.7614C13.7069 28.1819 13.8302 27.6106 14.0571 27.0806C14.2841 26.5505 14.6101 26.0722 15.0166 25.673C15.4231 25.2739 15.902 24.9619 16.4255 24.755C16.9491 24.5482 17.5071 24.4504 18.0673 24.4676C18.6276 24.4504 19.1856 24.5482 19.7091 24.755C20.2327 24.9619 20.7115 25.2739 21.118 25.673C21.5245 26.0722 21.8505 26.5505 22.0775 27.0806C22.3044 27.6106 22.4277 28.1819 22.4403 28.7614V34M4.20119 16.9104H31.8781C32.3242 16.9084 32.7584 16.7617 33.1196 16.4909C33.4808 16.2201 33.7507 15.8389 33.8913 15.401C34.032 14.9631 34.0362 14.4906 33.9034 14.0501C33.7706 13.6097 33.5075 13.2234 33.1512 12.9458L20.0324 2.69773C19.4498 2.24485 18.7407 2 18.0119 2C17.2832 2 16.5741 2.24485 15.9916 2.69773L2.85882 12.7883C2.49447 13.0818 2.22732 13.4852 2.09434 13.9427C1.96136 14.4001 1.96914 14.889 2.11656 15.3417C2.26397 15.7944 2.54381 16.1886 2.91727 16.4696C3.29073 16.7506 3.73938 16.9046 4.20119 16.9104Z" stroke="#1C274C" stroke-width="2.5" stroke-linecap="round" stroke-linejoin="round"/>
</svg>
