<svg width="21" height="21" viewBox="0 0 21 21" fill="none" xmlns="http://www.w3.org/2000/svg">
<path opacity="0.4" d="M11.8125 7H14.4375L11.8125 9.625H14.4375" stroke="white" stroke-linecap="round" stroke-linejoin="round"/>
<path opacity="0.4" d="M15.75 1.75H19.25L15.75 5.25H19.25" stroke="white" stroke-linecap="round" stroke-linejoin="round"/>
<path opacity="0.8" d="M18.4338 10.3747L18.0059 10.1162L18.4338 10.3747ZM10.6253 2.56617L10.3667 2.13822V2.13823L10.6253 2.56617ZM18.75 10.5C18.75 15.0563 15.0563 18.75 10.5 18.75V19.75C15.6086 19.75 19.75 15.6086 19.75 10.5H18.75ZM10.5 18.75C5.94365 18.75 2.25 15.0563 2.25 10.5H1.25C1.25 15.6086 5.39137 19.75 10.5 19.75V18.75ZM2.25 10.5C2.25 5.94365 5.94365 2.25 10.5 2.25V1.25C5.39137 1.25 1.25 5.39137 1.25 10.5H2.25ZM13.5625 12.625C10.6975 12.625 8.375 10.3025 8.375 7.4375H7.375C7.375 10.8548 10.1452 13.625 13.5625 13.625V12.625ZM18.0059 10.1162C17.0967 11.6209 15.4466 12.625 13.5625 12.625V13.625C15.8111 13.625 17.779 12.4252 18.8618 10.6333L18.0059 10.1162ZM8.375 7.4375C8.375 5.55339 9.37914 3.90334 10.8838 2.99411L10.3667 2.13823C8.57477 3.221 7.375 5.1889 7.375 7.4375H8.375ZM10.5 2.25C10.487 2.25 10.4653 2.2473 10.4398 2.23647C10.4146 2.22571 10.3938 2.21039 10.3785 2.19447C10.3498 2.16452 10.3483 2.14225 10.3489 2.14648C10.3489 2.1469 10.3491 2.14908 10.3487 2.15219C10.3485 2.1536 10.3483 2.15482 10.348 2.15579C10.3479 2.15627 10.3478 2.15663 10.3477 2.15689C10.3477 2.15702 10.3476 2.15712 10.3476 2.15718C10.3476 2.15725 10.3476 2.15728 10.3476 2.15728C10.3477 2.15695 10.3527 2.14665 10.3667 2.13822L10.8838 2.99411C11.2605 2.7665 11.385 2.3468 11.3399 2.01264C11.2932 1.66696 11.026 1.25 10.5 1.25V2.25ZM18.8618 10.6333C18.8533 10.6473 18.8431 10.6523 18.8427 10.6524C18.8427 10.6524 18.8428 10.6524 18.8428 10.6524C18.8429 10.6524 18.843 10.6523 18.8431 10.6523C18.8434 10.6522 18.8437 10.6521 18.8442 10.652C18.8452 10.6517 18.8464 10.6515 18.8478 10.6513C18.8509 10.6509 18.8531 10.6511 18.8535 10.6511C18.8577 10.6517 18.8355 10.6503 18.8055 10.6215C18.7896 10.6062 18.7743 10.5854 18.7635 10.5602C18.7527 10.5347 18.75 10.513 18.75 10.5H19.75C19.75 9.97405 19.333 9.70679 18.9874 9.66011C18.6532 9.61498 18.2335 9.73949 18.0059 10.1162L18.8618 10.6333Z" fill="white"/>
</svg>
