<svg width="36" height="36" viewBox="0 0 36 36" fill="none" xmlns="http://www.w3.org/2000/svg">
<path d="M30.123 4.52674L30.1665 5.77598L30.123 4.52674ZM24.75 5.23129L24.3915 4.0338V4.0338L24.75 5.23129ZM20.5108 7.20425L19.8846 6.12237V6.12237L20.5108 7.20425ZM5.9736 4.61245L5.89692 5.8601L5.9736 4.61245ZM10.5 5.23129L10.8189 4.02266L10.5 5.23129ZM15.4234 7.31331L14.8391 8.41834L15.4234 7.31331ZM20.4414 30.104L21.0294 31.2071L20.4414 30.104ZM25.5 27.9502L25.1811 26.7415L25.5 27.9502ZM29.9777 27.3343L30.0557 28.5819L29.9777 27.3343ZM15.5586 30.104L14.9706 31.2071H14.9706L15.5586 30.104ZM10.5 27.9502L10.8189 26.7415H10.8189L10.5 27.9502ZM6.02229 27.3343L5.94426 28.5819H5.94426L6.02229 27.3343ZM4.25 24.2155V7.49682H1.75V24.2155H4.25ZM34.25 24.2155V7.39991H31.75V24.2155H34.25ZM30.0794 3.2775C28.3703 3.33703 26.1248 3.5149 24.3915 4.0338L25.1085 6.42878C26.5159 6.00743 28.4898 5.83439 30.1665 5.77598L30.0794 3.2775ZM24.3915 4.0338C22.8844 4.48499 21.1952 5.36389 19.8846 6.12237L21.1369 8.28613C22.4107 7.5489 23.8927 6.79274 25.1085 6.42878L24.3915 4.0338ZM5.89692 5.8601C7.34417 5.94905 8.97513 6.12169 10.1811 6.43992L10.8189 4.02266C9.36533 3.63908 7.53215 3.45588 6.05028 3.36481L5.89692 5.8601ZM10.1811 6.43992C11.6097 6.81691 13.3754 7.64439 14.8391 8.41834L16.0077 6.20829C14.5129 5.41788 12.5379 4.47626 10.8189 4.02266L10.1811 6.43992ZM21.0294 31.2071C22.5145 30.4154 24.3449 29.5478 25.8189 29.1588L25.1811 26.7415C23.4107 27.2087 21.3667 28.1942 19.8534 29.0009L21.0294 31.2071ZM25.8189 29.1588C27.0111 28.8442 28.6194 28.6717 30.0557 28.5819L29.8997 26.0868C28.4278 26.1788 26.619 26.3621 25.1811 26.7415L25.8189 29.1588ZM16.1466 29.0009C14.6333 28.1942 12.5893 27.2087 10.8189 26.7415L10.1811 29.1588C11.6551 29.5478 13.4855 30.4154 14.9706 31.2071L16.1466 29.0009ZM10.8189 26.7415C9.38099 26.3621 7.57222 26.1788 6.10032 26.0868L5.94426 28.5819C7.38062 28.6717 8.98889 28.8442 10.1811 29.1588L10.8189 26.7415ZM31.75 24.2155C31.75 25.1732 30.9538 26.0209 29.8997 26.0868L30.0557 28.5819C32.328 28.4398 34.25 26.5907 34.25 24.2155H31.75ZM34.25 7.39991C34.25 5.13981 32.4488 3.19497 30.0794 3.2775L30.1665 5.77598C31.0125 5.74652 31.75 6.44267 31.75 7.39991H34.25ZM1.75 24.2155C1.75 26.5907 3.67197 28.4398 5.94426 28.5819L6.10032 26.0868C5.04617 26.0209 4.25 25.1732 4.25 24.2155H1.75ZM19.8534 29.0009C18.7017 29.6148 17.2983 29.6148 16.1466 29.0009L14.9706 31.2071C16.8573 32.2128 19.1427 32.2128 21.0294 31.2071L19.8534 29.0009ZM19.8846 6.12237C18.6942 6.81132 17.2123 6.84525 16.0077 6.20829L14.8391 8.41834C16.816 9.4637 19.2124 9.39992 21.1369 8.28613L19.8846 6.12237ZM4.25 7.49682C4.25 6.51788 5.023 5.80639 5.89692 5.8601L6.05028 3.36481C3.6359 3.21642 1.75 5.18126 1.75 7.49682H4.25Z" fill="#1C274C"/>
<path opacity="0.5" d="M18 8.78101V31.4999" stroke="#1C274C" stroke-width="2.5"/>
<path opacity="0.5" d="M7.5 13.5L13.5 15" stroke="#1C274C" stroke-width="1.5" stroke-linecap="round"/>
<path opacity="0.5" d="M28.5 13.5L22.5 15" stroke="#1C274C" stroke-width="1.5" stroke-linecap="round"/>
<path opacity="0.5" d="M7.5 19.5L13.5 21" stroke="#1C274C" stroke-width="1.5" stroke-linecap="round"/>
<path opacity="0.5" d="M28.5 19.5L22.5 21" stroke="#1C274C" stroke-width="1.5" stroke-linecap="round"/>
</svg>
