<svg width="42" height="42" viewBox="0 0 42 42" fill="none" xmlns="http://www.w3.org/2000/svg">
<path d="M35 21C35 28.732 28.732 35 21 35C13.268 35 7 28.732 7 21C7 13.268 13.268 7 21 7C28.732 7 35 13.268 35 21Z" stroke="#1C274C" stroke-width="2.5"/>
<path d="M26.25 21C26.25 23.8995 23.8995 26.25 21 26.25C18.1005 26.25 15.75 23.8995 15.75 21C15.75 18.1005 18.1005 15.75 21 15.75C23.8995 15.75 26.25 18.1005 26.25 21Z" stroke="#1C274C" stroke-width="2.5"/>
<path d="M3.5 21L7 21" stroke="#1C274C" stroke-width="1.5" stroke-linecap="round"/>
<path d="M35 21L38.5 21" stroke="#1C274C" stroke-width="1.5" stroke-linecap="round"/>
<path d="M21 7V3.5" stroke="#1C274C" stroke-width="1.5" stroke-linecap="round"/>
<path d="M21 38.5V35" stroke="#1C274C" stroke-width="1.5" stroke-linecap="round"/>
</svg>
