<svg width="85" height="73" viewBox="0 0 85 73" fill="none" xmlns="http://www.w3.org/2000/svg">
<path d="M75.5358 9.60502L21.2311 38.7766L20.1789 40.3102C25.6218 38.6243 25.6703 40.9034 28.9508 40.7308C25.939 43.0929 23.6566 48.4124 20.4578 49.642C17.8536 50.6451 13.0065 52.6123 11.298 53.3081L7.30197 59.1703L8.70003 60.8989L77.6209 27.808L76.5209 10.3898L75.5358 9.60502Z" fill="#001C18"/>
<path d="M68.2299 50.7433C65.5638 49.2601 65.3293 43.5873 63.2718 40.9402C66.6133 41.3581 68.8357 39.1737 74.4504 42.09L74.1331 38.9365L19.7723 12.723L3.66862 27.0674L2.90015 28.3628L75.1078 62.395L76.3717 61.1852L75.7602 55.1181C74.3136 54.2553 70.3785 51.9373 68.2299 50.7433Z" fill="#001C18"/>
<path d="M74.453 42.0882L73.3624 43.1474C72.176 42.3667 70.7908 41.8693 69.3278 41.6988C67.0078 41.4686 66.1999 42.5395 62.9861 41.9332C62.6861 41.7519 62.4732 41.4733 62.3888 41.1511C62.3043 40.8289 62.3542 40.4862 62.5289 40.1892L69.4391 39.333L74.453 42.0882Z" fill="#001C18"/>
<path d="M68.2299 50.7426C65.5638 49.2594 65.3293 43.5866 63.2718 40.9395C66.6133 41.3574 68.8357 39.173 74.4503 42.0893L74.1331 38.9358L16.7351 11.9264L3.66859 27.0667L76.3776 61.1772L75.7661 55.1101C74.3136 54.2546 70.3784 51.9366 68.2299 50.7426Z" fill="#C992B1"/>
<path d="M45.7788 25.5908L24.6867 36.922L41.859 44.9796L64.1941 34.2545L45.7788 25.5908Z" fill="#001C18"/>
<path d="M20.1789 40.3098L21.0847 41.6257C21.0847 41.6257 22.6105 40.5355 24.3946 41.1134C26.1786 41.6912 27.7568 42.6938 30.2595 41.6701C30.4511 40.7978 30.3121 39.8999 29.8658 39.1263C29.8658 39.1263 23.7295 38.3895 23.5992 38.4097C23.4689 38.4298 20.1789 40.3098 20.1789 40.3098Z" fill="#001C18"/>
<path d="M21.2311 38.7766L20.1789 40.3102C25.6218 38.6243 25.6703 40.9034 28.9508 40.7308C25.939 43.0929 23.6566 48.4124 20.4578 49.642C17.8536 50.6451 13.0065 52.6123 11.298 53.3081L7.30197 59.1703L76.2368 26.8651L75.5358 9.60502L21.2311 38.7766Z" fill="#C992B1"/>
<path d="M45.7545 24.5899L20.567 36.681L37.9272 44.8632L39.5599 44.0554L45.7545 24.5899Z" fill="#001C18"/>
<path d="M45.7544 24.589L22.3297 35.835L39.5599 44.0544L45.7544 24.589Z" fill="#001C18"/>
<path d="M5.09233 26.3927C5.09233 26.3927 34.9651 41.1974 36.0643 41.7062C37.1635 42.215 39.393 43.0548 42.4543 41.648C45.5157 40.2411 75.1003 26.3463 75.1003 26.3463L74.6872 8.89005L74.4154 8.46455L45.0392 21.8766L19.3071 9.87041L5.01422 25.8881L5.09233 26.3927Z" fill="#001C18"/>
<path d="M5.01452 25.8872C5.01452 25.8872 34.8872 40.692 35.9868 41.2029C37.0864 41.7137 39.3152 42.5494 42.3768 41.1446C45.4385 39.7398 74.6105 26.0519 74.6105 26.0519L74.4173 8.47411L44.9598 21.3607L19.228 9.35662L5.01452 25.8872Z" fill="#87D1A4"/>
<path d="M20.4915 8.82785L5.83101 25.6155L35.7037 40.4203C35.7037 40.4203 37.0789 39.5669 38.1213 39.4056C39.1636 39.2442 41.7193 40.7701 41.7193 40.7701L73.2266 25.839L73.2208 8.42863L70.2063 7.71885L45.5391 20.2525L21.4859 8.67394L20.4915 8.82785Z" fill="#EFE8C5"/>
<path d="M70.7771 7.83518C70.7373 9.27181 70.6763 10.7075 70.6131 12.1435L70.3923 16.4477L70.1235 20.7594L69.9731 22.9178L69.7979 25.0671L69.8706 22.9208L69.9638 20.7713L70.1823 16.4674L70.4511 12.1557C70.5493 10.7036 70.6505 9.27031 70.7771 7.83518Z" fill="#FFD1A3"/>
<path d="M71.2139 8.0107C71.1984 9.42224 71.1822 10.8296 71.134 12.2419L70.9956 16.4737L70.8102 20.7041L70.7 22.8199L70.5595 24.9362L70.59 22.8199L70.6417 20.7046L70.7834 16.4638L70.9711 12.233C71.0418 10.83 71.1161 9.42003 71.2139 8.0107Z" fill="#FFD1A3"/>
<path d="M71.7732 8.14392C71.774 9.55506 71.7421 10.967 71.7262 12.3764L71.6319 16.6056L71.4707 20.8409L71.3768 22.9563L71.2621 25.0728L71.274 22.9573L71.3068 20.8406L71.4102 16.61L71.565 12.3779C71.6226 10.9663 71.6871 9.55356 71.7732 8.14392Z" fill="#FFD1A3"/>
<path d="M72.3162 8.26704C72.3284 9.67642 72.3197 11.0869 72.3061 12.496L72.2399 16.7251L72.1221 20.9536L72.0468 23.0683L71.9504 25.182L71.9437 23.0672L71.9605 20.953L72.0267 16.7239L72.1422 12.4957C72.182 11.089 72.2419 9.677 72.3162 8.26704Z" fill="#FFD1A3"/>
<path d="M72.8523 8.4071C72.8785 9.83139 72.8815 11.2571 72.8784 12.6732L72.8496 16.9477L72.7728 21.2297L72.7184 23.3731L72.6412 25.5201L72.6156 23.3891L72.6128 21.2544L72.653 16.9781L72.7298 12.6962C72.7516 11.2495 72.7897 9.83232 72.8523 8.4071Z" fill="#FFD1A3"/>
<path d="M8.45159 24.4733C8.45159 24.4733 15.1564 27.5069 20.7064 29.3401C26.2564 31.1733 36.9273 36.1956 38.1224 39.3947C40.7813 36.0538 44.1475 31.7473 51.4515 29.8822C58.7555 28.0171 67.7993 25.7333 68.9548 24.8669C69.1409 21.896 70.2228 7.70133 70.2228 7.70133C67.7738 8.52794 65.2787 9.22569 62.7499 9.79111C58.8506 10.6381 46.9782 14.88 45.551 20.2506C43.1429 16.5027 40.1482 14.5153 34.7292 13.1956C29.3102 11.8759 21.4863 8.67385 21.4863 8.67385L8.45159 24.4733Z" fill="#FBF9EF"/>
<path d="M38.1276 39.3981C40.7813 36.0537 44.1475 31.7472 51.4515 29.8822C58.7555 28.0171 67.7993 25.7332 68.9548 24.8669C69.1409 21.896 70.2228 7.70126 70.2228 7.70126C67.7738 8.52786 65.2786 9.22561 62.7499 9.79104C58.8506 10.638 46.9782 14.8799 45.551 20.2505L38.1276 39.3981Z" fill="#FBF9EF"/>
<path d="M56.8108 29.1502C43.2058 33.8717 38.1279 39.3975 38.1279 39.3975C39.177 39.2351 41.7259 40.7621 41.7259 40.7621L73.2332 25.831C73.2332 25.831 70.3224 25.1713 68.945 24.8764C67.4632 25.9641 64.5276 26.4292 56.8108 29.1502Z" fill="#FBF9EF"/>
<path d="M28.2438 31.4638C23.3498 29.3775 8.45143 24.4737 8.45143 24.4737L5.81953 25.6155L35.6922 40.4203C35.6922 40.4203 37.0675 39.5669 38.1098 39.4055C38.1935 36.348 33.1356 33.5505 28.2438 31.4638Z" fill="#FBF9EF"/>
<path d="M28.2436 31.4638C23.3495 29.3775 8.45117 24.4736 8.45117 24.4736C8.45117 24.4736 27.9334 32.59 30.407 33.6311C32.8806 34.6723 37.6806 37.5567 38.1272 39.3985C38.1933 36.3479 33.1353 33.5504 28.2436 31.4638Z" fill="#FCCE98"/>
<path d="M8.28516 25.1368C8.28516 25.1368 33.5214 36.3892 38.1275 39.3976C34.6322 36.2621 16.2991 27.9337 8.28516 25.1368Z" fill="#FCCE98"/>
<path d="M7.5332 25.2534L11.2197 26.963L14.8974 28.691L22.236 32.1753L29.5481 35.6999L33.1983 37.477L36.8347 39.2712L33.1482 37.5616L29.4705 35.8336L22.1319 32.3494L14.8195 28.8226L11.1696 27.0476L7.5332 25.2534Z" fill="#FCCE98"/>
<path d="M39.1766 39.2353C40.3016 38.4441 41.4531 37.6873 42.6071 36.9322C43.7611 36.1771 44.9392 35.4567 46.1255 34.7435C46.7183 34.3849 47.3147 34.0342 47.9199 33.695C48.5251 33.3558 49.1309 33.0208 49.7615 32.7097C51.0227 32.1024 52.3196 31.575 53.6218 31.0659C54.9239 30.5569 56.2459 30.1004 57.5652 29.6421C58.8845 29.1838 60.2039 28.7255 61.5336 28.289C62.8634 27.8526 64.1762 27.4124 65.5099 26.9562C66.8395 26.5295 68.1447 26.0374 69.4198 25.482C68.8071 25.8101 68.1741 26.1041 67.5245 26.3625C66.8802 26.6309 66.2285 26.8812 65.5794 27.1333C64.2698 27.6242 62.957 28.0943 61.6425 28.569C59.0149 29.5116 56.3723 30.4181 53.7778 31.424C52.478 31.9177 51.1837 32.4319 49.9386 33.0217C49.3197 33.3182 48.7094 33.639 48.1045 33.9803L46.2942 34.9865C45.0913 35.668 43.9008 36.3689 42.7191 37.0814C41.5374 37.7938 40.3547 38.5149 39.1766 39.2353Z" fill="#FCCE98"/>
<path d="M40.2941 39.3322C42.6157 37.9196 44.9976 36.5986 47.4396 35.3694C48.6566 34.754 49.8916 34.1636 51.1444 33.5982C51.7648 33.3121 52.3979 33.0476 53.0275 32.7751C53.657 32.5026 54.297 32.2519 54.9347 32.0016C57.485 30.9983 60.0237 29.9648 62.5565 28.9237C63.8243 28.4044 65.0885 27.877 66.3491 27.3417C66.9796 27.0754 67.6101 26.8092 68.2345 26.5332C68.8588 26.2572 69.488 25.9826 70.0951 25.6708C67.6697 26.9217 65.1368 27.9777 62.6219 29.0588C60.107 30.1398 57.5638 31.1591 55.0137 32.1794C52.4558 33.1646 49.9581 34.2964 47.5181 35.4982C46.2939 36.0976 45.0802 36.7189 43.8768 37.3621C42.6672 37.9998 41.4715 38.6525 40.2941 39.3322Z" fill="#FCCE98"/>
<path d="M37.4453 35.4265L37.1791 35.1133C36.292 34.0998 32.529 31.8811 28.8192 30.4292C25.2734 29.0395 14.7865 24.8128 14.6795 24.7717L14.4284 24.6611L24.8921 11.1833L25.1048 11.2721C25.1938 11.3032 34.002 14.3165 37.4818 15.7186C40.9615 17.1208 43.9052 19.6862 43.9351 19.7136L44.1388 19.9404L44.1129 19.9999C44.0771 20.0866 40.4544 28.6175 37.516 35.2789L37.4453 35.4265ZM14.8854 24.6352C16.0474 25.0958 25.5638 28.9347 28.9057 30.2472C32.2475 31.5596 36.0577 33.6749 37.2321 34.8659C40.024 28.5282 43.4044 20.5793 43.7336 19.8024C43.3346 19.4628 40.6013 17.1829 37.391 15.8886C34.091 14.559 25.9873 11.7718 25.1008 11.4734L14.8854 24.6352Z" fill="#004B40"/>
<path d="M40.9768 34.7932L40.5538 35.3263L46.5416 19.4541L46.553 19.4523C46.5762 19.421 48.954 16.32 52.0281 14.7382C56.6866 12.4607 64.9187 10.4071 65.0014 10.3815L65.5445 10.2462L65.5201 10.3909L62.9891 24.6135L62.9782 24.6792L62.5275 24.7917C44.2736 28.7681 41.0171 34.7358 40.9768 34.7932ZM46.7428 19.5446L41.2693 34.0818C42.6499 32.4163 47.6477 27.8551 62.423 24.6157C63.098 20.8261 64.6916 11.8578 64.9145 10.6063C63.7547 10.9011 56.4245 12.8087 52.1443 14.8996C49.1987 16.4039 46.8992 19.3304 46.7428 19.5446Z" fill="#004B40"/>
</svg>
