<svg width="24" height="24" viewBox="0 0 24 24" fill="none" xmlns="http://www.w3.org/2000/svg">
<path d="M7.42202 19.8509C8.24264 17.8145 9.91399 16.25 12 16.25C14.086 16.25 15.7574 17.8145 16.578 19.8509C16.8394 20.4997 16.7863 21.1855 16.5304 21.7225C16.2833 22.2409 15.768 22.75 15.0412 22.75H8.95877C8.23204 22.75 7.7167 22.2409 7.46965 21.7225C7.21372 21.1855 7.16056 20.4997 7.42202 19.8509Z" fill="#FFD365"/>
<path d="M20.9965 6.05401C20.7422 6.01866 20.3331 6.00001 19.7025 6.00001L18.5003 6.00001C17.948 6.00001 17.5003 5.5523 17.5003 5.00001C17.5003 4.44773 17.948 4.00001 18.5003 4.00001L19.7643 4.00001C20.3112 3.99993 20.8212 3.99985 21.2303 4.0567C21.6766 4.11874 22.1987 4.27154 22.5864 4.73866C22.9804 5.21324 23.0259 5.75825 22.9903 6.21074C22.9585 6.61617 22.8319 7.16595 22.7141 7.67808L22.3233 9.37719C21.6385 12.3551 19.1431 14.5403 16.1484 14.989C15.6022 15.0708 15.0931 14.6944 15.0113 14.1482C14.9295 13.602 15.3059 13.0929 15.8521 13.0111C18.0791 12.6774 19.8837 11.0621 20.3742 8.92897L20.7649 7.22985C20.9024 6.63193 20.9777 6.29288 20.9965 6.05401Z" fill="#FFD365"/>
<path d="M3.00376 6.05401C3.25809 6.01866 3.66716 6.00001 4.29779 6.00001L5.5 6.00001C6.05229 6.00001 6.5 5.5523 6.5 5.00001C6.5 4.44773 6.05229 4.00001 5.5 4.00001L4.23595 4.00001C3.68905 3.99993 3.17903 3.99985 2.76999 4.0567C2.3237 4.11874 1.80156 4.27154 1.4138 4.73866C1.01985 5.21324 0.974344 5.75825 1.00991 6.21074C1.04178 6.61617 1.15395 7.1035 1.27182 7.61563L1.67691 9.37719C2.36172 12.3551 4.85711 14.5403 7.85183 14.989C8.39801 15.0708 8.90713 14.6944 8.98896 14.1482C9.0708 13.602 8.69436 13.0929 8.14818 13.0111C5.92113 12.6774 4.11658 11.0621 3.62604 8.92897L3.23531 7.22985C3.09781 6.63193 3.02254 6.29288 3.00376 6.05401Z" fill="#FFD365"/>
<path d="M9.12662 1.25L9.18658 1.25L14.8734 1.25C15.7265 1.24995 16.4561 1.24991 17.0387 1.34459C17.6732 1.4477 18.2324 1.67692 18.6654 2.20167C19.0832 2.70817 19.2266 3.2765 19.2473 3.90676C19.2663 4.48832 19.1811 5.19486 19.0811 6.02493C18.6908 9.26423 17.8356 12.1753 16.6635 14.2451C15.5127 16.2775 13.9256 17.75 12 17.75C10.0744 17.75 8.48734 16.2775 7.33649 14.2451C6.16444 12.1753 5.30923 9.26424 4.91893 6.02493C4.81887 5.19486 4.7337 4.48832 4.75274 3.90676C4.77337 3.2765 4.91677 2.70817 5.33465 2.20167C5.76758 1.67692 6.32682 1.4477 6.96131 1.34459C7.54391 1.24991 8.2735 1.24995 9.12662 1.25Z" fill="#FFD365"/>
</svg>
