<svg width="25" height="24" viewBox="0 0 25 24" fill="none" xmlns="http://www.w3.org/2000/svg">
<path d="M9.55239 15.4024L6.03145 12.1918C5.84173 12.0188 5.58441 11.9216 5.3161 11.9216C5.04779 11.9216 4.79047 12.0188 4.60075 12.1918C4.41103 12.3648 4.30444 12.5995 4.30444 12.8441C4.30444 12.9653 4.33061 13.0852 4.38145 13.1971C4.43229 13.3091 4.50681 13.4108 4.60075 13.4964L8.84212 17.364C9.23784 17.7248 9.87709 17.7248 10.2728 17.364L21.0081 7.5748C21.1979 7.4018 21.3044 7.16716 21.3044 6.9225C21.3044 6.67784 21.1979 6.44319 21.0081 6.27019C20.8184 6.09719 20.5611 6 20.2928 6C20.0245 6 19.7672 6.09719 19.5774 6.27019L9.55239 15.4024Z" fill="#0E0E0F"/>
</svg>
