<svg width="31" height="24" viewBox="0 0 31 24" fill="none" xmlns="http://www.w3.org/2000/svg">
<path d="M2.33618 14.8807C2.33618 15.6194 2.48167 16.3508 2.76433 17.0332C3.047 17.7156 3.46131 18.3357 3.9836 18.858C5.03843 19.9128 6.46908 20.5054 7.96083 20.5054H22.9599C24.0673 20.5074 25.1342 20.0893 25.9455 19.3356C26.7567 18.5818 27.252 17.5485 27.3313 16.4439C27.4105 15.3394 27.068 14.2459 26.3727 13.384C25.6774 12.522 24.6812 11.9559 23.5848 11.7997C23.597 9.67328 22.8344 7.6152 21.4396 6.01017C20.0447 4.40514 18.1131 3.36303 16.0057 3.07863C13.8984 2.79423 11.7596 3.28701 9.98916 4.46487C8.21873 5.64272 6.93784 7.42501 6.38593 9.47859C5.21719 9.81947 4.1906 10.5303 3.46036 11.5045C2.73012 12.4786 2.33564 13.6633 2.33618 14.8807Z" stroke="#0E0E0F" style="stroke:#0E0E0F;stroke:color(display-p3 0.0549 0.0549 0.0588);stroke-opacity:1;" stroke-width="1.5" stroke-linejoin="round"/>
<path d="M12.3354 13.0059L14.8353 15.5058M14.8353 15.5058L17.3351 13.0059M14.8353 15.5058V8.00623" stroke="#0E0E0F" style="stroke:#0E0E0F;stroke:color(display-p3 0.0549 0.0549 0.0588);stroke-opacity:1;" stroke-width="1.5" stroke-linecap="round" stroke-linejoin="round"/>
</svg>
