<svg width="28" height="20" viewBox="0 0 28 20" fill="none" xmlns="http://www.w3.org/2000/svg">
<path d="M1.56738 12.8807C1.56738 13.6194 1.71287 14.3508 1.99553 15.0332C2.2782 15.7156 2.69251 16.3357 3.2148 16.858C4.26963 17.9128 5.70028 18.5054 7.19203 18.5054H22.1911C23.2985 18.5074 24.3654 18.0893 25.1767 17.3356C25.9879 16.5818 26.4832 15.5485 26.5625 14.4439C26.6417 13.3394 26.2992 12.2459 25.6039 11.384C24.9086 10.522 23.9124 9.95589 22.816 9.79969C22.8282 7.67328 22.0656 5.6152 20.6708 4.01017C19.2759 2.40514 17.3443 1.36303 15.2369 1.07863C13.1296 0.794228 10.9908 1.28701 9.22036 2.46487C7.44993 3.64272 6.16904 5.42501 5.61713 7.47859C4.44839 7.81947 3.42181 8.53035 2.69156 9.50446C1.96132 10.4786 1.56684 11.6633 1.56738 12.8807Z" fill="#0E0E0F" stroke="#0E0E0F" stroke-width="1.5" stroke-linejoin="round"/>
<path d="M11.5667 11.0059L14.0665 13.5058M14.0665 13.5058L16.5663 11.0059M14.0665 13.5058V6.00623" stroke="#0E0E0F" stroke-width="1.5" stroke-linecap="round" stroke-linejoin="round"/>
</svg>
