<svg width="31" height="24" viewBox="0 0 31 24" fill="none" xmlns="http://www.w3.org/2000/svg">
<path d="M2.56738 14.8807C2.56738 15.6194 2.71287 16.3508 2.99553 17.0332C3.2782 17.7156 3.69251 18.3357 4.2148 18.858C5.26963 19.9128 6.70028 20.5054 8.19203 20.5054H23.1911C24.2985 20.5074 25.3654 20.0893 26.1767 19.3356C26.9879 18.5818 27.4832 17.5485 27.5625 16.4439C27.6417 15.3394 27.2992 14.2459 26.6039 13.384C25.9086 12.522 24.9124 11.9559 23.816 11.7997C23.8282 9.67328 23.0656 7.6152 21.6708 6.01017C20.2759 4.40514 18.3443 3.36303 16.2369 3.07863C14.1296 2.79423 11.9908 3.28701 10.2204 4.46487C8.44993 5.64272 7.16904 7.42501 6.61713 9.47859C5.44839 9.81947 4.42181 10.5303 3.69156 11.5045C2.96132 12.4786 2.56684 13.6633 2.56738 14.8807Z" fill="#0E0E0F" stroke="#0E0E0F" style="fill:#0E0E0F;fill:color(display-p3 0.0549 0.0549 0.0588);fill-opacity:1;stroke:#0E0E0F;stroke:color(display-p3 0.0549 0.0549 0.0588);stroke-opacity:1;" stroke-width="1.5" stroke-linejoin="round"/>
<path d="M12.5667 13.0059L15.0665 15.5058M15.0665 15.5058L17.5663 13.0059M15.0665 15.5058V8.00623" stroke="#0E0E0F" style="stroke:#0E0E0F;stroke:color(display-p3 0.0549 0.0549 0.0588);stroke-opacity:1;" stroke-width="1.5" stroke-linecap="round" stroke-linejoin="round"/>
</svg>
