<svg width="21" height="27" viewBox="0 0 21 27" fill="none" xmlns="http://www.w3.org/2000/svg">
<path d="M18.6871 0H5.8122C4.76463 0 3.95361 0.84481 3.95361 1.89237V3.04132H14.7672C16.2878 3.04132 17.5044 4.25784 17.5044 5.81229V23.0464H18.6871C19.7347 23.0464 20.5457 22.2354 20.5457 21.1878V1.89237C20.5457 0.84481 19.7685 0 18.6871 0Z" fill="#EB4F29"/>
<path d="M14.7673 3.91979H3.5482C3.51441 3.91979 3.51441 3.91979 3.51441 3.91979C3.51441 3.91979 3.51441 3.91979 3.48062 3.91979H1.85858C0.84481 3.91979 0 4.7646 0 5.81216V25.1076C0 26.1552 0.84481 27 1.85858 27H14.7673C15.7811 27 16.6259 26.1552 16.6259 25.1076V23.5194L16.5921 23.4856C16.5921 23.4518 16.6259 23.4518 16.6259 23.4518V5.81216C16.6259 4.7646 15.7811 3.91979 14.7673 3.91979Z" fill="#EB4F29"/>
</svg>
