<svg width="15" height="19" viewBox="0 0 15 19" fill="none" xmlns="http://www.w3.org/2000/svg">
<path d="M9.30198 6.09125C10.1071 5.56952 10.6458 4.72454 10.7798 3.77437C10.9139 2.82506 10.6288 1.86386 10.0002 1.1402C9.37071 0.415704 8.45956 0 7.50001 0C6.54047 0 5.62937 0.415704 4.99983 1.1402C4.37121 1.86384 4.08616 2.82504 4.2202 3.77437C4.35424 4.72454 4.89296 5.5695 5.69805 6.09125C4.48998 6.38564 3.43199 7.11521 2.72876 8.14089H12.2712C11.5679 7.11521 10.5101 6.38564 9.30198 6.09125Z" fill="#2A2B30"/>
<path d="M13.6082 8.8197H1.39181C0.830205 8.8214 0.375473 9.27613 0.373779 9.83773V17.982C0.375476 18.5436 0.830205 18.9983 1.39181 19H13.6082C14.1698 18.9983 14.6245 18.5436 14.6262 17.982V9.83773C14.6245 9.27613 14.1698 8.8214 13.6082 8.8197ZM11.2327 14.317C11.2318 14.5791 11.0197 14.7912 10.7576 14.792H10.425C10.3648 14.9855 10.2859 15.173 10.1909 15.352L10.4285 15.5895C10.6142 15.7753 10.6142 16.0756 10.4285 16.2614L9.85158 16.8383C9.6641 17.0181 9.36716 17.0181 9.17967 16.8383L8.94212 16.6007C8.76312 16.6958 8.57563 16.7747 8.38221 16.8349V17.1674C8.38136 17.4296 8.16927 17.6417 7.90713 17.6425H7.0927C6.83056 17.6417 6.61847 17.4296 6.61762 17.1674V16.8349C6.42419 16.7747 6.23671 16.6958 6.05771 16.6007L5.82016 16.8383C5.63267 17.0181 5.33574 17.0181 5.14824 16.8383L4.57137 16.2614C4.38558 16.0756 4.38558 15.7753 4.57137 15.5895L4.80892 15.352C4.71391 15.173 4.63501 14.9855 4.57478 14.792H4.24223C3.9801 14.7912 3.768 14.5791 3.76715 14.317V13.5025C3.768 13.2404 3.98009 13.0283 4.24223 13.0275H4.57478C4.63501 12.834 4.71391 12.6465 4.80892 12.4675L4.57137 12.23C4.38558 12.0442 4.38558 11.7439 4.57137 11.5581L5.14824 10.9812C5.33573 10.8014 5.63267 10.8014 5.82016 10.9812L6.05771 11.2188C6.23671 11.1237 6.4242 11.0448 6.61762 10.9846V10.6521C6.61847 10.3899 6.83056 10.1778 7.0927 10.177H7.90713C8.16926 10.1778 8.38136 10.3899 8.38221 10.6521V10.9846C8.57563 11.0449 8.76312 11.1237 8.94212 11.2188L9.17967 10.9812C9.36716 10.8014 9.66409 10.8014 9.85158 10.9812L10.4285 11.5581C10.6142 11.7439 10.6142 12.0442 10.4285 12.23L10.1909 12.4675C10.2859 12.6465 10.3648 12.834 10.425 13.0275H10.7576C11.0197 13.0283 11.2318 13.2404 11.2327 13.5025V14.317Z" fill="#2A2B30"/>
<path d="M9.80743 13.3431C9.75059 13.1098 9.65812 12.8867 9.53257 12.6814C9.41719 12.4947 9.44519 12.2529 9.60044 12.0977L9.80405 11.8941L9.51561 11.6057L9.312 11.8093C9.15675 11.9645 8.91498 11.9925 8.72833 11.8771C8.52303 11.7516 8.2999 11.6591 8.06661 11.6023C7.85282 11.5514 7.70266 11.3605 7.7035 11.1408V10.8557H7.29629V11.1408C7.29714 11.3605 7.14698 11.5514 6.93319 11.6023C6.69989 11.6591 6.47676 11.7516 6.27146 11.8771C6.08482 11.9925 5.84303 11.9645 5.68779 11.8093L5.48418 11.6057L5.19574 11.8941L5.39935 12.0977C5.5546 12.2529 5.5826 12.4947 5.46722 12.6814C5.34166 12.8867 5.24919 13.1098 5.19236 13.3431C5.14145 13.5569 4.95057 13.707 4.73085 13.7062H4.4458V14.1134H4.73085C4.95057 14.1126 5.14145 14.2627 5.19236 14.4765C5.2492 14.7098 5.34167 14.9329 5.46722 15.1382C5.58345 15.3249 5.5546 15.5667 5.39935 15.7219L5.19574 15.9255L5.48418 16.214L5.68779 16.0104C5.84304 15.8551 6.08482 15.8263 6.27146 15.9425C6.47676 16.068 6.69989 16.1605 6.93319 16.2173C7.14697 16.2682 7.29714 16.4591 7.29629 16.6789V16.9639H7.7035V16.6789C7.70265 16.4591 7.85281 16.2683 8.06661 16.2173C8.2999 16.1605 8.52303 16.068 8.72833 15.9425C8.91497 15.8263 9.15676 15.8551 9.312 16.0104L9.51561 16.214L9.80405 15.9255L9.60044 15.7219C9.44519 15.5667 9.41635 15.3249 9.53257 15.1382C9.65813 14.9329 9.7506 14.7098 9.80743 14.4765C9.85834 14.2627 10.0492 14.1126 10.2689 14.1134H10.554V13.7062H10.2689C10.0492 13.707 9.85834 13.5569 9.80743 13.3431ZM7.4999 15.878C6.70413 15.878 5.98641 15.3987 5.68186 14.6632C5.37731 13.9276 5.54527 13.081 6.10858 12.5185C6.67103 11.9552 7.5177 11.7872 8.25323 12.0918C8.98875 12.3964 9.46809 13.1141 9.46809 13.9098C9.46724 14.9966 8.58664 15.8772 7.4999 15.878Z" fill="#2A2B30"/>
<path d="M8.78971 13.9097C8.78971 14.6215 8.21196 15.1993 7.5002 15.1993C6.78844 15.1993 6.21069 14.6215 6.21069 13.9097C6.21069 13.198 6.78844 12.6202 7.5002 12.6202C8.21196 12.6202 8.78971 13.198 8.78971 13.9097Z" fill="#2A2B30"/>
</svg>
