<svg width="23" height="21" viewBox="0 0 23 21" fill="none" xmlns="http://www.w3.org/2000/svg">
<path d="M16.9466 12.2208L16.1143 12.5836C16.4311 12.6844 16.7306 12.8313 16.9955 13.0185C17.0531 13.0617 17.1021 13.1107 17.1539 13.1568C17.7558 12.8947 18.2397 12.6499 18.6458 12.3993C18.1619 12.0336 17.511 11.9587 16.9466 12.2208Z" fill="#2A2B30"/>
<path d="M17.9227 14.2598V14.2829C18.9797 13.9718 19.9272 13.4966 20.7509 12.8803C20.6443 12.7594 20.483 12.6125 20.244 12.5261C19.7429 12.3446 19.2907 12.5693 19.1611 12.6413C18.7205 12.9379 18.1906 13.2202 17.5195 13.5168C17.7125 13.7472 17.8507 13.9978 17.9227 14.2598Z" fill="#2A2B30"/>
<path d="M8.57154 18.3608C7.02499 17.0389 5.25668 16.0914 3.28966 15.524L0.467285 20.42H8.38146L9.22817 18.9512C9.01217 18.7496 8.79617 18.5538 8.5773 18.3637C8.57154 18.3608 8.57154 18.3608 8.57154 18.3608Z" fill="#2A2B30"/>
<path d="M21.7704 12.9667C21.5112 12.9754 21.3096 13.0762 21.2146 13.1395C20.2728 13.8854 19.1583 14.4413 17.9141 14.7897C17.9083 14.7955 17.9083 14.8041 17.9083 14.8128C17.6923 15.239 17.0616 15.2448 16.7218 15.2477L15.7311 15.2534C14.8613 15.2621 13.6892 15.2736 12.2895 15.288C12.1542 15.288 12.0505 15.1814 12.0505 15.0489C12.0447 14.9193 12.1513 14.8099 12.2838 14.8099C13.6863 14.7955 14.8527 14.7869 15.7253 14.7753L16.716 14.7696C17.1653 14.7638 17.4245 14.7062 17.4763 14.5968C17.4965 14.5622 17.485 14.4874 17.4562 14.3808C17.3698 14.0554 17.1653 13.8077 16.9868 13.6378C16.9781 13.6291 16.9666 13.6147 16.9579 13.6032C16.8514 13.511 16.7621 13.439 16.7103 13.4016C16.2236 13.0474 15.6965 12.9322 15.3365 12.8947C14.1644 13.0589 12.9577 13.105 11.7423 13.0301C11.126 12.9926 10.5558 12.9293 9.99993 12.8429C9.86169 12.8198 9.72633 12.8054 9.59385 12.7939C7.79963 12.6499 6.00828 13.5514 4.92253 15.1382L4.67773 15.4867C6.18396 16.0742 7.57211 16.895 8.81626 17.9404C11.2326 17.9491 13.6258 17.687 15.9039 17.1427C20.5925 16.0224 22.4011 14.3635 22.5077 13.7731C22.5278 13.6723 22.5797 13.3613 22.4299 13.1741C22.2571 12.9523 21.8453 12.9581 21.7704 12.9667Z" fill="#2A2B30"/>
<path d="M12.5016 11.58C15.5305 11.58 18 9.1105 18 6.07835C18 3.04619 15.5305 0.579956 12.5016 0.579956C9.46624 0.579956 7 3.04298 7 6.07835C7 9.11372 9.46624 11.58 12.5016 11.58ZM13.0193 6.91436C12.9614 6.80825 12.8585 6.72787 12.7428 6.69571H12.7363L11.9839 6.49314C11.5884 6.38703 11.2572 6.1298 11.0482 5.77288C10.8457 5.41918 10.791 5.00439 10.8971 4.6089C11.0354 4.0687 11.4566 3.67963 11.9614 3.53494V2.56388H13.0289V3.5896L14.2669 3.92079L13.9936 4.94973L12.508 4.5478C12.4502 4.53172 12.3955 4.53172 12.3408 4.53816H12.3151C12.135 4.56388 11.9775 4.69893 11.9293 4.87899C11.8971 5.00761 11.9132 5.1298 11.9775 5.24234C12.0354 5.34844 12.1383 5.42883 12.2605 5.46099H12.2669L13.0161 5.66356C13.4116 5.76967 13.7428 6.02047 13.9453 6.37417C14.1543 6.73108 14.2122 7.14909 14.0997 7.55102C13.9968 7.94652 13.746 8.27771 13.3891 8.48671C13.2765 8.55102 13.1543 8.59925 13.0322 8.63783V9.59282H11.9646V8.57352L10.7299 8.24877L11.0064 7.2134L12.4984 7.60889C12.537 7.61854 12.5788 7.61854 12.6174 7.61854H12.6978C12.7524 7.6089 12.8039 7.59282 12.8585 7.56388C12.9646 7.49957 13.0418 7.39668 13.0707 7.28092C13.0997 7.14909 13.0836 7.02047 13.0193 6.91436Z" fill="#2A2B30"/>
</svg>
