<svg width="28" height="20" viewBox="0 0 28 20" fill="none" xmlns="http://www.w3.org/2000/svg">
<path d="M1.33618 12.8807C1.33618 13.6194 1.48167 14.3508 1.76433 15.0332C2.047 15.7156 2.46131 16.3357 2.9836 16.858C4.03843 17.9128 5.46908 18.5054 6.96083 18.5054H21.9599C23.0673 18.5074 24.1342 18.0893 24.9455 17.3356C25.7567 16.5818 26.252 15.5485 26.3313 14.4439C26.4105 13.3394 26.068 12.2459 25.3727 11.384C24.6774 10.522 23.6812 9.95589 22.5848 9.79969C22.597 7.67328 21.8344 5.6152 20.4396 4.01017C19.0447 2.40514 17.1131 1.36303 15.0057 1.07863C12.8984 0.794228 10.7596 1.28701 8.98916 2.46487C7.21873 3.64272 5.93784 5.42501 5.38593 7.47859C4.21719 7.81947 3.1906 8.53035 2.46036 9.50446C1.73012 10.4786 1.33564 11.6633 1.33618 12.8807Z" stroke="#0E0E0F" stroke-width="1.5" stroke-linejoin="round"/>
<path d="M11.3354 11.0059L13.8353 13.5058M13.8353 13.5058L16.3351 11.0059M13.8353 13.5058V6.00623" stroke="#0E0E0F" stroke-width="1.5" stroke-linecap="round" stroke-linejoin="round"/>
</svg>
