<svg width="25" height="24" viewBox="0 0 25 24" fill="none" xmlns="http://www.w3.org/2000/svg">
<path d="M20.2817 4H4.28174C3.18174 4 2.29174 4.9 2.29174 6L2.28174 18C2.28174 19.1 3.18174 20 4.28174 20H20.2817C21.3817 20 22.2817 19.1 22.2817 18V6C22.2817 4.9 21.3817 4 20.2817 4ZM19.8817 8.25L12.8117 12.67C12.4917 12.87 12.0717 12.87 11.7517 12.67L4.68174 8.25C4.58147 8.19371 4.49366 8.11766 4.42363 8.02645C4.3536 7.93525 4.3028 7.83078 4.27431 7.71937C4.24583 7.60796 4.24024 7.49194 4.25789 7.37831C4.27555 7.26468 4.31607 7.15581 4.37702 7.0583C4.43797 6.96079 4.51806 6.87666 4.61246 6.811C4.70687 6.74533 4.81361 6.69951 4.92623 6.6763C5.03886 6.65309 5.15502 6.65297 5.26769 6.67595C5.38036 6.69893 5.4872 6.74453 5.58174 6.81L12.2817 11L18.9817 6.81C19.0763 6.74453 19.1831 6.69893 19.2958 6.67595C19.4085 6.65297 19.5246 6.65309 19.6372 6.6763C19.7499 6.69951 19.8566 6.74533 19.951 6.811C20.0454 6.87666 20.1255 6.96079 20.1865 7.0583C20.2474 7.15581 20.2879 7.26468 20.3056 7.37831C20.3232 7.49194 20.3176 7.60796 20.2892 7.71937C20.2607 7.83078 20.2099 7.93525 20.1399 8.02645C20.0698 8.11766 19.982 8.19371 19.8817 8.25Z" fill="#0E0E0F" style="fill:#0E0E0F;fill:color(display-p3 0.0549 0.0549 0.0588);fill-opacity:1;"/>
</svg>
