<svg width="25" height="24" viewBox="0 0 25 24" fill="none" xmlns="http://www.w3.org/2000/svg">
<path d="M21.0549 8.41458V3.98438C21.0549 3.59606 20.7401 3.28125 20.3518 3.28125H15.9216L12.8323 0.204891C12.5579 -0.0682969 12.1144 -0.0682969 11.84 0.204891L8.75076 3.28125H4.32056C3.93224 3.28125 3.61743 3.59606 3.61743 3.98438V8.41458L0.541072 11.5039C0.267885 11.7782 0.267885 12.2218 0.541072 12.4962L3.61743 15.5854V20.0156C3.61743 20.4039 3.93224 20.7188 4.32056 20.7188H8.75076L11.84 23.7951C11.9772 23.9317 12.1567 24 12.3362 24C12.5157 24 12.6952 23.9317 12.8323 23.7951L15.9216 20.7188H20.3518C20.7401 20.7188 21.0549 20.4039 21.0549 20.0156V15.5854L24.1313 12.4962C24.4045 12.2218 24.4045 11.7782 24.1313 11.5039L21.0549 8.41458ZM19.8536 14.7989C19.7224 14.9307 19.6487 15.109 19.6487 15.295V19.3125H15.6312C15.4453 19.3125 15.2669 19.3862 15.1351 19.5174L12.3362 22.3046L9.53732 19.5174C9.40551 19.3862 9.22715 19.3125 9.0412 19.3125H5.02368V15.295C5.02368 15.1091 4.94999 14.9307 4.81879 14.7989L2.0316 12L4.81879 9.20114C4.94999 9.06933 5.02368 8.89097 5.02368 8.70502V4.6875H9.04115C9.2271 4.6875 9.40551 4.61381 9.53728 4.48261L12.3362 1.69542L15.1351 4.48261C15.2669 4.61381 15.4453 4.6875 15.6312 4.6875H19.6487V8.70497C19.6487 8.89092 19.7224 9.06933 19.8536 9.20109L22.6408 12L19.8536 14.7989Z" fill="#0E0E0F"/>
</svg>
