<svg width="25" height="24" viewBox="0 0 25 24" fill="none" xmlns="http://www.w3.org/2000/svg">
<path d="M21.2861 8.41458V3.98438C21.2861 3.59606 20.9713 3.28125 20.583 3.28125H16.1528L13.0635 0.204891C12.7891 -0.0682969 12.3456 -0.0682969 12.0712 0.204891L8.98196 3.28125H4.55176C4.16345 3.28125 3.84863 3.59606 3.84863 3.98438V8.41458L0.772273 11.5039C0.499086 11.7782 0.499086 12.2218 0.772273 12.4962L3.84863 15.5854V20.0156C3.84863 20.4039 4.16345 20.7188 4.55176 20.7188H8.98196L12.0712 23.7951C12.2084 23.9317 12.3879 24 12.5674 24C12.7469 24 12.9264 23.9317 13.0635 23.7951L16.1528 20.7188H20.583C20.9713 20.7188 21.2861 20.4039 21.2861 20.0156V15.5854L24.3625 12.4962C24.6357 12.2218 24.6357 11.7782 24.3625 11.5039L21.2861 8.41458Z" fill="#0E0E0F"/>
</svg>
