<svg width="25" height="24" viewBox="0 0 25 24" fill="none" xmlns="http://www.w3.org/2000/svg">
<path d="M12.2817 16.8001C13.5548 16.8001 14.7757 16.2944 15.6759 15.3942C16.576 14.494 17.0817 13.2731 17.0817 12.0001C17.0817 10.727 16.576 9.50613 15.6759 8.60596C14.7757 7.70579 13.5548 7.20007 12.2817 7.20007V16.8001Z" fill="#2A2B30"/>
<path fill-rule="evenodd" clip-rule="evenodd" d="M12.2817 0C5.65414 0 0.281738 5.3724 0.281738 12C0.281738 18.6276 5.65414 24 12.2817 24C18.9093 24 24.2817 18.6276 24.2817 12C24.2817 5.3724 18.9093 0 12.2817 0ZM12.2817 2.4V7.2C11.0087 7.2 9.7878 7.70571 8.88763 8.60589C7.98745 9.50606 7.48174 10.727 7.48174 12C7.48174 13.273 7.98745 14.4939 8.88763 15.3941C9.7878 16.2943 11.0087 16.8 12.2817 16.8V21.6C14.8278 21.6 17.2696 20.5886 19.07 18.7882C20.8703 16.9879 21.8817 14.5461 21.8817 12C21.8817 9.45392 20.8703 7.01212 19.07 5.21178C17.2696 3.41143 14.8278 2.4 12.2817 2.4Z" fill="#2A2B30"/>
</svg>
