<svg width="25" height="24" viewBox="0 0 25 24" fill="none" xmlns="http://www.w3.org/2000/svg">
<path d="M12.3356 21.7142C12.2605 21.7142 12.1862 21.6995 12.1169 21.6708C12.0476 21.6421 11.9845 21.6 11.9315 21.5469C11.8784 21.4938 11.8363 21.4308 11.8076 21.3615C11.7789 21.2922 11.7641 21.2178 11.7642 21.1428V7.99993C11.7647 7.54543 11.9454 7.10968 12.2668 6.7883C12.5882 6.46691 13.0239 6.28614 13.4784 6.28564H18.6213C18.6964 6.28563 18.7707 6.30039 18.84 6.3291C18.9093 6.35781 18.9723 6.3999 19.0254 6.45297C19.0785 6.50603 19.1206 6.56904 19.1493 6.63837C19.178 6.70771 19.1928 6.78203 19.1927 6.85707V19.9999C19.1928 20.075 19.178 20.1493 19.1493 20.2186C19.1206 20.288 19.0785 20.351 19.0254 20.404C18.9723 20.4571 18.9093 20.4992 18.84 20.5279C18.7707 20.5566 18.6964 20.5714 18.6213 20.5714H13.4784C13.3269 20.5715 13.1817 20.6318 13.0746 20.7389C12.9674 20.846 12.9072 20.9913 12.907 21.1428C12.907 21.2178 12.8923 21.2922 12.8636 21.3615C12.8348 21.4308 12.7928 21.4938 12.7397 21.5469C12.6866 21.6 12.6236 21.6421 12.5543 21.6708C12.485 21.6995 12.4106 21.7142 12.3356 21.7142ZM13.4784 7.4285C13.3269 7.42865 13.1817 7.48891 13.0746 7.59604C12.9674 7.70317 12.9072 7.84842 12.907 7.99993V19.5262C13.0906 19.4614 13.2838 19.4284 13.4784 19.4285H18.0499V7.4285H13.4784Z" fill="#0E0E0F"/>
<path d="M16.3349 10.2856H14.6207C14.4692 10.2856 14.3238 10.2254 14.2167 10.1182C14.1095 10.0111 14.0493 9.86575 14.0493 9.71421C14.0493 9.56267 14.1095 9.41733 14.2167 9.31018C14.3238 9.20302 14.4692 9.14282 14.6207 9.14282H16.3349C16.4864 9.14282 16.6317 9.20302 16.7389 9.31018C16.846 9.41733 16.9062 9.56267 16.9062 9.71421C16.9062 9.86575 16.846 10.0111 16.7389 10.1182C16.6317 10.2254 16.4864 10.2856 16.3349 10.2856Z" fill="#0E0E0F"/>
<path d="M16.3349 12.5712H14.6207C14.4692 12.5712 14.3238 12.511 14.2167 12.4039C14.1095 12.2967 14.0493 12.1514 14.0493 11.9999C14.0493 11.8483 14.1095 11.703 14.2167 11.5958C14.3238 11.4887 14.4692 11.4285 14.6207 11.4285H16.3349C16.4864 11.4285 16.6317 11.4887 16.7389 11.5958C16.846 11.703 16.9062 11.8483 16.9062 11.9999C16.9062 12.1514 16.846 12.2967 16.7389 12.4039C16.6317 12.511 16.4864 12.5712 16.3349 12.5712Z" fill="#0E0E0F"/>
<path d="M12.3352 21.7142C12.2601 21.7142 12.1858 21.6995 12.1165 21.6708C12.0471 21.6421 11.9841 21.6 11.9311 21.5469C11.878 21.4938 11.8359 21.4308 11.8072 21.3615C11.7785 21.2922 11.7637 21.2178 11.7637 21.1428C11.7636 20.9913 11.7033 20.846 11.5962 20.7389C11.4891 20.6318 11.3438 20.5715 11.1923 20.5714H6.04946C5.97441 20.5714 5.90009 20.5566 5.83076 20.5279C5.76142 20.4992 5.69842 20.4571 5.64535 20.404C5.59229 20.351 5.5502 20.288 5.52148 20.2186C5.49277 20.1493 5.47801 20.075 5.47803 19.9999V6.85707C5.47801 6.78203 5.49277 6.70771 5.52148 6.63837C5.5502 6.56904 5.59229 6.50603 5.64535 6.45297C5.69842 6.3999 5.76142 6.35781 5.83076 6.3291C5.90009 6.30039 5.97441 6.28563 6.04946 6.28564H11.1923C11.6468 6.28614 12.0826 6.46691 12.4039 6.7883C12.7253 7.10968 12.9061 7.54543 12.9066 7.99993V21.1428C12.9066 21.2178 12.8919 21.2922 12.8631 21.3615C12.8344 21.4308 12.7923 21.4938 12.7393 21.5469C12.6862 21.6 12.6232 21.6421 12.5539 21.6708C12.4845 21.6995 12.4102 21.7142 12.3352 21.7142ZM6.62088 19.4285H11.1923C11.387 19.4284 11.5802 19.4614 11.7637 19.5262V7.99993C11.7636 7.84842 11.7033 7.70317 11.5962 7.59604C11.4891 7.48891 11.3438 7.42865 11.1923 7.4285H6.62088V19.4285Z" fill="#0E0E0F"/>
<path d="M10.0492 10.2856H8.33506C8.18352 10.2856 8.03818 10.2254 7.93103 10.1182C7.82387 10.0111 7.76367 9.86575 7.76367 9.71421C7.76367 9.56267 7.82387 9.41733 7.93103 9.31018C8.03818 9.20302 8.18352 9.14282 8.33506 9.14282H10.0492C10.2008 9.14282 10.3461 9.20302 10.4532 9.31018C10.5604 9.41733 10.6206 9.56267 10.6206 9.71421C10.6206 9.86575 10.5604 10.0111 10.4532 10.1182C10.3461 10.2254 10.2008 10.2856 10.0492 10.2856Z" fill="#0E0E0F"/>
<path d="M10.0492 12.5712H8.33506C8.18352 12.5712 8.03818 12.511 7.93103 12.4039C7.82387 12.2967 7.76367 12.1514 7.76367 11.9999C7.76367 11.8483 7.82387 11.703 7.93103 11.5958C8.03818 11.4887 8.18352 11.4285 8.33506 11.4285H10.0492C10.2008 11.4285 10.3461 11.4887 10.4532 11.5958C10.5604 11.703 10.6206 11.8483 10.6206 11.9999C10.6206 12.1514 10.5604 12.2967 10.4532 12.4039C10.3461 12.511 10.2008 12.5712 10.0492 12.5712Z" fill="#0E0E0F"/>
<path d="M16.3349 14.8569H14.6207C14.4692 14.8569 14.3238 14.7967 14.2167 14.6895C14.1095 14.5824 14.0493 14.437 14.0493 14.2855C14.0493 14.134 14.1095 13.9886 14.2167 13.8815C14.3238 13.7743 14.4692 13.7141 14.6207 13.7141H16.3349C16.4864 13.7141 16.6317 13.7743 16.7389 13.8815C16.846 13.9886 16.9062 14.134 16.9062 14.2855C16.9062 14.437 16.846 14.5824 16.7389 14.6895C16.6317 14.7967 16.4864 14.8569 16.3349 14.8569Z" fill="#0E0E0F"/>
<path d="M10.0492 14.8569H8.33506C8.18352 14.8569 8.03818 14.7967 7.93103 14.6895C7.82387 14.5824 7.76367 14.437 7.76367 14.2855C7.76367 14.134 7.82387 13.9886 7.93103 13.8815C8.03818 13.7743 8.18352 13.7141 8.33506 13.7141H10.0492C10.2008 13.7141 10.3461 13.7743 10.4532 13.8815C10.5604 13.9886 10.6206 14.134 10.6206 14.2855C10.6206 14.437 10.5604 14.5824 10.4532 14.6895C10.3461 14.7967 10.2008 14.8569 10.0492 14.8569Z" fill="#0E0E0F"/>
<path d="M16.3349 17.1428H14.6207C14.4692 17.1428 14.3238 17.0826 14.2167 16.9754C14.1095 16.8683 14.0493 16.7229 14.0493 16.5714C14.0493 16.4198 14.1095 16.2745 14.2167 16.1674C14.3238 16.0602 14.4692 16 14.6207 16H16.3349C16.4864 16 16.6317 16.0602 16.7389 16.1674C16.846 16.2745 16.9062 16.4198 16.9062 16.5714C16.9062 16.7229 16.846 16.8683 16.7389 16.9754C16.6317 17.0826 16.4864 17.1428 16.3349 17.1428Z" fill="#0E0E0F"/>
<path d="M10.0492 17.1428H8.33506C8.18352 17.1428 8.03818 17.0826 7.93103 16.9754C7.82387 16.8683 7.76367 16.7229 7.76367 16.5714C7.76367 16.4198 7.82387 16.2745 7.93103 16.1674C8.03818 16.0602 8.18352 16 8.33506 16H10.0492C10.2008 16 10.3461 16.0602 10.4532 16.1674C10.5604 16.2745 10.6206 16.4198 10.6206 16.5714C10.6206 16.7229 10.5604 16.8683 10.4532 16.9754C10.3461 17.0826 10.2008 17.1428 10.0492 17.1428Z" fill="#0E0E0F"/>
<path d="M12.335 24C11.9806 23.9996 11.635 23.8896 11.3456 23.6849C11.0562 23.4803 10.8372 23.1912 10.7186 22.8572H4.335C4.032 22.8568 3.74151 22.7363 3.52726 22.522C3.313 22.3078 3.19249 22.0173 3.19214 21.7143V8.59545C3.19249 8.29245 3.313 8.00196 3.52726 7.78771C3.74151 7.57345 4.032 7.45294 4.335 7.45259H6.04928C6.20083 7.45259 6.34618 7.51279 6.45334 7.61996C6.56051 7.72712 6.62071 7.87247 6.62071 8.02402C6.62071 8.17557 6.56051 8.32092 6.45334 8.42808C6.34618 8.53524 6.20083 8.59545 6.04928 8.59545H4.335V21.7143H11.1921C11.2672 21.7143 11.3415 21.7291 11.4108 21.7578C11.4802 21.7865 11.5432 21.8286 11.5962 21.8816C11.6493 21.9347 11.6914 21.9977 11.7201 22.067C11.7488 22.1364 11.7636 22.2107 11.7636 22.2857C11.7636 22.4373 11.8238 22.5826 11.9309 22.6898C12.0381 22.797 12.1834 22.8572 12.335 22.8572C12.4865 22.8572 12.6319 22.797 12.7391 22.6898C12.8462 22.5826 12.9064 22.4373 12.9064 22.2857C12.9064 22.2107 12.9212 22.1364 12.9499 22.067C12.9786 21.9977 13.0207 21.9347 13.0737 21.8816C13.1268 21.8286 13.1898 21.7865 13.2592 21.7578C13.3285 21.7291 13.4028 21.7143 13.4779 21.7143H20.335V8.57145H18.6207C18.4692 8.57145 18.3238 8.51124 18.2167 8.40408C18.1095 8.29692 18.0493 8.15157 18.0493 8.00002C18.0493 7.84847 18.1095 7.70312 18.2167 7.59596C18.3238 7.48879 18.4692 7.42859 18.6207 7.42859H20.335C20.638 7.42894 20.9285 7.54945 21.1427 7.76371C21.357 7.97796 21.4775 8.26845 21.4779 8.57145V21.7143C21.4775 22.0173 21.357 22.3078 21.1427 22.522C20.9285 22.7363 20.638 22.8568 20.335 22.8572H13.9513C13.8328 23.1912 13.6138 23.4803 13.3244 23.6849C13.035 23.8896 12.6894 23.9996 12.335 24Z" fill="#0E0E0F"/>
<path d="M3.76368 14.8567H1.38301C1.09285 14.8432 0.819811 14.7155 0.623523 14.5013C0.427235 14.2872 0.323643 14.0041 0.33537 13.7139V10.2856C0.323643 9.99536 0.427235 9.71228 0.623523 9.49816C0.819811 9.28405 1.09285 9.1563 1.38301 9.14282H3.76368C3.83873 9.1428 3.91303 9.15757 3.98237 9.18628C4.0517 9.21499 4.1147 9.25707 4.16776 9.31013C4.22082 9.3632 4.26291 9.42619 4.29162 9.49552C4.32032 9.56486 4.33509 9.63917 4.33507 9.71421V14.2853C4.33509 14.3603 4.32032 14.4346 4.29162 14.504C4.26291 14.5733 4.22082 14.6363 4.16776 14.6894C4.1147 14.7424 4.0517 14.7845 3.98237 14.8132C3.91303 14.8419 3.83873 14.8567 3.76368 14.8567ZM1.47814 13.7139H3.1923V10.2856H1.48651L1.47814 13.7139Z" fill="#0E0E0F"/>
<path d="M23.2875 14.8567H20.9068C20.8318 14.8567 20.7575 14.8419 20.6882 14.8132C20.6188 14.7845 20.5558 14.7424 20.5028 14.6894C20.4497 14.6363 20.4076 14.5733 20.3789 14.504C20.3502 14.4346 20.3354 14.3603 20.3354 14.2853V9.71421C20.3354 9.63917 20.3502 9.56486 20.3789 9.49552C20.4076 9.42619 20.4497 9.3632 20.5028 9.31013C20.5558 9.25707 20.6188 9.21499 20.6882 9.18628C20.7575 9.15757 20.8318 9.1428 20.9068 9.14282H23.2875C23.5777 9.1563 23.8507 9.28405 24.047 9.49816C24.2433 9.71228 24.3469 9.99536 24.3351 10.2856V13.7139C24.3469 14.0041 24.2433 14.2872 24.047 14.5013C23.8507 14.7155 23.5777 14.8432 23.2875 14.8567ZM21.4782 13.7139H23.184L23.1924 10.2856H21.4782V13.7139Z" fill="#0E0E0F"/>
<path d="M23.1927 10.2857C23.1177 10.2857 23.0433 10.271 22.974 10.2423C22.9047 10.2135 22.8417 10.1715 22.7886 10.1184C22.7355 10.0653 22.6934 10.0023 22.6647 9.93299C22.636 9.86365 22.6213 9.78933 22.6213 9.71429C22.6187 7.44178 21.7149 5.26307 20.108 3.65616C18.5011 2.04926 16.3223 1.14539 14.0498 1.14286H10.6213C8.34876 1.14539 6.17005 2.04926 4.56315 3.65616C2.95624 5.26307 2.05237 7.44178 2.04984 9.71429C2.04984 9.86584 1.98964 10.0112 1.88247 10.1183C1.77531 10.2255 1.62996 10.2857 1.47841 10.2857C1.32686 10.2857 1.18151 10.2255 1.07435 10.1183C0.967186 10.0112 0.906982 9.86584 0.906982 9.71429C0.909856 7.13878 1.93425 4.66958 3.75541 2.84842C5.57656 1.02726 8.04576 0.00287369 10.6213 0H14.0498C16.6253 0.00287369 19.0945 1.02726 20.9157 2.84842C22.7369 4.66958 23.7613 7.13878 23.7641 9.71429C23.7641 9.78933 23.7494 9.86365 23.7207 9.93299C23.692 10.0023 23.6499 10.0653 23.5968 10.1184C23.5437 10.1715 23.4807 10.2135 23.4114 10.2423C23.3421 10.271 23.2677 10.2857 23.1927 10.2857Z" fill="#0E0E0F"/>
</svg>
