<svg width="23" height="24" viewBox="0 0 23 24" fill="none" xmlns="http://www.w3.org/2000/svg">
<path d="M19.0602 17.8523L17.5606 19.2624C16.4556 20.2929 15.0213 21.6189 13.2576 23.2404C12.7276 23.7276 12.0191 24 11.2817 24C10.5444 24 9.83593 23.7276 9.30586 23.2404L4.8955 19.1615C4.34047 18.6442 3.8764 18.2078 3.50329 17.8523C1.96499 16.3897 0.91742 14.5263 0.493047 12.4977C0.0686741 10.4691 0.286557 8.36647 1.11914 6.4556C1.95173 4.54473 3.36163 2.91149 5.17055 1.7624C6.97947 0.61332 9.10618 0 11.2817 0C13.4573 0 15.584 0.61332 17.3929 1.7624C19.2018 2.91149 20.6117 4.54473 21.4443 6.4556C22.2769 8.36647 22.4948 10.4691 22.0704 12.4977C21.6461 14.5263 20.5985 16.3897 19.0602 17.8523ZM14.4401 10.7876C14.4401 9.9912 14.1074 9.22745 13.515 8.66434C12.9227 8.10122 12.1194 7.78486 11.2817 7.78486C10.4441 7.78486 9.64074 8.10122 9.04843 8.66434C8.45612 9.22745 8.12336 9.9912 8.12336 10.7876C8.12336 11.5839 8.45612 12.3477 9.04843 12.9108C9.64074 13.4739 10.4441 13.7903 11.2817 13.7903C12.1194 13.7903 12.9227 13.4739 13.515 12.9108C14.1074 12.3477 14.4401 11.5839 14.4401 10.7876Z" fill="#0E0E0F"/>
</svg>
