<svg width="19" height="21" viewBox="0 0 19 21" fill="none" xmlns="http://www.w3.org/2000/svg">
<path d="M13.8333 5.19398C13.5299 4.89058 13.0384 4.89058 12.736 5.19398C12.4326 5.49738 12.4326 5.98886 12.736 6.29124L16.1694 9.72753H6.29499C5.86518 9.72753 5.51831 10.0744 5.51831 10.5042C5.51831 10.934 5.86518 11.2809 6.29499 11.2809H16.1694L12.7331 14.7143C12.4297 15.0177 12.4297 15.5092 12.7331 15.8116C12.8858 15.9643 13.0831 16.0391 13.2823 16.0391C13.4815 16.0391 13.6807 15.9643 13.8314 15.8116L18.5896 11.0534C18.893 10.75 18.893 10.2585 18.5896 9.95613L13.8333 5.19398Z" fill="#2A2B30"/>
<path d="M4.48291 10.5044C4.48291 9.5022 5.29296 8.69214 6.29516 8.69214H10.5356V4.85535C10.5356 3.56896 9.67092 2.44037 8.43105 2.10047L3.8023 0.608805C3.78916 0.603748 3.77601 0.600714 3.76084 0.595658C2.89922 0.368114 1.99814 0.551162 1.29328 1.09524C0.586372 1.63933 0.182861 2.46456 0.182861 3.35551V17.6441C0.182861 18.535 0.586372 19.3603 1.29328 19.9043C1.80094 20.2957 2.40673 20.5 3.02766 20.5C3.27138 20.5 3.51712 20.4687 3.75983 20.4039C3.77298 20.4009 3.78612 20.3958 3.8013 20.3908L8.43004 18.9021C9.66991 18.5654 10.5346 17.4368 10.5346 16.1473L10.5356 12.3164H6.29516C5.29296 12.3164 4.48291 11.5066 4.48291 10.5044Z" fill="#2A2B30"/>
</svg>
