<svg width="20" height="19" viewBox="0 0 20 19" fill="none" xmlns="http://www.w3.org/2000/svg">
<path d="M19.4111 11.5594C19.2936 11.5069 19.1552 11.5457 19.0833 11.65C18.7802 12.0877 18.4268 12.4888 18.0324 12.8435C17.7602 13.0894 17.4664 13.314 17.1556 13.5149V9.76457H17.4726C18.0224 9.76457 18.4701 9.32385 18.4701 8.78263C18.4701 8.24142 18.0224 7.8007 17.4726 7.8007H17.3813C17.6566 7.32724 17.8569 6.64066 17.519 5.81622C17.1463 4.90812 16.4217 4.67216 15.6547 4.4225C14.9649 4.19796 14.1832 3.94372 13.4633 3.13685C13.4131 3.08052 13.3404 3.04779 13.2638 3.04779C13.1873 3.04779 13.1154 3.07976 13.0643 3.13685C12.3445 3.9437 11.5627 4.19794 10.873 4.4225C10.1059 4.67216 9.3814 4.90814 9.0087 5.81622C8.67079 6.64058 8.87106 7.32716 9.14633 7.8007H9.05509C8.50532 7.8007 8.05759 8.24142 8.05759 8.78263C8.05759 9.32385 8.5053 9.76457 9.05509 9.76457H9.37213V13.4578C9.06669 13.2515 8.77442 13.0194 8.49835 12.7613C8.00115 12.297 7.57585 11.7619 7.23486 11.1704C5.33034 7.87298 6.50568 3.66433 9.85535 1.78877C10.7902 1.26508 11.8063 0.966683 12.8741 0.901988C13.0025 0.894376 13.1069 0.796945 13.1216 0.670588C13.1363 0.544993 13.0566 0.42701 12.9329 0.391233C10.3973 -0.341783 7.73823 -0.0380697 5.44475 1.24604C0.819988 3.83479 -0.803023 9.64561 1.82677 14.1984C3.60294 17.2735 6.87139 19 10.2312 19C11.8466 19 13.4828 18.6004 14.9845 17.76C16.1204 17.1237 17.0962 16.2856 17.8835 15.2695C18.0838 15.0107 18.2701 14.7428 18.4379 14.4725C18.9405 13.6649 19.3179 12.7865 19.5591 11.8618C19.5908 11.7392 19.529 11.6121 19.4114 11.5596L19.4111 11.5594ZM8.58788 8.78263C8.58788 8.52839 8.79743 8.32211 9.0557 8.32211H17.4732C17.7315 8.32211 17.941 8.52839 17.941 8.78263C17.941 9.03687 17.7315 9.24315 17.4732 9.24315H9.0557C8.7982 9.24315 8.58788 9.03687 8.58788 8.78263ZM11.5378 12.9106H12.0025C12.1046 12.9106 12.1966 12.8528 12.2407 12.7622C12.2847 12.6716 12.2716 12.5643 12.2082 12.4859C12.2059 12.4828 11.946 12.1563 12.0605 11.7978C12.1409 11.545 12.7835 11.0883 13.2637 10.8097C13.7439 11.0883 14.3864 11.5458 14.4668 11.7985C14.582 12.1578 14.3222 12.4836 14.3207 12.4851C14.2557 12.5627 14.2418 12.6708 14.2859 12.7622C14.33 12.8535 14.4228 12.9114 14.5256 12.9114H14.9896V14.4528C13.8452 14.7359 12.6591 14.7253 11.5371 14.4345L11.5378 12.9106Z" fill="#2A2B30"/>
</svg>
