<svg width="25" height="24" viewBox="0 0 25 24" fill="none" xmlns="http://www.w3.org/2000/svg">
<path d="M22.4111 13.5594C22.2936 13.5069 22.1552 13.5457 22.0833 13.65C21.7802 14.0877 21.4268 14.4888 21.0324 14.8435C20.7602 15.0894 20.4664 15.314 20.1556 15.5149V11.7646H20.4726C21.0224 11.7646 21.4701 11.3238 21.4701 10.7826C21.4701 10.2414 21.0224 9.8007 20.4726 9.8007H20.3813C20.6566 9.32724 20.8569 8.64066 20.519 7.81622C20.1463 6.90812 19.4217 6.67216 18.6547 6.4225C17.9649 6.19796 17.1832 5.94372 16.4633 5.13685C16.4131 5.08052 16.3404 5.04779 16.2638 5.04779C16.1873 5.04779 16.1154 5.07976 16.0643 5.13685C15.3445 5.9437 14.5627 6.19794 13.873 6.4225C13.1059 6.67216 12.3814 6.90814 12.0087 7.81622C11.6708 8.64058 11.8711 9.32716 12.1463 9.8007H12.0551C11.5053 9.8007 11.0576 10.2414 11.0576 10.7826C11.0576 11.3238 11.5053 11.7646 12.0551 11.7646H12.3721V15.4578C12.0667 15.2515 11.7744 15.0194 11.4984 14.7613C11.0012 14.297 10.5759 13.7619 10.2349 13.1704C8.33034 9.87298 9.50568 5.66433 12.8554 3.78877C13.7902 3.26508 14.8063 2.96668 15.8741 2.90199C16.0025 2.89438 16.1069 2.79695 16.1216 2.67059C16.1363 2.54499 16.0566 2.42701 15.9329 2.39123C13.3973 1.65822 10.7382 1.96193 8.44475 3.24604C3.81999 5.83479 2.19698 11.6456 4.82677 16.1984C6.60294 19.2735 9.87139 21 13.2312 21C14.8466 21 16.4828 20.6004 17.9845 19.76C19.1204 19.1237 20.0962 18.2856 20.8835 17.2695C21.0838 17.0107 21.2701 16.7428 21.4379 16.4725C21.9405 15.6649 22.3179 14.7865 22.5591 13.8618C22.5908 13.7392 22.529 13.6121 22.4114 13.5596L22.4111 13.5594ZM11.5879 10.7826C11.5879 10.5284 11.7974 10.3221 12.0557 10.3221H20.4732C20.7315 10.3221 20.941 10.5284 20.941 10.7826C20.941 11.0369 20.7315 11.2431 20.4732 11.2431H12.0557C11.7982 11.2431 11.5879 11.0369 11.5879 10.7826ZM14.5378 14.9106H15.0025C15.1046 14.9106 15.1966 14.8528 15.2407 14.7622C15.2847 14.6716 15.2716 14.5643 15.2082 14.4859C15.2059 14.4828 14.946 14.1563 15.0605 13.7978C15.1409 13.545 15.7835 13.0883 16.2637 12.8097C16.7439 13.0883 17.3864 13.5458 17.4668 13.7985C17.582 14.1578 17.3222 14.4836 17.3207 14.4851C17.2557 14.5627 17.2418 14.6708 17.2859 14.7622C17.33 14.8535 17.4228 14.9114 17.5256 14.9114H17.9896V16.4528C16.8452 16.7359 15.6591 16.7253 14.5371 16.4345L14.5378 14.9106Z" fill="#2A2B30" style="fill:#2A2B30;fill:color(display-p3 0.1647 0.1686 0.1882);fill-opacity:1;"/>
</svg>
