<svg width="25" height="22" viewBox="0 0 25 22" fill="none" xmlns="http://www.w3.org/2000/svg">
<g clip-path="url(#clip0_377_48085)">
<path d="M1.97108 21.6637C2.33127 21.6637 2.64335 21.5314 2.90657 21.2651C3.83842 20.326 11.2903 12.8099 12.2214 11.87C12.4847 11.6045 12.6166 11.2905 12.6166 10.9264C12.6166 10.5631 12.4847 10.2483 12.2214 9.98286C11.2903 9.04371 3.83842 1.52758 2.90657 0.587692C2.64335 0.3222 2.33127 0.189087 1.97108 0.189087C1.61088 0.189087 1.2988 0.3222 1.03558 0.587692C0.772357 0.853183 0.640381 1.16795 0.640381 1.53125C0.640381 3.41029 0.640381 18.4425 0.640381 20.3216C0.640381 20.6856 0.772357 20.9997 1.03558 21.2651C1.2988 21.5314 1.61088 21.6637 1.97108 21.6637Z" fill="#2A2B30"/>
</g>
<g clip-path="url(#clip1_377_48085)">
<path d="M13.703 21.6637C14.0632 21.6637 14.3753 21.5314 14.6385 21.2651C15.5704 20.326 23.0222 12.8099 23.9534 11.87C24.2166 11.6045 24.3486 11.2905 24.3486 10.9264C24.3486 10.5631 24.2166 10.2483 23.9534 9.98286C23.0222 9.04371 15.5704 1.52758 14.6385 0.587692C14.3753 0.3222 14.0632 0.189087 13.703 0.189087C13.3428 0.189087 13.0307 0.3222 12.7675 0.587692C12.5043 0.853183 12.3723 1.16795 12.3723 1.53125C12.3723 3.41029 12.3723 18.4425 12.3723 20.3216C12.3723 20.6856 12.5043 20.9997 12.7675 21.2651C13.0307 21.5314 13.3428 21.6637 13.703 21.6637Z" fill="#2A2B30"/>
</g>
<defs>
<clipPath id="clip0_377_48085">
<rect width="12.2679" height="21.9976" fill="white" transform="translate(0.567383 0.0012207)"/>
</clipPath>
<clipPath id="clip1_377_48085">
<rect width="12.2679" height="21.9976" fill="white" transform="translate(12.2993 0.0012207)"/>
</clipPath>
</defs>
</svg>
