<svg width="25" height="24" viewBox="0 0 25 24" fill="none" xmlns="http://www.w3.org/2000/svg">
<path d="M10.7552 8.22852C10.5994 8.22852 10.4499 8.27818 10.3396 8.36659C10.2294 8.455 10.1675 8.57491 10.1675 8.69994V15.2999C10.1675 15.5602 10.4308 15.7714 10.7552 15.7714H11.1471C11.303 15.7714 11.4525 15.7217 11.5627 15.6333C11.6729 15.5449 11.7348 15.425 11.7348 15.2999V8.69994C11.7348 8.57491 11.6729 8.455 11.5627 8.36659C11.4525 8.27818 11.303 8.22852 11.1471 8.22852H10.7552ZM14.6736 8.22852C14.5177 8.22852 14.3682 8.27818 14.258 8.36659C14.1478 8.455 14.0858 8.57491 14.0858 8.69994V11.9999V15.2999C14.0858 15.5602 14.3492 15.7714 14.6736 15.7714H15.0654C15.2213 15.7714 15.3708 15.7217 15.481 15.6333C15.5913 15.5449 15.6532 15.425 15.6532 15.2999V8.69994C15.6532 8.57491 15.5913 8.455 15.481 8.36659C15.3708 8.27818 15.2213 8.22852 15.0654 8.22852H14.6736Z" fill="#2A2B30" stroke="#2A2B30"/>
<path d="M21.5674 12C21.5674 16.9706 17.538 21 12.5674 21C7.59682 21 3.56738 16.9706 3.56738 12C3.56738 7.02944 7.59682 3 12.5674 3C17.538 3 21.5674 7.02944 21.5674 12Z" stroke="#2A2B30" stroke-width="2.5" stroke-linecap="round" stroke-linejoin="round"/>
</svg>
