<svg width="17" height="17" viewBox="0 0 17 17" fill="none" xmlns="http://www.w3.org/2000/svg">
<path fill-rule="evenodd" clip-rule="evenodd" d="M8.4435 0H10.1018C11.5108 0 12.6468 -3.31628e-08 13.54 0.119534C14.4673 0.244864 15.2482 0.511467 15.8684 1.13159C16.4886 1.75171 16.7559 2.53268 16.8805 3.46004C17 4.35328 17 5.48915 17 6.89828V10.1017C17 11.5108 17 12.6468 16.8805 13.54C16.7559 14.4673 16.4885 15.2482 15.8684 15.8684C15.2483 16.4886 14.4673 16.7559 13.54 16.8805C12.6467 17 11.5109 17 10.1018 17H8.4435C7.03444 17 5.89845 17 5.00528 16.8805C4.07798 16.7559 3.29703 16.4885 2.67684 15.8684C2.05665 15.2483 1.79012 14.4673 1.66551 13.54C1.64668 13.403 1.63147 13.2596 1.6177 13.1111C0.700552 12.9611 0 12.1649 0 11.2044C0 10.2698 0.66359 9.49032 1.54524 9.31139V7.68861C0.66359 7.50967 0 6.73016 0 5.79562C0 4.835 0.700534 4.03882 1.6177 3.88891C1.63147 3.7404 1.64668 3.59696 1.66551 3.46004C1.79012 2.53274 2.05672 1.75178 2.67684 1.13159C3.29696 0.511392 4.07793 0.244868 5.00528 0.119534C5.89852 -3.31628e-08 7.03438 0 8.4435 0ZM1.54536 5.79562C1.54536 5.80938 1.54608 5.82315 1.54753 5.83691C1.56854 6.03107 1.73226 6.18176 1.93149 6.18176H2.70448C2.91818 6.18176 3.0906 6.00861 3.0906 5.79563C3.0906 5.58192 2.91818 5.40878 2.70448 5.40878H1.93149C1.7185 5.40878 1.54536 5.58191 1.54536 5.79562ZM1.54753 11.163C1.54608 11.1768 1.54536 11.1905 1.54536 11.2043C1.54536 11.2202 1.54608 11.2362 1.54825 11.2514C1.57144 11.4426 1.73444 11.5912 1.93149 11.5912H2.70448C2.91818 11.5912 3.0906 11.418 3.0906 11.2043C3.0906 10.9913 2.91818 10.8182 2.70448 10.8182H1.93149C1.73227 10.8182 1.56854 10.9689 1.54753 11.163ZM7.34089 10.093C8.44712 12.0092 10.217 13.2545 12.0534 13.619C13.8891 13.9834 14.0608 12.4591 14.0608 12.4591L13.361 11.2471C13.0488 10.7074 12.893 10.4372 12.6271 10.3415C12.3613 10.2459 12.0693 10.3539 11.4847 10.5712L10.8182 10.8182C10.1357 10.2561 9.65905 9.6591 9.27293 8.8861C8.78972 7.91969 8.6499 7.08221 8.50719 6.22513L8.49994 6.18166L8.53254 6.16572C9.22223 5.82232 9.56705 5.64992 9.66342 5.33043C9.75977 5.01021 9.56706 4.67698 9.18165 4.00903L8.65135 3.09042C8.65135 3.09042 7.24592 2.47754 6.64394 4.24955C6.04192 6.02156 6.23467 8.17757 7.34089 10.093Z" fill="#2A2B30"/>
</svg>
