<svg width="25" height="24" viewBox="0 0 25 24" fill="none" xmlns="http://www.w3.org/2000/svg">
<g clip-path="url(#clip0_377_48305)">
<path d="M24.5611 0H23.8542C22.7006 0 21.6741 0.553125 21.0286 1.40625H21.0267C19.8715 1.40625 18.8443 1.96031 18.1991 2.81484V2.8125C16.25 2.8125 14.6647 4.38975 14.6647 6.32812V9.71006L12.4969 11.8365L10.3291 9.71006V6.32812C10.3291 4.38975 8.74376 2.8125 6.79463 2.8125V2.81484C6.14942 1.96031 5.12222 1.40625 3.96707 1.40625H3.96518C3.3197 0.553125 2.29315 0 1.13951 0H0.432617V11.0447L5.44122 16.9688H4.67396V24H20.3198V16.9688H19.5525L24.5611 11.0447V0ZM8.9153 6.32812V8.45906C8.484 8.20019 8.0019 8.03635 7.50152 7.97859V4.92188C7.50152 4.7175 7.48276 4.51687 7.44921 4.32187C8.29903 4.59703 8.9153 5.39203 8.9153 6.32812ZM4.67396 2.93297C5.49678 3.22322 6.08774 4.00505 6.08774 4.92188V8.0962C5.75119 8.19426 5.43128 8.34183 5.13862 8.53402L4.67396 8.07234V2.93297ZM11.79 22.5938H6.08774V18.375H11.79V22.5938ZM11.79 16.9688H7.28851L1.8464 10.5324V1.52677C2.66922 1.81687 3.26018 2.59875 3.26018 3.51562V8.655L7.7084 13.0796L8.70841 12.0854L6.17299 9.56344C6.4548 9.42881 6.76536 9.35812 7.08733 9.35812C7.65378 9.35812 8.1863 9.5775 8.58688 9.97594L11.79 13.1181V16.9688ZM18.906 4.92188C18.906 4.00505 19.497 3.22322 20.3198 2.93297V8.07234L19.8551 8.53402C19.5625 8.34183 19.2426 8.19426 18.906 8.0962V4.92188ZM16.0784 6.32812C16.0784 5.39208 16.6948 4.59703 17.5445 4.32187C17.5101 4.52005 17.4926 4.72076 17.4922 4.92188V7.97859C16.9918 8.03635 16.5097 8.20019 16.0784 8.45906V6.32812ZM18.906 22.5938H13.2038V18.375H18.906V22.5938ZM23.1473 10.5324L17.7052 16.9688H13.2038V13.1181L16.4069 9.97594C16.8074 9.5775 17.34 9.35812 17.9064 9.35812C18.2284 9.35812 18.5389 9.42881 18.8208 9.56344L16.2854 12.0853L17.2853 13.0796L21.7336 8.65505V3.51562C21.7336 2.5988 22.3245 1.81697 23.1473 1.52672V10.5324Z" fill="#0E0E0F"/>
<path d="M16.0784 19.7812H17.4921V21.1875H16.0784V19.7812Z" fill="#0E0E0F"/>
<path d="M7.50146 19.7812H8.91524V21.1875H7.50146V19.7812Z" fill="#0E0E0F"/>
</g>
<defs>
<clipPath id="clip0_377_48305">
<rect width="24.1285" height="24" fill="white" transform="translate(0.432617)"/>
</clipPath>
</defs>
</svg>
