<svg width="24" height="24" viewBox="0 0 24 24" fill="none" xmlns="http://www.w3.org/2000/svg">
<g clip-path="url(#clip0_377_48310)">
<g clip-path="url(#clip1_377_48310)">
<path d="M17.2023 16.8854V16.1906C17.2023 15.0839 16.5839 14.0889 15.5887 13.5938L13.6994 12.6543V9.14499C13.6994 8.21987 13.2671 7.37275 12.5436 6.83048C12.5813 6.62604 12.707 6.45409 12.8705 6.40001C14.0649 6.00469 14.867 4.8975 14.867 3.6448C14.867 1.85034 13.2551 0.49091 11.4619 0.780936C10.0753 1.005 9.02905 2.28991 9.02905 3.76911V5.73177C7.574 7.26312 6.69393 9.33797 6.69393 11.5749V14.8546C6.69393 15.7238 6.93764 16.5557 7.39252 17.2733C6.30167 17.6942 5.52637 18.7495 5.52637 19.9813V20.562H16.6183C17.584 20.562 18.3698 19.7804 18.3698 18.82C18.3702 18.4225 18.2617 18.0323 18.056 17.6915C17.8503 17.3507 17.5552 17.072 17.2023 16.8854ZM15.1796 14.694C15.71 15.0072 16.0346 15.5697 16.0346 16.1906V16.4659L14.7121 16.0273L15.1796 14.694ZM10.1968 3.76911C10.1968 2.85319 10.8213 2.06112 11.6495 1.92714C12.7698 1.7457 13.6994 2.60324 13.6994 3.6448C13.6999 4.01062 13.5844 4.36728 13.3694 4.66409C13.1545 4.96091 12.8509 5.18279 12.5019 5.29821C12.0411 5.45065 11.683 5.80571 11.4998 6.25678L10.1968 5.60867V3.76911ZM7.86149 11.5749C7.86149 9.75094 8.52556 8.02813 9.73947 6.67989L11.5636 7.5869C12.161 7.8837 12.5319 8.48113 12.5319 9.14503V13.3719L14.128 14.166L13.6044 15.6603L11.3643 14.9174V9.4517H10.1967V15.7544L11.9651 16.3408C11.1865 17.2006 9.95379 17.5467 8.80453 17.1658L8.76755 17.1534C8.18257 16.5258 7.86149 15.7152 7.86149 14.8546V11.5749ZM16.6183 19.4006H6.79395C7.02551 18.7507 7.63467 18.2772 8.3577 18.2416C8.40954 18.2546 8.95713 18.4812 9.75543 18.4812C11.0867 18.4812 12.3583 17.8417 13.1429 16.7311L16.4938 17.842C16.7002 17.9103 16.8798 18.0416 17.007 18.2171C17.1342 18.3927 17.2025 18.6036 17.2023 18.82C17.2023 19.1401 16.9404 19.4006 16.6184 19.4006H16.6183Z" fill="#0E0E0F"/>
</g>
</g>
<defs>
<clipPath id="clip0_377_48310">
<rect width="22.773" height="24" fill="white" transform="translate(0.561523)"/>
</clipPath>
<clipPath id="clip1_377_48310">
<rect width="19.9264" height="19.8202" fill="white" transform="translate(1.98486 0.741577)"/>
</clipPath>
</defs>
</svg>
