<svg width="25" height="22" viewBox="0 0 25 22" fill="none" xmlns="http://www.w3.org/2000/svg">
<g clip-path="url(#clip0_377_48098)">
<path d="M23.1637 21.6637C22.8035 21.6637 22.4914 21.5314 22.2282 21.2651C21.2963 20.326 13.8444 12.8099 12.9133 11.87C12.6501 11.6045 12.5181 11.2905 12.5181 10.9264C12.5181 10.5631 12.6501 10.2483 12.9133 9.98286C13.8444 9.04371 21.2963 1.52758 22.2282 0.587692C22.4914 0.3222 22.8035 0.189087 23.1637 0.189087C23.5239 0.189087 23.836 0.3222 24.0992 0.587692C24.3624 0.853183 24.4944 1.16795 24.4944 1.53125C24.4944 3.41029 24.4944 18.4425 24.4944 20.3216C24.4944 20.6856 24.3624 20.9997 24.0992 21.2651C23.836 21.5314 23.5239 21.6637 23.1637 21.6637Z" fill="#2A2B30"/>
</g>
<g clip-path="url(#clip1_377_48098)">
<path d="M11.4318 21.6637C11.0716 21.6637 10.7595 21.5314 10.4963 21.2651C9.56441 20.326 2.11252 12.8099 1.18139 11.87C0.918172 11.6045 0.786197 11.2905 0.786197 10.9264C0.786197 10.5631 0.918172 10.2483 1.18139 9.98286C2.11252 9.04371 9.56441 1.52758 10.4963 0.587692C10.7595 0.3222 11.0716 0.189087 11.4318 0.189087C11.792 0.189087 12.104 0.3222 12.3673 0.587692C12.6305 0.853183 12.7625 1.16795 12.7625 1.53125C12.7625 3.41029 12.7625 18.4425 12.7625 20.3216C12.7625 20.6856 12.6305 20.9997 12.3673 21.2651C12.104 21.5314 11.792 21.6637 11.4318 21.6637Z" fill="#2A2B30"/>
</g>
<defs>
<clipPath id="clip0_377_48098">
<rect width="12.2679" height="21.9976" fill="white" transform="matrix(-1 0 0 1 24.5674 0.0012207)"/>
</clipPath>
<clipPath id="clip1_377_48098">
<rect width="12.2679" height="21.9976" fill="white" transform="matrix(-1 0 0 1 12.8354 0.0012207)"/>
</clipPath>
</defs>
</svg>
