<svg width="25" height="24" viewBox="0 0 25 24" fill="none" xmlns="http://www.w3.org/2000/svg">
<g clip-path="url(#clip0_377_48302)">
<path d="M19.6314 1.90078L17.0726 2.91891L16.5725 1.78125L15.4372 1.90359C14.2981 2.02589 13.3061 2.4353 12.3575 3.18037C11.4087 2.43347 10.4237 2.02444 9.30018 1.90355L8.16454 1.78125L7.66477 2.91891L5.1054 1.90078L0.304443 13.0434L3.17121 14.1308V22.2184L12.3569 17.6501L21.5426 22.2184V14.1383L24.433 13.0437L19.6314 1.90078ZM4.58443 19.9441V14.6674L10.6027 16.951L4.58443 19.9441ZM11.6504 15.8438L2.18303 12.2514L5.86107 3.71498L7.09794 4.20741L3.93866 11.3945L11.6504 14.3445L11.6504 15.8438ZM11.6504 12.8381L6.32828 10.8023C7.23748 10.3401 8.31714 10.2803 9.30254 10.6791L11.6504 11.7014L11.6504 12.8381ZM11.6504 10.167L9.84524 9.38105C8.72694 8.92566 7.52061 8.89434 6.42588 9.24483L9.04391 3.29002C9.18934 3.32686 10.3108 3.29133 11.6504 4.422V10.167ZM13.0634 4.42289C14.378 3.31898 15.6189 3.30891 15.6935 3.29006L18.3007 9.22172C17.2691 8.89472 16.1475 8.93883 15.0608 9.38105L13.0634 10.1946V4.42289ZM13.0634 11.7136L15.5959 10.6822C16.5535 10.292 17.5527 10.3431 18.42 10.7966L13.0634 12.8395V11.7136ZM20.1294 19.944L14.1125 16.9515L20.1294 14.6733V19.944ZM13.0634 15.8447V14.3448L20.7987 11.395L17.6389 4.20741L18.876 3.71503L22.554 12.251L13.0634 15.8447Z" fill="#0E0E0F"/>
</g>
<defs>
<clipPath id="clip0_377_48302">
<rect width="24.1285" height="24" fill="white" transform="translate(0.304443)"/>
</clipPath>
</defs>
</svg>
