<svg width="23" height="24" viewBox="0 0 23 24" fill="none" xmlns="http://www.w3.org/2000/svg">
<path d="M13.5416 2.67937C12.8405 1.48876 11.8724 0.325311 11.7073 0.129375C11.5607 -0.043125 11.2888 -0.043125 11.1422 0.129375C10.9771 0.325313 10.0089 1.48969 9.30784 2.67937C4.13689 3.64031 0.281738 8.03257 0.281738 13.2432C0.281738 19.188 5.26525 24 11.4246 24C17.5822 24 22.5675 19.1887 22.5675 13.2422C22.5675 8.02777 18.7076 3.63937 13.5414 2.67937H13.5416ZM9.84186 3.19593C9.84186 3.19593 10.3614 2.2528 11.4247 0.918734C12.5084 2.27622 12.9735 3.14905 13.0075 3.19593V3.19686C14.3408 5.53405 12.6463 6.69462 11.4247 6.69462C10.2682 6.69462 8.47367 5.59213 9.84186 3.19593ZM15.4712 15.4714V15.9936L11.7891 17.4271V16.5815L15.4712 15.4714ZM13.2912 15.3918V13.2992L13.8029 13.4333V15.238L13.2912 15.3918ZM14.5312 15.0177V13.1633C14.5312 13.0049 14.4205 12.8652 14.2623 12.8239L13.0222 12.4995C12.7911 12.4395 12.5629 12.6073 12.5629 12.8389V15.6102L11.789 15.8436V11.0904L15.4711 12.2389V14.7344L14.5312 15.0177ZM11.789 10.3518V9.05811L15.4712 10.4916V11.5003L11.789 10.3518ZM7.37852 14.7347V12.2392L11.0607 11.0908V15.8449L7.37852 14.7347ZM11.0607 16.5816V17.4272L7.37852 15.9938V15.4716L11.0607 16.5816ZM7.37852 11.5003V10.4916L11.0607 9.05813V10.3519L7.37852 11.5003ZM11.4248 22.3471C6.21213 22.3471 1.99379 18.2746 1.99379 13.242V13.2411C1.99379 9.12818 4.79541 5.71947 8.56778 4.56171C8.55807 4.73889 8.57847 5.01545 8.64353 5.27796C7.49476 5.65296 6.43049 6.26141 5.53315 7.05735L6.09248 7.59735C6.43817 7.93296 5.91089 8.41673 5.57782 8.09515L5.01752 7.55422C3.61629 9.02328 2.81322 10.8955 2.72874 12.8904H4.63979C5.12047 12.8904 5.12144 13.5935 4.63979 13.5935H2.72971C2.81419 15.5894 3.61726 17.4616 5.01849 18.9297L5.57879 18.3897C5.91867 18.0615 6.4343 18.5575 6.09345 18.8875L5.53315 19.4275C7.0548 20.7812 8.99305 21.5565 11.0603 21.6371V19.7921C11.0603 19.3271 11.7886 19.3271 11.7886 19.7921V21.6371C13.856 21.5565 15.7942 20.7803 17.3158 19.4275L16.7555 18.8875C16.4156 18.5584 16.9303 18.0615 17.2702 18.3897L17.8305 18.9297C19.2317 17.4606 20.0348 15.5893 20.1192 13.5935H18.2082C17.7266 13.5935 17.7266 12.8904 18.2082 12.8904H20.1192C20.0348 10.8954 19.2317 9.02326 17.8305 7.55422L17.2702 8.09515C16.9322 8.42141 16.4108 7.93109 16.7555 7.59735L17.3148 7.05735C16.4176 6.26047 15.3543 5.65203 14.2045 5.27796C14.2686 5.02016 14.2909 4.74358 14.2802 4.56171C18.0528 5.71952 20.8542 9.12818 20.8542 13.2411V13.242C20.8552 18.2746 16.6369 22.3471 11.4241 22.3471H11.4248ZM10.1207 4.70617C10.1207 4.01149 10.7063 3.4471 11.4248 3.4471C12.1434 3.4471 12.729 4.01149 12.729 4.70617C12.729 5.39991 12.1434 5.96523 11.4248 5.96523C10.7063 5.96523 10.1207 5.39991 10.1207 4.70617Z" fill="#0E0E0F"/>
</svg>
