<svg width="25" height="24" viewBox="0 0 25 24" fill="none" xmlns="http://www.w3.org/2000/svg">
<path d="M12.5674 6V4M12.5674 6C11.4628 6 10.5674 6.89543 10.5674 8C10.5674 9.10457 11.4628 10 12.5674 10M12.5674 6C13.672 6 14.5674 6.89543 14.5674 8C14.5674 9.10457 13.672 10 12.5674 10M12.5674 10V20M6.56738 18C7.67195 18 8.56738 17.1046 8.56738 16C8.56738 14.8954 7.67195 14 6.56738 14M6.56738 18C5.46281 18 4.56738 17.1046 4.56738 16C4.56738 14.8954 5.46281 14 6.56738 14M6.56738 18V20M6.56738 14V4M18.5674 18C19.672 18 20.5674 17.1046 20.5674 16C20.5674 14.8954 19.672 14 18.5674 14M18.5674 18C17.4628 18 16.5674 17.1046 16.5674 16C16.5674 14.8954 17.4628 14 18.5674 14M18.5674 18V20M18.5674 14V4" stroke="#0E0E0F" style="stroke:#0E0E0F;stroke:color(display-p3 0.0549 0.0549 0.0588);stroke-opacity:1;" stroke-width="2.5" stroke-linecap="round" stroke-linejoin="round"/>
</svg>
