<svg width="19" height="20" viewBox="0 0 19 20" fill="none" xmlns="http://www.w3.org/2000/svg">
<path d="M9.56738 4V2M9.56738 4C8.46278 4 7.56738 4.89543 7.56738 6C7.56738 7.10457 8.46278 8 9.56738 8M9.56738 4C10.672 4 11.5674 4.89543 11.5674 6C11.5674 7.10457 10.672 8 9.56738 8M9.56738 8V18M3.56738 16C4.67195 16 5.56738 15.1046 5.56738 14C5.56738 12.8954 4.67195 12 3.56738 12M3.56738 16C2.46281 16 1.56738 15.1046 1.56738 14C1.56738 12.8954 2.46281 12 3.56738 12M3.56738 16V18M3.56738 12V2M15.5674 16C16.672 16 17.5674 15.1046 17.5674 14C17.5674 12.8954 16.672 12 15.5674 12M15.5674 16C14.4628 16 13.5674 15.1046 13.5674 14C13.5674 12.8954 14.4628 12 15.5674 12M15.5674 16V18M15.5674 12V2" stroke="#0E0E0F" stroke-width="2.5" stroke-linecap="round" stroke-linejoin="round"/>
</svg>
