<svg width="34" height="24" viewBox="0 0 34 24" fill="none" xmlns="http://www.w3.org/2000/svg">
<path d="M2.42857 0H14.5714C15.2155 0 15.8332 0.252856 16.2887 0.702944C16.7441 1.15303 17 1.76348 17 2.4C17 3.03652 16.7441 3.64697 16.2887 4.09706C15.8332 4.54714 15.2155 4.8 14.5714 4.8H2.42857C1.78447 4.8 1.16676 4.54714 0.711312 4.09706C0.255867 3.64697 0 3.03652 0 2.4C0 1.76348 0.255867 1.15303 0.711312 0.702944C1.16676 0.252856 1.78447 0 2.42857 0ZM19.4286 19.2H31.5714C32.2155 19.2 32.8332 19.4529 33.2887 19.9029C33.7441 20.353 34 20.9635 34 21.6C34 22.2365 33.7441 22.847 33.2887 23.2971C32.8332 23.7471 32.2155 24 31.5714 24H19.4286C18.7845 24 18.1668 23.7471 17.7113 23.2971C17.2559 22.847 17 22.2365 17 21.6C17 20.9635 17.2559 20.353 17.7113 19.9029C18.1668 19.4529 18.7845 19.2 19.4286 19.2ZM2.42857 9.6H31.5714C32.2155 9.6 32.8332 9.85286 33.2887 10.3029C33.7441 10.753 34 11.3635 34 12C34 12.6365 33.7441 13.247 33.2887 13.6971C32.8332 14.1471 32.2155 14.4 31.5714 14.4H2.42857C1.78447 14.4 1.16676 14.1471 0.711312 13.6971C0.255867 13.247 0 12.6365 0 12C0 11.3635 0.255867 10.753 0.711312 10.3029C1.16676 9.85286 1.78447 9.6 2.42857 9.6Z" fill="#1C274C"/>
</svg>
