<svg width="21" height="19" viewBox="0 0 21 19" fill="none" xmlns="http://www.w3.org/2000/svg">
<path d="M16.3714 7.31602C18.3924 7.31602 20.0262 5.67622 20.0262 3.6612C20.0262 1.64017 18.3924 0.000366211 16.3714 0.000366211C14.3503 0.000366211 12.7105 1.64017 12.7105 3.6612C12.7105 3.97624 12.7631 4.27684 12.8385 4.56872L8.62443 6.71995C7.82912 5.78306 6.64556 5.18674 5.31959 5.18674C2.92038 5.18674 0.973633 7.1334 0.973633 9.53265C0.973633 11.9247 2.92038 13.8714 5.31959 13.8714C6.53664 13.8714 7.63386 13.3691 8.42117 12.5633L11.1925 14.2098C11.0745 14.5692 10.9947 14.946 10.9947 15.3448C10.9947 17.3598 12.6345 18.9996 14.6555 18.9996C16.6766 18.9996 18.3104 17.3598 18.3104 15.3448C18.3104 13.3237 16.6766 11.6839 14.6555 11.6839C13.6056 11.6839 12.6651 12.1324 11.9974 12.8411L9.30675 11.2428C9.5324 10.7176 9.65837 10.1398 9.65837 9.53265C9.65837 9.03014 9.56893 8.54949 9.41238 8.10042L13.5652 5.98055C14.2368 6.78919 15.2378 7.31602 16.3714 7.31602Z" fill="#2A2B30"/>
</svg>
