<svg width="21" height="22" viewBox="0 0 21 22" fill="none" xmlns="http://www.w3.org/2000/svg">
<path d="M7.25125 12.3419C7.45354 11.9381 7.56738 11.4824 7.56738 11C7.56738 10.5176 7.45354 10.0619 7.25125 9.6581M7.25125 12.3419C6.75872 13.3251 5.74187 14 4.56738 14C2.91053 14 1.56738 12.6569 1.56738 11C1.56738 9.3431 2.91053 8 4.56738 8C5.74187 8 6.75872 8.67492 7.25125 9.6581M7.25125 12.3419L13.8835 15.6581M7.25125 9.6581L13.8835 6.34193M13.8835 15.6581C13.6812 16.0619 13.5674 16.5176 13.5674 17C13.5674 18.6569 14.9105 20 16.5674 20C18.2243 20 19.5674 18.6569 19.5674 17C19.5674 15.3431 18.2243 14 16.5674 14C15.3929 14 14.3761 14.6749 13.8835 15.6581ZM13.8835 6.34193C14.3761 7.32508 15.3929 8 16.5674 8C18.2243 8 19.5674 6.65685 19.5674 5C19.5674 3.34315 18.2243 2 16.5674 2C14.9105 2 13.5674 3.34315 13.5674 5C13.5674 5.48237 13.6812 5.93815 13.8835 6.34193Z" stroke="#0E0E0F" stroke-width="2.5" stroke-linecap="round" stroke-linejoin="round"/>
</svg>
