<svg width="22" height="17" viewBox="0 0 22 17" fill="none" xmlns="http://www.w3.org/2000/svg">
<path d="M19.8 -0.00012207H2.2C0.99 -0.00012207 0.011 0.956128 0.011 2.12488L0 14.8749C0 16.0436 0.99 16.9999 2.2 16.9999H19.8C21.01 16.9999 22 16.0436 22 14.8749V2.12488C22 0.956128 21.01 -0.00012207 19.8 -0.00012207ZM19.36 4.5155L11.583 9.21175C11.231 9.42425 10.769 9.42425 10.417 9.21175L2.64 4.5155C2.5297 4.4557 2.43311 4.37489 2.35608 4.27799C2.27904 4.18108 2.22317 4.07008 2.19183 3.95171C2.1605 3.83334 2.15435 3.71006 2.17377 3.58933C2.19319 3.4686 2.23777 3.35293 2.30481 3.24932C2.37185 3.14572 2.45996 3.05632 2.5638 2.98656C2.66764 2.9168 2.78506 2.86811 2.90895 2.84345C3.03283 2.81878 3.16061 2.81866 3.28455 2.84307C3.40849 2.86749 3.52601 2.91594 3.63 2.9855L11 7.43738L18.37 2.9855C18.474 2.91594 18.5915 2.86749 18.7155 2.84307C18.8394 2.81866 18.9672 2.81878 19.0911 2.84345C19.2149 2.86811 19.3324 2.9168 19.4362 2.98656C19.54 3.05632 19.6282 3.14572 19.6952 3.24932C19.7622 3.35293 19.8068 3.4686 19.8262 3.58933C19.8456 3.71006 19.8395 3.83334 19.8082 3.95171C19.7768 4.07008 19.721 4.18108 19.6439 4.27799C19.5669 4.37489 19.4703 4.4557 19.36 4.5155Z" fill="white"/>
</svg>
