<svg width="21" height="16" viewBox="0 0 21 16" fill="none" xmlns="http://www.w3.org/2000/svg">
<path d="M18.2817 0H2.28174C1.18174 0 0.291738 0.9 0.291738 2L0.281738 14C0.281738 15.1 1.18174 16 2.28174 16H18.2817C19.3817 16 20.2817 15.1 20.2817 14V2C20.2817 0.9 19.3817 0 18.2817 0ZM17.8817 4.25L10.8117 8.67C10.4917 8.87 10.0717 8.87 9.75174 8.67L2.68174 4.25C2.58147 4.19371 2.49366 4.11766 2.42363 4.02645C2.3536 3.93525 2.3028 3.83078 2.27431 3.71937C2.24583 3.60796 2.24024 3.49194 2.25789 3.37831C2.27555 3.26468 2.31607 3.15581 2.37702 3.0583C2.43797 2.96079 2.51806 2.87666 2.61246 2.811C2.70687 2.74533 2.81361 2.69951 2.92623 2.6763C3.03886 2.65309 3.15502 2.65297 3.26769 2.67595C3.38036 2.69893 3.4872 2.74453 3.58174 2.81L10.2817 7L16.9817 2.81C17.0763 2.74453 17.1831 2.69893 17.2958 2.67595C17.4085 2.65297 17.5246 2.65309 17.6372 2.6763C17.7499 2.69951 17.8566 2.74533 17.951 2.811C18.0454 2.87666 18.1255 2.96079 18.1865 3.0583C18.2474 3.15581 18.2879 3.26468 18.3056 3.37831C18.3232 3.49194 18.3176 3.60796 18.2892 3.71937C18.2607 3.83078 18.2099 3.93525 18.1399 4.02645C18.0698 4.11766 17.982 4.19371 17.8817 4.25Z" fill="#0E0E0F"/>
</svg>
