<svg width="21" height="16" viewBox="0 0 21 16" fill="none" xmlns="http://www.w3.org/2000/svg">
<path d="M2.9925 7.57143C4.09287 7.57143 4.9875 6.73862 4.9875 5.71429C4.9875 4.68996 4.09287 3.85714 2.9925 3.85714C1.89213 3.85714 0.9975 4.68996 0.9975 5.71429C0.9975 6.73862 1.89213 7.57143 2.9925 7.57143ZM16.9575 7.57143C18.0579 7.57143 18.9525 6.73862 18.9525 5.71429C18.9525 4.68996 18.0579 3.85714 16.9575 3.85714C15.8571 3.85714 14.9625 4.68996 14.9625 5.71429C14.9625 6.73862 15.8571 7.57143 16.9575 7.57143ZM17.955 8.5H15.96C15.4114 8.5 14.9157 8.70603 14.5541 9.03973C15.8104 9.68103 16.7019 10.8388 16.8952 12.2143H18.9525C19.5042 12.2143 19.95 11.7993 19.95 11.2857V10.3571C19.95 9.33281 19.0554 8.5 17.955 8.5ZM9.975 8.5C11.9045 8.5 13.4663 7.04621 13.4663 5.25C13.4663 3.45379 11.9045 2 9.975 2C8.04546 2 6.48375 3.45379 6.48375 5.25C6.48375 7.04621 8.04546 8.5 9.975 8.5ZM12.369 9.42857H12.1103C11.4619 9.71875 10.7418 9.89286 9.975 9.89286C9.20817 9.89286 8.49122 9.71875 7.83973 9.42857H7.581C5.59847 9.42857 3.99 10.9259 3.99 12.7714V13.6071C3.99 14.3761 4.6602 15 5.48625 15H14.4638C15.2898 15 15.96 14.3761 15.96 13.6071V12.7714C15.96 10.9259 14.3515 9.42857 12.369 9.42857ZM5.39585 9.03973C5.03426 8.70603 4.53863 8.5 3.99 8.5H1.995C0.894633 8.5 0 9.33281 0 10.3571V11.2857C0 11.7993 0.445758 12.2143 0.9975 12.2143H3.05173C3.24811 10.8388 4.13963 9.68103 5.39585 9.03973Z" fill="#2A2B30"/>
</svg>
