<svg width="19" height="19" viewBox="0 0 19 19" fill="none" xmlns="http://www.w3.org/2000/svg">
<path d="M9.49993 14.6819C12.3618 14.6819 14.6818 12.3619 14.6818 9.50006C14.6818 6.63822 12.3618 4.31824 9.49993 4.31824C6.63809 4.31824 4.31812 6.63822 4.31812 9.50006C4.31812 12.3619 6.63809 14.6819 9.49993 14.6819Z" fill="#2A2B30"/>
<path d="M9.50011 3.45455C9.72916 3.45455 9.94883 3.36356 10.1108 3.20159C10.2728 3.03963 10.3637 2.81996 10.3637 2.59091V0.863636C10.3637 0.634586 10.2728 0.414917 10.1108 0.252953C9.94883 0.0909902 9.72916 0 9.50011 0C9.27106 0 9.05139 0.0909902 8.88943 0.252953C8.72746 0.414917 8.63647 0.634586 8.63647 0.863636V2.59091C8.63647 2.81996 8.72746 3.03963 8.88943 3.20159C9.05139 3.36356 9.27106 3.45455 9.50011 3.45455Z" fill="#2A2B30"/>
<path d="M13.8183 5.18185C14.0473 5.1818 14.267 5.09077 14.4289 4.9288L15.6501 3.70762C15.7325 3.62795 15.7983 3.53265 15.8436 3.42729C15.8889 3.32192 15.9127 3.20859 15.9137 3.09392C15.9147 2.97925 15.8928 2.86552 15.8494 2.75939C15.806 2.65325 15.7419 2.55682 15.6608 2.47573C15.5797 2.39464 15.4832 2.33051 15.3771 2.28709C15.271 2.24367 15.1572 2.22181 15.0426 2.22281C14.9279 2.22381 14.8146 2.24763 14.7092 2.29289C14.6038 2.33816 14.5085 2.40395 14.4289 2.48644L13.2077 3.70762C13.087 3.8284 13.0047 3.98227 12.9714 4.14977C12.9381 4.31728 12.9552 4.4909 13.0206 4.64868C13.0859 4.80647 13.1966 4.94134 13.3386 5.03624C13.4806 5.13114 13.6475 5.18181 13.8183 5.18185Z" fill="#2A2B30"/>
<path d="M4.06518 5.28636C4.14484 5.36885 4.24014 5.43464 4.34551 5.4799C4.45088 5.52516 4.5642 5.54899 4.67888 5.54998C4.79355 5.55098 4.90727 5.52913 5.01341 5.48571C5.11955 5.44228 5.21597 5.37815 5.29706 5.29706C5.37815 5.21597 5.44228 5.11955 5.48571 5.01341C5.52913 4.90727 5.55098 4.79355 5.54998 4.67888C5.54899 4.5642 5.52516 4.45088 5.4799 4.34551C5.43464 4.24014 5.36885 4.14484 5.28636 4.06518L4.06518 2.844C3.90229 2.68668 3.68414 2.59963 3.45769 2.6016C3.23125 2.60356 3.01464 2.69439 2.85452 2.85452C2.69439 3.01464 2.60356 3.23125 2.6016 3.45769C2.59963 3.68414 2.68668 3.90229 2.844 4.06518L4.06518 5.28636Z" fill="#2A2B30"/>
<path d="M14.9348 13.7137C14.8551 13.6312 14.7598 13.5655 14.6545 13.5202C14.5491 13.4749 14.4358 13.4511 14.3211 13.4501C14.2064 13.4491 14.0927 13.471 13.9866 13.5144C13.8804 13.5578 13.784 13.6219 13.7029 13.703C13.6218 13.7841 13.5577 13.8805 13.5143 13.9867C13.4708 14.0928 13.449 14.2065 13.45 14.3212C13.451 14.4359 13.4748 14.5492 13.5201 14.6546C13.5653 14.7599 13.6311 14.8552 13.7136 14.9349L14.9348 16.1561C15.0977 16.3134 15.3158 16.4005 15.5423 16.3985C15.7687 16.3965 15.9853 16.3057 16.1455 16.1456C16.3056 15.9854 16.3964 15.7688 16.3984 15.5424C16.4003 15.316 16.3133 15.0978 16.156 14.9349L14.9348 13.7137Z" fill="#2A2B30"/>
<path d="M4.06516 13.7137L2.84398 14.9349C2.76149 15.0146 2.6957 15.1099 2.65044 15.2152C2.60518 15.3206 2.58135 15.4339 2.58035 15.5486C2.57936 15.6633 2.60121 15.777 2.64463 15.8831C2.68806 15.9893 2.75219 16.0857 2.83328 16.1668C2.91436 16.2479 3.01079 16.312 3.11693 16.3554C3.22307 16.3989 3.33679 16.4207 3.45146 16.4197C3.56614 16.4187 3.67946 16.3949 3.78483 16.3496C3.8902 16.3044 3.98549 16.2386 4.06516 16.1561L5.28634 14.9349C5.36883 14.8552 5.43462 14.7599 5.47989 14.6546C5.52515 14.5492 5.54897 14.4359 5.54997 14.3212C5.55097 14.2065 5.52911 14.0928 5.48569 13.9867C5.44227 13.8805 5.37814 13.7841 5.29705 13.703C5.21596 13.6219 5.11953 13.5578 5.01339 13.5144C4.90726 13.471 4.79353 13.4491 4.67886 13.4501C4.56419 13.4511 4.45086 13.4749 4.34549 13.5202C4.24013 13.5655 4.14483 13.6312 4.06516 13.7137Z" fill="#2A2B30"/>
<path d="M18.1363 8.63635H16.409C16.18 8.63635 15.9603 8.72734 15.7984 8.88931C15.6364 9.05127 15.5454 9.27094 15.5454 9.49999C15.5454 9.72904 15.6364 9.94871 15.7984 10.1107C15.9603 10.2726 16.18 10.3636 16.409 10.3636H18.1363C18.3654 10.3636 18.585 10.2726 18.747 10.1107C18.909 9.94871 19 9.72904 19 9.49999C19 9.27094 18.909 9.05127 18.747 8.88931C18.585 8.72734 18.3654 8.63635 18.1363 8.63635Z" fill="#2A2B30"/>
<path d="M9.50011 15.5454C9.27106 15.5454 9.05139 15.6364 8.88943 15.7984C8.72746 15.9603 8.63647 16.18 8.63647 16.409V18.1363C8.63647 18.3654 8.72746 18.585 8.88943 18.747C9.05139 18.909 9.27106 19 9.50011 19C9.72916 19 9.94883 18.909 10.1108 18.747C10.2728 18.585 10.3637 18.3654 10.3637 18.1363V16.409C10.3637 16.18 10.2728 15.9603 10.1108 15.7984C9.94883 15.6364 9.72916 15.5454 9.50011 15.5454Z" fill="#2A2B30"/>
<path d="M3.45455 9.49999C3.45455 9.27094 3.36356 9.05127 3.20159 8.88931C3.03963 8.72734 2.81996 8.63635 2.59091 8.63635H0.863636C0.634586 8.63635 0.414917 8.72734 0.252953 8.88931C0.0909902 9.05127 0 9.27094 0 9.49999C0 9.72904 0.0909902 9.94871 0.252953 10.1107C0.414917 10.2726 0.634586 10.3636 0.863636 10.3636H2.59091C2.81996 10.3636 3.03963 10.2726 3.20159 10.1107C3.36356 9.94871 3.45455 9.72904 3.45455 9.49999Z" fill="#2A2B30"/>
</svg>
