<svg width="20" height="18" viewBox="0 0 20 18" fill="none" xmlns="http://www.w3.org/2000/svg">
<path d="M5.75 15.6818V4.03636H2V2H11.625V4.03636H7.875V15.6818H5.75ZM16.5 16C15.5833 16 14.8646 15.7293 14.3438 15.188C13.8229 14.6467 13.5625 13.8992 13.5625 12.9455V7.79091H11.875V5.94546H13.5625V3.17727H15.625V5.94546H17.9375V7.79091H15.625V12.5C15.625 12.9879 15.7346 13.3697 15.9538 13.6455C16.1729 13.9212 16.4696 14.0591 16.8438 14.0591C17.0313 14.0591 17.2238 14.0218 17.4213 13.9471C17.6188 13.8724 17.8117 13.7719 18 13.6455V15.7136C17.7917 15.8197 17.5625 15.8939 17.3125 15.9364C17.0625 15.9788 16.7917 16 16.5 16Z" fill="#2A2B30"/>
</svg>
