<svg width="19" height="19" viewBox="0 0 19 19" fill="none" xmlns="http://www.w3.org/2000/svg">
<path d="M16.5448 3.08118H2.45442C2.23874 3.08118 2.03366 3.17361 1.88921 3.32767C1.74575 3.48172 1.67353 3.6974 1.68412 3.91308L2.64988 16.3917C2.76253 17.8504 3.99498 19 5.46431 19H13.5369C15.0052 19 16.2377 17.8494 16.3513 16.3917L17.3171 3.91308C17.3277 3.6974 17.2554 3.48172 17.112 3.32767C16.9685 3.17361 16.7625 3.08118 16.5468 3.08118H16.5448ZM11.4918 11.9442C11.7999 12.2524 11.7999 12.7347 11.4918 13.0429C11.3483 13.1863 11.1528 13.2691 10.9477 13.2691C10.7427 13.2691 10.5578 13.1873 10.4037 13.0429L9.49961 12.1291L8.59549 13.0332C8.44143 13.1873 8.24596 13.2595 8.04088 13.2595C7.8358 13.2595 7.65093 13.1873 7.49688 13.0332C7.19936 12.7357 7.19936 12.2524 7.49688 11.9442L8.41062 11.0401L7.49688 10.136C7.19936 9.82787 7.19936 9.34549 7.49688 9.03738C7.80499 8.73986 8.28737 8.73986 8.59549 9.03738L9.49961 9.95112L10.4037 9.03738C10.7119 8.73986 11.1942 8.73986 11.4927 9.03738C11.7903 9.33489 11.8009 9.82787 11.4927 10.136L10.5886 11.0401L11.4927 11.9442H11.4918Z" fill="#2A2B30"/>
<path d="M17.7155 0H1.28347C0.862707 0 0.513184 0.349524 0.513184 0.770284C0.513184 1.19104 0.862707 1.54057 1.28347 1.54057H17.7165C18.1373 1.54057 18.4868 1.19104 18.4868 0.770284C18.4868 0.349524 18.1373 0 17.7165 0H17.7155Z" fill="#2A2B30"/>
</svg>
