<svg width="19" height="24" viewBox="0 0 19 24" fill="none" xmlns="http://www.w3.org/2000/svg">
<path d="M7.59988 1.2844C7.91348 0.998068 8.12346 0.755368 8.25163 0.594478C7.73896 0.130894 7.22356 0 6.80361 0C6.28004 0 5.90644 0.201795 5.87917 0.218157C5.87372 0.220884 5.86826 0.223611 5.86281 0.229065C5.2247 0.542665 4.82929 0.962617 4.69022 1.47256C4.52115 2.09158 4.75021 2.72696 4.91655 3.07601C6.24186 2.41336 7.10358 1.74253 7.60261 1.2844H7.59988Z" fill="#0E0E0F"/>
<path d="M5.29594 3.74136L5.60682 5.16756C5.61773 5.21937 5.61773 5.27118 5.60682 5.323L5.3723 6.31288L6.81486 6.77101L7.17209 5.7484C7.22936 5.58751 7.39298 5.49207 7.55932 5.51934L8.33923 5.65296C8.74282 5.72113 9.13823 5.46753 9.23913 5.06939C9.49274 3.87498 9.25822 2.77056 9.01825 2.05337C8.90099 1.70432 8.77282 1.41253 8.66374 1.19165C8.18652 1.74522 7.16119 2.72693 5.27686 3.67591C5.28504 3.69773 5.29322 3.71954 5.29867 3.74136H5.29594Z" fill="#0E0E0F"/>
<path d="M15.9555 10.357C16.2936 9.96702 16.3945 9.43254 16.2473 8.95532L13.6458 11.1042L14.273 12.3013L15.9555 10.357Z" fill="#0E0E0F"/>
<path d="M16.8556 20.0758L10.3627 17.4716C10.2318 17.417 10.1445 17.2916 10.1445 17.1471V15.8327L9.62915 16.1027C9.29101 16.2799 8.92287 16.3672 8.552 16.3672C8.3093 16.3672 8.06387 16.329 7.82663 16.2526C7.2267 16.0563 6.73857 15.6363 6.45769 15.0719L4.95514 12.0504C4.8706 11.8786 4.93878 11.6686 5.11057 11.5841C5.28237 11.4968 5.49235 11.5677 5.57688 11.7395L7.07944 14.761C7.27851 15.1591 7.61938 15.4536 8.04206 15.59C8.46474 15.7291 8.91196 15.6909 9.30737 15.4864L10.33 14.9546L13.8996 13.0948L13.0242 11.4205L10.0518 12.154L8.7947 12.4649C8.60654 12.5112 8.41838 12.3967 8.37202 12.2085C8.32566 12.0231 8.44019 11.8322 8.62563 11.7859L9.51734 11.5677L8.80833 9.5334C8.46474 8.54897 7.66846 7.77178 6.67585 7.45546L5.08603 6.94824C4.30885 7.97085 3.70619 9.08891 3.29987 10.2697C2.84992 11.5704 2.65631 12.893 2.71903 14.1992C2.75175 14.8728 2.98355 17.3761 4.60881 21.2457C4.62518 21.2839 4.63336 21.3221 4.63608 21.3602L5.60961 21.4775L11.339 20.6649C11.5298 20.6376 11.7071 20.7712 11.7316 20.9621C11.7589 21.153 11.628 21.3302 11.4371 21.3575L5.83867 22.151L4.86515 23.9972H16.1057C17.1283 23.9972 17.9955 23.2337 18.1236 22.2192C18.2409 21.3002 17.7228 20.4194 16.8638 20.0758H16.8556Z" fill="#0E0E0F"/>
<path d="M3.80684 21.9657C3.80684 21.9657 3.79866 21.9657 3.79593 21.9657C3.25054 21.8812 2.69151 22.0011 2.22247 22.2956L0.0899897 23.6455C0.0327235 23.6809 0 23.7409 0 23.8091C0 23.9155 0.084536 24 0.190887 24H4.07135L5.06124 22.1184L3.80684 21.9684V21.9657Z" fill="#0E0E0F"/>
</svg>
