<svg width="19" height="24" viewBox="0 0 19 24" fill="none" xmlns="http://www.w3.org/2000/svg">
<path d="M9.18554 10.5343C9.09171 10.1445 8.96036 9.54467 8.83436 8.95577C8.68425 8.26872 8.49928 7.41263 8.45371 7.28994C8.43226 7.2436 8.42422 7.19452 8.42422 7.14817L8.32503 6.12305C8.31967 6.0658 8.33307 6.01127 8.35452 5.95947C8.4403 5.44145 8.79415 3.78926 9.93613 2.94136C10.4589 2.55421 11.0701 2.39063 11.7536 2.45061C11.7536 2.21068 11.7322 2.00348 11.6947 1.85625C11.6732 1.76628 11.2175 -0.0740286 8.78343 0.00231021C6.68444 0.0786491 5.79445 2.14525 5.2047 3.5139C5.08138 3.80017 4.97416 4.04554 4.86961 4.25002C4.25037 5.44418 2.75453 9.09208 2.5508 10.3408C1.78412 15.0438 2.59637 17.2876 3.18881 18.9234C3.21562 18.997 3.24242 19.0679 3.26655 19.1388C4.15654 18.0783 6.62011 15.0083 9.10512 10.6243C9.12656 10.5889 9.15337 10.5589 9.18286 10.5343H9.18554Z" fill="#0E0E0F"/>
<path d="M10.3084 3.4567C9.39964 4.13012 9.07527 5.5124 8.98413 6.01133C9.17982 6.21853 9.53904 6.51844 9.86072 6.47754C10.3835 6.41211 10.9223 5.85592 11.3003 4.98893C11.5201 4.48455 11.6675 3.74843 11.7265 3.09137C11.185 3.03957 10.7078 3.16225 10.3057 3.45943L10.3084 3.4567Z" fill="#0E0E0F"/>
<path d="M14.2817 9.86636C14.3756 9.74095 14.4935 9.47376 14.5042 8.90667C14.5069 8.76763 14.4131 8.70492 14.3729 8.68583C14.3354 8.66675 14.2389 8.63131 14.137 8.70219L12.6653 10.1826L13.1264 11.2296C13.4588 10.8588 13.9761 10.2753 14.2844 9.86909L14.2817 9.86636Z" fill="#0E0E0F"/>
<path d="M8.82869 14.7057L12.6487 11.6985L12.1206 10.4989C11.4665 10.7088 9.91169 11.2078 9.41576 11.3523C8.72146 12.5546 8.0352 13.6533 7.38379 14.6348C7.83415 15.1637 8.46411 14.9211 8.82869 14.7057Z" fill="#0E0E0F"/>
<path d="M10.1934 16.786C10.0701 16.7396 9.98695 16.6197 9.98695 16.4888V14.5967L9.19346 15.2237C9.19346 15.2237 9.17202 15.2401 9.1613 15.2456C8.77527 15.4773 8.3973 15.5918 8.04612 15.5918C7.65742 15.5918 7.30625 15.45 7.0221 15.1747C5.31717 17.6911 3.93393 19.3406 3.51306 19.8259L4.16179 21.4072H4.30654C4.56657 21.4072 4.82928 21.3854 5.08663 21.3445C7.72712 20.9137 10.6678 20.4175 10.9976 20.3221C11.1638 20.2757 11.3353 20.3712 11.3836 20.5402C11.4319 20.7092 11.3353 20.8837 11.1691 20.9328C10.7322 21.0582 6.83981 21.7016 5.18582 21.9716C4.8963 22.0179 4.59874 22.0424 4.30654 22.0424H3.03857C2.34427 22.0424 1.66069 22.2824 1.11383 22.7186L0.269408 23.392C0.0951629 23.531 0.140735 23.7164 0.1595 23.771C0.178265 23.8255 0.253324 24 0.475823 24H15.8684C17.2543 23.8937 17.8468 23.1739 18.0934 22.5904C18.4472 21.7589 18.2569 20.8292 17.8977 20.3793C17.2919 19.6187 12.9599 17.8138 10.196 16.7887L10.1934 16.786Z" fill="#0E0E0F"/>
</svg>
