<svg width="23" height="13" viewBox="0 0 23 13" fill="none" xmlns="http://www.w3.org/2000/svg">
<path d="M2.45256 3.58157C2.45256 3.08098 2.59214 2.59163 2.85366 2.17541C3.11519 1.75918 3.48689 1.43478 3.92179 1.24321C4.35668 1.05164 4.83522 1.00152 5.2969 1.09918C5.75858 1.19684 6.18266 1.4379 6.51551 1.79187C6.84836 2.14584 7.07504 2.59682 7.16687 3.08779C7.2587 3.57876 7.21157 4.08766 7.03143 4.55015C6.85129 5.01263 6.54624 5.40792 6.15485 5.68603C5.76346 5.96415 5.3033 6.11259 4.83258 6.11259C4.20159 6.11179 3.59666 5.84487 3.15048 5.37039C2.7043 4.8959 2.45331 4.25259 2.45256 3.58157ZM18.1677 6.11259C18.6384 6.11259 19.0985 5.96415 19.4899 5.68603C19.8813 5.40792 20.1864 5.01263 20.3665 4.55015C20.5466 4.08766 20.5938 3.57876 20.5019 3.08779C20.4101 2.59682 20.1834 2.14584 19.8506 1.79187C19.5177 1.4379 19.0937 1.19684 18.632 1.09918C18.1703 1.00152 17.6918 1.05164 17.2569 1.24321C16.822 1.43478 16.4503 1.75918 16.1887 2.17541C15.9272 2.59163 15.7876 3.08098 15.7876 3.58157C15.7884 4.25259 16.0394 4.8959 16.4856 5.37039C16.9317 5.84487 17.5367 6.11179 18.1677 6.11259ZM18.1677 6.79534C17.1207 6.79815 16.1098 7.20231 15.3204 7.93368C16.3889 8.90476 17.094 10.2515 17.3075 11.7288H22.1944C22.2346 11.7288 22.2744 11.7204 22.3116 11.704C22.3488 11.6876 22.3825 11.6635 22.4109 11.6332C22.4393 11.6029 22.4618 11.5669 22.4771 11.5273C22.4924 11.4877 22.5002 11.4453 22.5 11.4025C22.4987 10.1811 22.0418 9.01002 21.2296 8.14631C20.4174 7.28259 19.3163 6.79674 18.1677 6.79534ZM7.67957 7.93368C7.05321 7.35175 6.28252 6.97395 5.45962 6.84544C4.63672 6.71694 3.79643 6.84316 3.03919 7.20902C2.28196 7.57489 1.63982 8.16491 1.18953 8.90857C0.739242 9.65223 0.49986 10.5181 0.5 11.4025C0.5 11.4887 0.532201 11.5714 0.589518 11.6324C0.646836 11.6933 0.724575 11.7276 0.805634 11.7276H5.69176C5.90571 10.2506 6.61108 8.90432 7.67957 7.93368ZM11.5 7.07534C10.164 7.07792 8.87867 7.61948 7.90354 8.59068C6.92841 9.56189 6.33612 10.8904 6.24626 12.3079C6.24082 12.3967 6.25256 12.4856 6.28075 12.5693C6.30894 12.653 6.35297 12.7297 6.41014 12.7945C6.4673 12.8594 6.53638 12.9111 6.61309 12.9464C6.6898 12.9818 6.77251 13 6.85611 13H16.1439C16.2275 13 16.3102 12.9818 16.3869 12.9464C16.4636 12.9111 16.5327 12.8594 16.5899 12.7945C16.647 12.7297 16.6911 12.653 16.7193 12.5693C16.7474 12.4856 16.7592 12.3967 16.7537 12.3079C16.6639 10.8904 16.0716 9.56189 15.0965 8.59068C14.1213 7.61948 12.836 7.07792 11.5 7.07534ZM11.5 6.08391C12.0658 6.08391 12.6188 5.9055 13.0892 5.57123C13.5596 5.23696 13.9263 4.76186 14.1428 4.206C14.3592 3.65014 14.4159 3.03849 14.3055 2.44841C14.1951 1.85832 13.9226 1.3163 13.5226 0.89088C13.1225 0.465465 12.6128 0.175767 12.0579 0.0584209C11.503 -0.0589251 10.9279 0.00135194 10.4052 0.231629C9.8825 0.461906 9.43577 0.85184 9.12149 1.35212C8.8072 1.8524 8.63948 2.44055 8.63953 3.04221C8.64009 3.84878 8.94165 4.62213 9.47798 5.19244C10.0143 5.76275 10.7415 6.08338 11.5 6.08391Z" fill="#2A2B30"/>
</svg>
