<svg width="48" height="15" viewBox="0 0 48 15" fill="none" xmlns="http://www.w3.org/2000/svg">
<path d="M24.8244 4.77615C24.7971 6.85735 26.7488 8.01868 28.2189 8.70922C29.7294 9.41765 30.2368 9.87199 30.2308 10.5056C30.2196 11.4752 29.0259 11.9031 27.909 11.9198C25.9603 11.9489 24.8272 11.4127 23.9265 11.0071L23.2245 14.1732C24.1283 14.5746 25.8017 14.9246 27.537 14.94C31.6104 14.94 34.2754 13.0019 34.2898 9.99705C34.3057 6.18344 28.8171 5.97235 28.8546 4.26777C28.8675 3.75091 29.3792 3.19934 30.5004 3.0591C31.0554 2.98826 32.5875 2.93404 34.3245 3.705L35.0062 0.64175C34.0721 0.313919 32.8716 2.86102e-06 31.3768 2.86102e-06C27.5428 2.86102e-06 24.8462 1.96446 24.8244 4.77615ZM41.5571 0.263858C40.8133 0.263858 40.1865 0.68205 39.9067 1.3238L34.0881 14.715H38.1585L38.9685 12.5574H43.9425L44.4124 14.715H48L44.8693 0.263858H41.5571ZM42.1266 4.16765L43.3013 9.59422H40.0841L42.1266 4.16765ZM19.8892 0.264038L16.6807 14.7148H20.5596L23.7666 0.263678L19.8892 0.264038ZM14.1512 0.264038L10.1139 10.0999L8.48081 1.73657C8.28919 0.802955 7.53244 0.263858 6.69206 0.263858H0.0924375L0 0.683496C1.35487 0.966869 2.89425 1.42392 3.82687 1.91295C4.39762 2.21169 4.56038 2.47283 4.74788 3.18271L7.84106 14.715H11.94L18.2243 0.263858L14.1512 0.264038Z" fill="url(#paint0_linear_377_7591)"/>
<defs>
<linearGradient id="paint0_linear_377_7591" x1="2206.75" y1="44.9096" x2="2248.44" y2="-1489.54" gradientUnits="userSpaceOnUse">
<stop stop-color="#222357"/>
<stop offset="1" stop-color="#254AA5"/>
</linearGradient>
</defs>
</svg>
