<svg width="24" height="23" viewBox="0 0 24 23" fill="none" xmlns="http://www.w3.org/2000/svg">
<path d="M19.9312 3.3025C18.8996 2.26087 17.6711 1.43496 16.3171 0.872905C14.9631 0.310851 13.5109 0.0238905 12.0449 0.0287472C5.9024 0.0287472 0.896153 5.035 0.896153 11.1775C0.896153 13.1462 1.41365 15.0587 2.38115 16.7462L0.806152 22.5287L6.7124 20.9762C8.34365 21.865 10.1774 22.3375 12.0449 22.3375C18.1874 22.3375 23.1937 17.3312 23.1937 11.1887C23.1937 8.2075 22.0349 5.40625 19.9312 3.3025ZM12.0449 20.4475C10.3799 20.4475 8.74865 19.9975 7.3199 19.1537L6.9824 18.9512L3.4724 19.8737L4.40615 16.4537L4.18115 16.105C3.25589 14.6279 2.76469 12.9204 2.76365 11.1775C2.76365 6.07 6.92615 1.9075 12.0337 1.9075C14.5087 1.9075 16.8374 2.875 18.5812 4.63C19.4447 5.48934 20.1291 6.51161 20.5945 7.63749C21.0599 8.76338 21.2971 9.97047 21.2924 11.1887C21.3149 16.2962 17.1524 20.4475 12.0449 20.4475ZM17.1299 13.5175C16.8487 13.3825 15.4762 12.7075 15.2287 12.6062C14.9699 12.5162 14.7899 12.4712 14.5987 12.7412C14.4074 13.0225 13.8787 13.6525 13.7212 13.8325C13.5637 14.0237 13.3949 14.0462 13.1137 13.9C12.8324 13.765 11.9324 13.4612 10.8749 12.5162C10.0424 11.7737 9.49115 10.8625 9.3224 10.5812C9.1649 10.3 9.2999 10.1537 9.44615 10.0075C9.5699 9.88375 9.7274 9.68125 9.8624 9.52375C9.9974 9.36625 10.0537 9.2425 10.1437 9.0625C10.2337 8.87125 10.1887 8.71375 10.1212 8.57875C10.0537 8.44375 9.49115 7.07125 9.26615 6.50875C9.04115 5.96875 8.8049 6.03625 8.63615 6.025H8.09615C7.9049 6.025 7.6124 6.0925 7.35365 6.37375C7.10615 6.655 6.38615 7.33 6.38615 8.7025C6.38615 10.075 7.3874 11.4025 7.5224 11.5825C7.6574 11.7737 9.49115 14.5862 12.2812 15.79C12.9449 16.0825 13.4624 16.2512 13.8674 16.375C14.5312 16.5887 15.1387 16.555 15.6224 16.4875C16.1624 16.4087 17.2762 15.8125 17.5012 15.16C17.7374 14.5075 17.7374 13.9562 17.6587 13.8325C17.5799 13.7087 17.4112 13.6525 17.1299 13.5175Z" fill="white"/>
</svg>
