<svg width="374" height="812" viewBox="0 0 374 812" fill="none" xmlns="http://www.w3.org/2000/svg">
<g opacity="0.08">
<mask id="mask0_2010_758" style="mask-type:luminance" maskUnits="userSpaceOnUse" x="257" y="114" width="90" height="93">
<path d="M346.64 115.452L258.347 114.539L257.384 205.679L345.677 206.592L346.64 115.452Z" fill="white" style="fill:white;fill-opacity:1;"/>
</mask>
<g mask="url(#mask0_2010_758)">
<mask id="mask1_2010_758" style="mask-type:luminance" maskUnits="userSpaceOnUse" x="258" y="115" width="89" height="91">
<path d="M259.014 153.558C258.93 154.08 258.854 154.604 258.788 155.131C255.668 179.84 272.61 202.331 296.601 205.332C320.59 208.332 342.6 190.709 345.721 166C348.84 141.296 331.899 118.799 307.91 115.799C301.957 115.055 296.124 115.581 290.668 117.17C291.496 117.057 292.331 116.971 293.173 116.919C296.464 116.45 299.862 116.409 303.304 116.838C324.861 119.532 340.086 139.747 337.284 161.951C334.477 184.152 314.698 199.987 293.14 197.294C272.031 194.654 256.993 175.213 259.014 153.558Z" fill="white" style="fill:white;fill-opacity:1;"/>
</mask>
<g mask="url(#mask1_2010_758)">
<path d="M348.125 208.615L349.115 115.541L256.361 114.589L255.37 207.663L348.125 208.615Z" fill="url(#paint0_linear_2010_758)" style=""/>
</g>
</g>
</g>
<g clip-path="url(#clip0_2010_758)">
<path opacity="0.05" d="M-310.872 979L-316 771.248C-312.998 765.094 -306.956 760.785 -299.773 760.529C-301.569 760.385 -303.019 758.902 -303.065 757.062C-303.093 755.915 -302.506 754.807 -301.587 754.093C-302.134 753.627 -302.5 752.888 -302.519 752.064C-302.54 751.185 -302.134 750.349 -301.477 749.797C-301.969 749.33 -302.253 748.723 -302.271 747.975C-302.305 746.669 -301.37 745.553 -300.09 745.388L-299.907 738.769C-299.926 738.077 -299.956 736.771 -299.837 738.422L-299.397 745.373C-298.084 745.473 -297.042 746.541 -297.012 747.847C-296.993 748.595 -297.326 749.214 -297.794 749.706C-297.085 750.221 -296.664 751.039 -296.642 751.918C-296.621 752.745 -296.923 753.498 -297.473 753.993C-296.496 754.661 -295.854 755.738 -295.824 756.885C-295.778 758.725 -297.183 760.333 -299.021 760.51C-289.022 760.611 -280.754 768.542 -280.238 778.635L-267.523 778.321L-267.67 772.432L-261.152 772.27C-265.797 767.132 -268.717 760.376 -268.9 752.888C-269.261 738.281 -259.09 725.871 -245.419 723C-244.751 721.969 -244.076 721.126 -243.422 720.498L-243.501 717.3C-243.526 716.342 -243.116 715.503 -242.466 714.874L-241.159 698.522C-241.171 697.988 -241.174 697.857 -241.079 698.467C-240.41 703.917 -239.662 709.339 -238.966 714.789C-238.282 715.384 -237.836 716.202 -237.811 717.16L-237.732 720.358C-237.185 720.904 -236.605 721.636 -235.966 722.582C-221.572 724.254 -210.18 736.402 -209.807 751.433C-209.621 758.921 -212.177 765.811 -216.563 771.175L-209.859 771.01L-209.715 776.82L-202.342 776.637L-188.565 780.323L-188.959 764.358C-189.976 758.863 -187.923 751.079 -182.997 744.903C-177.759 738.4 -170.334 734.803 -161.974 734.598L-133.39 733.893C-128.262 733.768 -123.781 735.443 -119.102 736.554L-120.116 695.483L-121.13 695.507L-121.283 689.298L-120.269 689.273L-120.47 681.145L-121.405 681.169C-121.658 679.6 -118.967 678.176 -117.474 676.912L-117.672 668.863C-117.737 666.278 -115.95 663.965 -113.375 663.236L-113.418 661.451L-112.321 661.424L-112.373 659.37C-113.397 659.129 -114.194 658.134 -114.221 657.042C-114.249 655.87 -113.5 654.891 -112.492 654.518L-112.517 653.585C-113.061 653.252 -113.421 652.7 -113.436 652.035C-113.451 651.421 -113.119 650.854 -112.59 650.573L-112.682 646.896C-114.542 646.328 -115.947 644.577 -115.999 642.523C-116.029 641.245 -115.577 640.14 -114.798 639.213C-114.972 639.777 -115.092 640.314 -115.076 640.928C-115.012 643.54 -112.85 645.593 -110.257 645.529C-108.895 645.495 -107.731 644.934 -106.876 643.951C-107.526 645.727 -109.127 646.994 -111.103 647.042L-111.017 650.533C-110.477 650.787 -110.116 651.339 -110.101 651.952C-110.086 652.617 -110.419 653.188 -110.944 653.545L-110.92 654.479C-109.896 654.799 -109.124 655.742 -109.096 656.914C-109.069 658.006 -109.792 659.037 -110.8 659.33L-110.748 661.384L-109.652 661.356L-109.606 663.196C-107.129 663.883 -105.312 666.025 -105.251 668.558L-105.052 676.607C-103.58 677.745 -100.526 679.082 -100.703 680.659L-101.665 680.684L-101.464 688.813L-100.367 688.785L-100.214 694.995L-101.311 695.022L-100.098 744.088L-95.636 743.978L-96.0148 728.627L-91.7938 728.523L-91.916 723.592L-84.7843 723.415L-84.879 719.525L-82.6341 719.47C-82.6982 719.07 -82.7074 718.725 -82.7166 718.325C-82.8998 710.889 -77.7351 704.683 -70.7134 703.203L-70.7531 701.631L-69.8704 701.61L-69.8857 700.997L-68.9786 700.975L-69.0214 699.27C-70.072 698.949 -70.8416 698.034 -70.8691 696.941C-70.8966 695.77 -70.1728 694.79 -69.1404 694.445L-69.1649 693.487C-69.733 693.207 -70.0964 692.602 -70.1117 691.989C-70.1269 691.324 -69.7941 690.753 -69.2413 690.476L-69.3176 687.412C-70.915 686.625 -72.0511 684.947 -72.1 683.027C-72.1366 681.535 -71.5013 680.211 -70.4812 679.253C-70.8936 679.93 -71.0585 680.76 -71.0371 681.587C-70.9669 684.44 -68.5876 686.646 -65.7808 686.579C-64.498 686.548 -63.3343 686.039 -62.473 685.191C-63.261 686.783 -64.9439 687.919 -66.8406 687.964C-67.1888 687.973 -67.4545 687.98 -67.8027 687.906L-67.7416 690.439C-67.1216 690.689 -66.7581 691.241 -66.7428 691.907C-66.7276 692.52 -67.0605 693.142 -67.6683 693.451L-67.6439 694.409C-66.6207 694.705 -65.7686 695.642 -65.7411 696.816C-65.7136 697.909 -66.5199 698.864 -67.5247 699.233L-67.482 700.939L-66.5993 700.917L-66.584 701.531L-65.6219 701.506L-65.5853 703.026C-58.3712 703.996 -52.6078 710.013 -52.4215 717.584C-52.4123 717.984 -52.4031 718.331 -52.4734 718.731L-50.2041 718.676L-50.1094 722.567L-47.1162 722.493L-47.6935 699.172L-38.4514 698.943L-38.7171 688.15L-23.064 687.766L-23.2718 679.372L-18.33 679.25C-18.4307 678.371 -18.5316 677.547 -18.553 676.668C-18.9684 659.825 -6.6475 645.654 9.64997 643.198L9.5675 639.866L11.1466 639.826L11.1221 638.868L12.6187 638.831L12.5454 635.899C10.7434 635.383 9.41787 633.79 9.37206 631.871C9.32319 629.9 10.5663 628.216 12.3408 627.639L12.298 625.933C11.3267 625.558 10.6884 624.533 10.6609 623.44C10.6335 622.293 11.2229 621.32 12.1728 620.816L12.0476 615.699C9.28654 614.274 7.37151 611.439 7.2921 608.162C7.23101 605.629 8.242 603.286 9.99208 601.696C9.40872 602.938 9.04221 604.305 9.07581 605.745C9.19492 610.515 13.1624 614.311 17.9728 614.195C20.2146 614.14 22.2518 613.264 23.7148 611.787C22.3648 614.567 19.5274 616.532 16.1891 616.614C15.6271 616.63 15.1446 616.587 14.607 616.52L14.7109 620.758C15.6852 621.213 16.3755 622.156 16.4029 623.303C16.4304 624.395 15.789 625.451 14.8361 625.875L14.8789 627.581C16.6564 628.069 18.0064 629.689 18.0553 631.664C18.1041 633.583 16.8336 635.24 15.0835 635.844L15.1568 638.776L16.7358 638.737L16.7603 639.695L18.2568 639.658L18.3423 643.07C34.4535 644.913 47.2416 658.384 47.6539 675.042C47.6753 675.921 47.6417 676.747 47.5837 677.629L52.5255 677.507V677.587C54.0649 676.989 55.5736 676.47 57.1405 675.954C58.7562 675.46 60.323 674.996 61.9692 674.474L61.3492 649.316L78.8989 648.882L78.3828 627.987H78.4622L78.1292 614.472L78.9569 614.451L80.9117 610.188L78.96 531.164L77.7841 531.195L77.6223 524.585L78.7982 524.555L78.5843 515.947L77.5428 515.971C77.2893 514.351 80.139 512.761 81.6814 511.443L81.4706 502.915C81.4004 500.116 83.3215 497.721 86.107 496.906L86.0611 495.015L87.2095 494.987L87.1576 492.854C86.0795 492.534 85.2274 491.542 85.1968 490.315C85.1663 489.089 85.9695 488.109 87.0294 487.682L87.0049 486.642C86.4124 486.388 85.9695 485.787 85.9512 485.095C85.9329 484.347 86.3452 483.724 86.9255 483.444L86.8308 479.633C84.7844 478.989 83.294 477.106 83.239 474.921C83.2054 473.563 83.7125 472.404 84.5157 471.424C84.3447 472.041 84.195 472.578 84.2134 473.271C84.2805 475.989 86.6079 478.198 89.4117 478.128C90.7739 478.095 92.0688 477.451 92.9271 476.468C92.2796 478.324 90.5479 479.675 88.4099 479.779L88.4984 483.404C89.1184 483.654 89.5613 484.258 89.5827 485.003C89.601 485.696 89.1856 486.318 88.5778 486.602L88.6023 487.642C89.711 488.015 90.5631 488.955 90.5936 490.181C90.6242 491.408 89.8209 492.439 88.7305 492.815L88.7825 494.947L90.0377 494.917L90.0867 496.888C92.7011 497.651 94.6527 499.921 94.7199 502.588L94.9276 511.037C96.4853 512.358 99.7228 513.719 99.5548 515.431L98.5408 515.456L98.7546 524.063L99.848 524.036L100.01 530.645L98.9165 530.673L100.868 609.697L102.948 613.859L103.776 613.838L104.109 627.349L108.354 627.245L107.957 611.146L117.306 610.914C117.135 609.291 117.037 607.64 116.998 606.014C116.188 573.258 140.558 545.75 172.481 541.816L172.38 537.74L174.359 537.691L174.326 536.385L176.25 536.336L176.158 532.659C173.871 532.021 172.188 530.011 172.13 527.557C172.069 525.104 173.648 522.959 175.902 522.211L175.85 520.106C174.607 519.523 173.745 518.318 173.712 516.878C173.675 515.437 174.476 514.192 175.691 513.628L175.529 507.07C171.983 505.319 169.57 501.749 169.467 497.593C169.387 494.368 170.758 491.402 172.899 489.376C172.188 490.886 171.751 492.683 171.797 494.523C171.944 500.519 176.983 505.328 182.994 505.182C185.877 505.111 188.363 503.955 190.324 502.2C188.565 505.71 184.912 508.12 180.743 508.224C180.074 508.239 179.457 508.203 178.761 508.138L178.895 513.549C180.138 514.052 180.996 515.257 181.033 516.694C181.07 518.135 180.269 519.38 179.057 520.023L179.109 522.129C181.396 522.767 183.079 524.832 183.14 527.283C183.201 529.736 181.622 531.826 179.368 532.577L179.46 536.254L181.384 536.205L181.418 537.511L183.397 537.462L183.498 541.487C216.175 543.055 242.701 569.578 243.523 602.892C243.563 604.519 243.471 606.173 243.434 607.802L252.808 607.57L253.205 623.669L257.371 623.565L257.038 610.054L257.866 610.033L259.793 605.773L257.841 526.749L256.775 526.776L256.613 520.167L257.679 520.139L257.466 511.532L256.452 511.556C256.198 509.936 259.1 508.343 260.59 507.028L260.379 498.499C260.309 495.701 262.31 493.306 265.016 492.491L264.97 490.599L266.146 490.569L266.094 488.436C264.964 488.118 264.188 487.124 264.157 485.897C264.127 484.67 264.854 483.694 265.965 483.267L265.941 482.226C265.373 481.973 264.958 481.372 264.939 480.676C264.921 479.929 265.306 479.306 265.862 479.025L265.767 475.214C263.745 474.57 262.282 472.688 262.227 470.5C262.193 469.142 262.621 467.983 263.504 467C263.305 467.619 263.183 468.153 263.201 468.849C263.269 471.568 265.568 473.777 268.32 473.71C269.737 473.676 271.029 473.029 271.891 472.05C271.188 473.908 269.46 475.257 267.401 475.361L267.49 478.986C268.11 479.236 268.47 479.84 268.488 480.588C268.507 481.28 268.174 481.903 267.566 482.184L267.59 483.224C268.696 483.596 269.548 484.536 269.579 485.763C269.609 486.989 268.806 488.021 267.719 488.396L267.771 490.529L268.916 490.502L268.965 492.473C271.607 493.236 273.558 495.506 273.626 498.173L273.833 506.622C275.446 507.943 278.631 509.304 278.46 511.016L277.446 511.04L277.66 519.648L278.754 519.621L278.916 526.23L277.822 526.257L279.774 605.282L281.933 609.441L282.761 609.419L283.613 643.881L285.241 643.787L301.245 643.393L301.868 668.686C303.322 669.076 304.773 669.443 306.196 669.806C307.729 670.248 309.241 670.691 310.695 671.136L315.075 671.029C314.974 670.15 314.953 669.327 314.931 668.445C314.513 651.519 326.885 637.293 343.32 634.916L343.238 631.639L344.735 631.603L344.71 630.644L346.234 630.608L346.161 627.676C344.359 627.16 343.088 625.564 343.042 623.645C342.994 621.673 344.182 619.989 345.956 619.412L345.913 617.707C344.942 617.331 344.304 616.306 344.276 615.214C344.249 614.066 344.838 613.093 345.788 612.59L345.663 607.472C342.875 606.047 340.963 603.216 340.883 599.936C340.822 597.403 341.937 595.056 343.607 593.467C343.024 594.709 342.713 596.076 342.746 597.516C342.865 602.285 346.857 606.081 351.64 605.965C353.833 605.91 355.867 605.034 357.33 603.558C355.956 606.337 353.143 608.302 349.777 608.385C349.298 608.397 348.76 608.357 348.277 608.287L348.381 612.525C349.353 612.98 349.991 613.926 350.018 615.073C350.046 616.166 349.456 617.222 348.506 617.643L348.549 619.348C350.272 619.84 351.622 621.46 351.671 623.431C351.72 625.35 350.449 627.007 348.754 627.608L348.827 630.541L350.324 630.504L350.348 631.465L351.872 631.429L351.958 634.84L351.613 634.849C367.88 636.634 380.643 650.109 381.056 666.818C381.077 667.697 381.098 668.524 381.065 669.406L385.982 669.284L386.19 677.678L401.791 677.294L402.057 688.086L411.271 687.861L411.849 711.182L413.987 711.13L413.892 707.24L416.137 707.185C416.073 706.785 416.063 706.44 416.054 706.041C415.871 698.604 421.115 692.316 428.189 690.86L428.152 689.34L429.059 689.319L429.044 688.706L429.927 688.684L429.884 686.979C428.833 686.658 428.061 685.743 428.033 684.651C428.006 683.479 428.729 682.499 429.765 682.154L429.74 681.196C429.169 680.916 428.754 680.315 428.739 679.701C428.723 679.036 429.108 678.465 429.664 678.185L429.588 675.121C427.99 674.334 426.854 672.656 426.805 670.736C426.769 669.244 427.352 667.923 428.342 666.965C428.036 667.639 427.844 668.469 427.865 669.296C427.935 672.149 430.235 674.358 433.042 674.288C434.349 674.255 435.568 673.745 436.429 672.897C435.586 674.489 433.986 675.625 431.979 675.673C431.658 675.683 431.365 675.689 431.096 675.615L431.158 678.148C431.723 678.401 432.059 678.954 432.074 679.619C432.089 680.232 431.784 680.852 431.231 681.16L431.255 682.118C432.306 682.411 433.076 683.354 433.103 684.525C433.131 685.618 432.407 686.57 431.374 686.942L431.417 688.648L432.297 688.626L432.312 689.24L433.219 689.218L433.256 690.738C440.445 691.708 446.074 697.784 446.261 705.299L446.288 706.446L448.561 706.391L448.655 710.282L455.76 710.108L455.882 715.039L460.127 714.935L460.24 719.494C461.382 719.198 462.546 718.743 463.774 718.582L462.848 681.135L461.755 681.163L461.602 674.953L462.696 674.926L462.494 666.797L461.535 666.821C461.282 665.253 464 663.828 465.386 662.565L465.188 654.515C465.124 651.931 466.99 649.618 469.565 648.889L469.522 647.104L470.615 647.076L470.563 645.022C469.543 644.781 468.771 643.787 468.743 642.694C468.716 641.523 469.436 640.543 470.444 640.171L470.42 639.237C469.879 638.905 469.516 638.352 469.501 637.687C469.485 637.074 469.821 636.506 470.347 636.225L470.255 632.549C468.343 631.981 466.99 630.23 466.941 628.176C466.911 626.897 467.363 625.793 468.169 624.865C467.967 625.43 467.851 625.967 467.867 626.58C467.931 629.192 470.093 631.246 472.711 631.182C474.073 631.148 475.209 630.586 476.092 629.604C475.441 631.38 473.761 632.649 471.84 632.695L471.926 636.186C472.491 636.439 472.854 636.988 472.869 637.602C472.885 638.267 472.552 638.837 471.999 639.197L472.023 640.131C473.074 640.452 473.844 641.394 473.874 642.566C473.902 643.659 473.181 644.69 472.146 644.983L472.197 647.036L473.291 647.009L473.337 648.849C475.814 649.535 477.655 651.677 477.72 654.207L477.918 662.257C479.39 663.395 482.417 664.731 482.27 666.309L481.308 666.333L481.51 674.462L482.524 674.438L482.677 680.647L481.663 680.672L482.686 722.088C486.843 724.785 490.569 728.508 493.284 733.427L497.511 741.244C498.33 735.41 500.874 730.174 504.808 726.048C510.369 720.657 517.061 717.88 524.593 717.694C532.314 717.505 539.489 720.208 544.831 725.408C549.949 730.268 552.982 737.207 553.169 744.778L553.547 760.129L560.6 757.85L568 757.667" fill="#D95A38" style="fill:#D95A38;fill:color(display-p3 0.8510 0.3529 0.2196);fill-opacity:1;"/>
</g>
<g opacity="0.05">
<path d="M161.927 243.428C164.749 243.428 167.438 243.363 169.895 243.245C172.061 247.009 176.131 249.547 180.803 249.547C183.378 249.547 185.771 248.774 187.765 247.452C188.437 253.322 193.442 257.881 199.518 257.881C205.246 257.881 210.024 253.83 211.115 248.451C213.071 249.873 215.478 250.713 218.087 250.713C220.887 250.713 223.455 249.744 225.481 248.128C226.232 253.925 231.21 258.405 237.24 258.405C243.27 258.405 247.858 254.267 248.892 248.799C250.378 249.463 252.023 249.839 253.756 249.839C259.342 249.839 264.022 245.996 265.281 240.824C266.448 241.075 267.657 241.213 268.898 241.213C271.743 241.213 274.42 240.512 276.775 239.281C278.048 240.799 279.965 241.765 282.106 241.765C282.202 241.765 282.297 241.762 282.392 241.758C282.946 244.699 285.537 246.923 288.652 246.923C290.564 246.923 292.279 246.082 293.446 244.755C295.426 247.944 298.972 250.069 303.017 250.069C307.902 250.069 312.058 246.97 313.61 242.639C317.063 243.076 321.875 243.363 327.27 243.415C328.327 245.969 330.85 247.766 333.797 247.766C336.89 247.766 339.517 245.786 340.47 243.03C346.185 242.599 349.962 241.853 349.962 241.005C349.962 240.158 346.257 239.425 340.633 238.991C339.85 235.96 337.087 233.72 333.795 233.72C333.237 233.72 332.692 233.788 332.171 233.91C331.842 231.824 330.415 230.103 328.495 229.351C328.359 227.377 327.681 225.551 326.605 224.021C324.677 221.272 321.473 219.471 317.848 219.471C311.952 219.471 307.174 224.227 307.174 230.092C307.174 231.442 307.43 232.732 307.891 233.921C306.724 232.26 306.026 230.253 305.978 228.085C305.034 227.83 304.041 227.689 303.015 227.689C302.557 227.689 302.108 227.719 301.663 227.773C301.581 221.598 296.529 216.616 290.303 216.616C288.904 216.616 287.565 216.869 286.326 217.33C286.587 218.508 286.73 219.731 286.73 220.987C286.73 223.067 286.349 225.061 285.657 226.901C285.784 226.064 285.852 225.21 285.852 224.34C285.852 215.02 278.261 207.466 268.896 207.466C261.622 207.466 255.419 212.025 253.012 218.426C253.79 213.341 256.853 209.003 261.123 206.476C260.703 205.009 260.163 203.592 259.517 202.233C255.038 192.821 245.41 186.309 234.247 186.309C219.19 186.309 206.918 198.16 206.331 213.002C206.172 211.815 206.088 210.606 206.088 209.376C206.088 205.452 206.927 201.725 208.438 198.359C207.349 197.667 206.056 197.267 204.668 197.267C200.786 197.267 197.639 200.398 197.639 204.261C197.639 205.138 197.802 205.976 198.1 206.749C189.358 208.097 182.665 215.608 182.645 224.679C182.041 224.59 181.427 224.543 180.798 224.543C179.709 224.543 178.654 224.681 177.647 224.941C177.218 221.724 174.974 219.08 171.971 218.06C171.111 217.769 170.19 217.608 169.232 217.608C164.54 217.608 160.738 221.392 160.738 226.06C160.738 228.915 162.161 231.437 164.338 232.967C161.94 232.154 160.023 230.305 159.132 227.954C156.87 229.26 155.35 231.695 155.35 234.484C155.35 236.032 155.819 237.472 156.625 238.67C147.636 238.941 141 239.886 141 241.01C141 242.346 150.37 243.428 161.927 243.428Z" fill="#D95A38" style="fill:#D95A38;fill:color(display-p3 0.8510 0.3529 0.2196);fill-opacity:1;"/>
<path d="M153.124 233.636C153.124 235.182 151.865 236.435 150.313 236.435C148.761 236.435 147.502 235.182 147.502 233.636C147.502 232.09 148.761 230.838 150.313 230.838C151.865 230.838 153.124 232.09 153.124 233.636Z" fill="#D95A38" style="fill:#D95A38;fill:color(display-p3 0.8510 0.3529 0.2196);fill-opacity:1;"/>
<path d="M156.142 226.439C156.142 227.42 155.341 228.218 154.356 228.218C153.371 228.218 152.568 227.423 152.568 226.439C152.568 225.456 153.369 224.663 154.356 224.663C155.343 224.663 156.142 225.458 156.142 226.439Z" fill="#D95A38" style="fill:#D95A38;fill:color(display-p3 0.8510 0.3529 0.2196);fill-opacity:1;"/>
<path d="M292.708 212.859C292.708 213.84 291.907 214.636 290.92 214.636C289.933 214.636 289.133 213.84 289.133 212.859C289.133 211.878 289.933 211.083 290.92 211.083C291.907 211.083 292.708 211.878 292.708 212.859Z" fill="#D95A38" style="fill:#D95A38;fill:color(display-p3 0.8510 0.3529 0.2196);fill-opacity:1;"/>
<path d="M195.327 204.349C195.327 205.33 194.526 206.126 193.542 206.126C192.557 206.126 191.754 205.33 191.754 204.349C191.754 203.368 192.555 202.572 193.542 202.572C194.529 202.572 195.327 203.368 195.327 204.349Z" fill="#D95A38" style="fill:#D95A38;fill:color(display-p3 0.8510 0.3529 0.2196);fill-opacity:1;"/>
</g>
<g opacity="0.05">
<path d="M49.7509 103.264C51.997 103.264 54.1387 103.212 56.0943 103.119C57.8186 106.117 61.0606 108.137 64.7813 108.137C66.8322 108.137 68.738 107.523 70.3238 106.469C70.857 111.144 74.8432 114.774 79.6824 114.774C84.2448 114.774 88.0472 111.548 88.9184 107.265C90.4748 108.397 92.3941 109.066 94.47 109.066C96.6979 109.066 98.7443 108.296 100.357 107.007C100.956 111.623 104.918 115.192 109.723 115.192C114.528 115.192 118.178 111.896 119.002 107.543C120.184 108.072 121.495 108.37 122.875 108.37C127.321 108.37 131.049 105.312 132.052 101.194C132.98 101.395 133.941 101.503 134.931 101.503C137.195 101.503 139.327 100.945 141.204 99.9662C142.218 101.175 143.742 101.944 145.449 101.944C145.526 101.944 145.601 101.942 145.678 101.937C146.118 104.279 148.182 106.051 150.662 106.051C152.184 106.051 153.55 105.382 154.48 104.324C156.059 106.863 158.882 108.556 162.101 108.556C165.992 108.556 169.3 106.087 170.536 102.64C173.286 102.986 177.118 103.217 181.413 103.257C182.254 105.289 184.264 106.722 186.61 106.722C189.074 106.722 191.164 105.145 191.924 102.952C196.475 102.609 199.483 102.014 199.483 101.338C199.483 100.662 196.531 100.081 192.053 99.7356C191.431 97.3216 189.228 95.5382 186.608 95.5382C186.163 95.5382 185.73 95.5901 185.315 95.6896C185.054 94.0282 183.915 92.6585 182.388 92.0595C182.279 90.4885 181.739 89.0351 180.884 87.8145C179.348 85.6242 176.798 84.1912 173.91 84.1912C169.216 84.1912 165.409 87.9773 165.409 92.6494C165.409 93.7253 165.613 94.7515 165.981 95.6964C165.053 94.3741 164.495 92.776 164.458 91.0491C163.705 90.8457 162.916 90.7349 162.099 90.7349C161.734 90.7349 161.375 90.7598 161.023 90.8004C160.96 85.8842 156.935 81.9172 151.978 81.9172C150.864 81.9172 149.795 82.1184 148.811 82.4846C149.02 83.4226 149.133 84.3969 149.133 85.3982C149.133 87.055 148.829 88.6395 148.278 90.1065C148.38 89.442 148.432 88.7616 148.432 88.0677C148.432 80.6469 142.386 74.6321 134.928 74.6321C129.136 74.6321 124.197 78.2623 122.28 83.3594C122.9 79.3088 125.338 75.8572 128.739 73.8455C128.406 72.6769 127.975 71.549 127.46 70.4663C123.893 62.971 116.225 57.7857 107.338 57.7857C95.348 57.7857 85.5743 67.2227 85.1092 79.0376C84.9821 78.0927 84.9141 77.1298 84.9141 76.1511C84.9141 73.0273 85.5834 70.0594 86.7858 67.3809C85.9169 66.8316 84.8891 66.5107 83.7842 66.5107C80.6942 66.5107 78.1873 69.0038 78.1873 72.0802C78.1873 72.7786 78.3166 73.4454 78.5525 74.0625C71.5921 75.1362 66.2628 81.1148 66.2469 88.3389C65.7682 88.2688 65.2759 88.2304 64.7768 88.2304C63.9101 88.2304 63.0684 88.3412 62.2676 88.5469C61.9272 85.9859 60.1395 83.8792 57.746 83.0678C57.0608 82.835 56.328 82.7084 55.5657 82.7084C51.8314 82.7084 48.8026 85.7214 48.8026 89.4375C48.8026 91.7091 49.937 93.7186 51.6703 94.9369C49.76 94.2904 48.2354 92.8167 47.523 90.9451C45.7217 91.9849 44.5101 93.9243 44.5101 96.1439C44.5101 97.3781 44.8845 98.5241 45.5243 99.4779C38.3664 99.6927 33.0825 100.445 33.0825 101.34C33.0825 102.405 40.5421 103.266 49.7464 103.266L49.7509 103.264Z" fill="#D95A38" style="fill:#D95A38;fill:color(display-p3 0.8510 0.3529 0.2196);fill-opacity:1;"/>
<path d="M42.7429 95.4681C42.7429 96.6977 41.7401 97.6968 40.5036 97.6968C39.2672 97.6968 38.2644 96.7 38.2644 95.4681C38.2644 94.2362 39.2672 93.2416 40.5036 93.2416C41.7401 93.2416 42.7429 94.2385 42.7429 95.4681Z" fill="#D95A38" style="fill:#D95A38;fill:color(display-p3 0.8510 0.3529 0.2196);fill-opacity:1;"/>
<path d="M45.1453 89.7358C45.1453 90.5179 44.5078 91.1508 43.7228 91.1508C42.9378 91.1508 42.3003 90.5179 42.3003 89.7358C42.3003 88.9538 42.9378 88.3209 43.7228 88.3209C44.5078 88.3209 45.1453 88.9538 45.1453 89.7358Z" fill="#D95A38" style="fill:#D95A38;fill:color(display-p3 0.8510 0.3529 0.2196);fill-opacity:1;"/>
<path d="M153.895 78.9246C153.895 79.7067 153.258 80.3396 152.473 80.3396C151.688 80.3396 151.05 79.7067 151.05 78.9246C151.05 78.1425 151.688 77.5096 152.473 77.5096C153.258 77.5096 153.895 78.1425 153.895 78.9246Z" fill="#D95A38" style="fill:#D95A38;fill:color(display-p3 0.8510 0.3529 0.2196);fill-opacity:1;"/>
<path d="M76.3496 72.148C76.3496 72.9301 75.7121 73.563 74.9271 73.563C74.1422 73.563 73.5046 72.9301 73.5046 72.148C73.5046 71.3659 74.1422 70.733 74.9271 70.733C75.7121 70.733 76.3496 71.3659 76.3496 72.148Z" fill="#D95A38" style="fill:#D95A38;fill:color(display-p3 0.8510 0.3529 0.2196);fill-opacity:1;"/>
</g>
<defs>
<linearGradient id="paint0_linear_2010_758" x1="256.361" y1="114.589" x2="348.447" y2="208.298" gradientUnits="userSpaceOnUse">
<stop stop-color="#DF7643" style="stop-color:#DF7643;stop-color:color(display-p3 0.8745 0.4627 0.2627);stop-opacity:1;"/>
<stop offset="1" stop-color="#D74931" style="stop-color:#D74931;stop-color:color(display-p3 0.8431 0.2863 0.1922);stop-opacity:1;"/>
</linearGradient>
<clipPath id="clip0_2010_758">
<rect width="374" height="345" fill="white" style="fill:white;fill-opacity:1;" transform="translate(0 467)"/>
</clipPath>
</defs>
</svg>
