<svg width="25" height="24" viewBox="0 0 25 24" fill="none" xmlns="http://www.w3.org/2000/svg">
<path d="M9.25125 13.3419C9.45354 12.9381 9.56738 12.4824 9.56738 12C9.56738 11.5176 9.45354 11.0619 9.25125 10.6581M9.25125 13.3419C8.75872 14.3251 7.74187 15 6.56738 15C4.91053 15 3.56738 13.6569 3.56738 12C3.56738 10.3431 4.91053 9 6.56738 9C7.74187 9 8.75872 9.67492 9.25125 10.6581M9.25125 13.3419L15.8835 16.6581M9.25125 10.6581L15.8835 7.34193M15.8835 16.6581C15.6812 17.0619 15.5674 17.5176 15.5674 18C15.5674 19.6569 16.9105 21 18.5674 21C20.2243 21 21.5674 19.6569 21.5674 18C21.5674 16.3431 20.2243 15 18.5674 15C17.3929 15 16.3761 15.6749 15.8835 16.6581ZM15.8835 7.34193C16.3761 8.32508 17.3929 9 18.5674 9C20.2243 9 21.5674 7.65685 21.5674 6C21.5674 4.34315 20.2243 3 18.5674 3C16.9105 3 15.5674 4.34315 15.5674 6C15.5674 6.48237 15.6812 6.93815 15.8835 7.34193Z" stroke="#0E0E0F" style="stroke:#0E0E0F;stroke:color(display-p3 0.0549 0.0549 0.0588);stroke-opacity:1;" stroke-width="2.5" stroke-linecap="round" stroke-linejoin="round"/>
</svg>
