<svg width="233" height="126" viewBox="0 0 233 126" fill="none" xmlns="http://www.w3.org/2000/svg">
<path d="M28.944 58.16C28.8693 58.0107 28.4213 57.5253 27.6 56.704C26.7787 55.8827 25.8827 54.9867 24.912 54.016C23.9413 53.0453 23.1573 52.2613 22.56 51.664V51.104L28.944 44.72H29.392C30.4373 45.6907 31.52 46.736 32.64 47.856C33.76 48.976 34.768 50.0587 35.664 51.104V51.664L29.392 58.16H28.944ZM25.024 114.72C16.8853 114.72 10.688 112.779 6.432 108.896C2.25067 105.013 0.16 99.6 0.16 92.656C0.16 89.8187 0.533334 86.832 1.28 83.696C2.02667 80.4853 2.88533 77.536 3.856 74.848L6.544 75.072C4.15467 83.808 4.90133 90.752 8.784 95.904C12.7413 101.131 19.3493 103.744 28.608 103.744C34.1333 103.744 39.3227 102.549 44.176 100.16C49.0293 97.8453 53.472 94.9707 57.504 91.536C57.952 88.4747 57.616 85.264 56.496 81.904C55.376 78.544 53.8453 75.296 51.904 72.16C49.9627 69.024 47.9093 66.2987 45.744 63.984L48.992 54.352H50.224C54.5547 58.832 57.6907 63.984 59.632 69.808C61.648 75.5573 62.5067 81.1573 62.208 86.608C62.1333 90.4907 61.0507 94.112 58.96 97.472C56.944 100.907 54.1813 103.893 50.672 106.432C47.2373 109.045 43.3173 111.061 38.912 112.48C34.5067 113.973 29.8773 114.72 25.024 114.72ZM84.0813 25.232C84.2306 26.7253 84.4173 28.6293 84.6413 30.944C84.9399 33.2587 85.2386 36.096 85.5373 39.456C86.5079 49.3867 87.2919 57.712 87.8893 64.432C88.5613 71.0773 88.8973 76.0427 88.8973 79.328C88.8973 82.688 88.6359 85.7493 88.1133 88.512C87.6653 91.2747 86.8066 94.1867 85.5373 97.248L84.1933 96.8L75.7933 33.856L82.5133 24.784L84.0813 25.232ZM83.8573 7.536C83.6333 6.26666 82.8866 5.44533 81.6173 5.072C80.4226 4.624 79.1906 4.58667 77.9213 4.96C76.9506 5.25867 76.0546 5.78133 75.2333 6.528C74.4866 7.2 74.1133 8.096 74.1133 9.216C74.1133 10.4107 74.6733 11.344 75.7933 12.016C76.9879 12.688 78.6306 13.024 80.7213 13.024C81.5426 13.024 82.6253 12.9493 83.9693 12.8C85.3133 12.6507 86.7693 12.464 88.3373 12.24L88.4493 12.576L85.6493 17.28C83.3346 17.4293 81.2813 17.6907 79.4893 18.064C77.7719 18.3627 76.1666 18.8853 74.6732 19.632C73.1799 20.304 71.5746 21.3493 69.8573 22.768L69.5213 22.32C69.8199 21.7227 70.3426 21.0507 71.0893 20.304C71.8359 19.4827 72.5826 18.6987 73.3293 17.952C74.0759 17.2053 74.5613 16.6827 74.7853 16.384C72.2466 15.264 70.7533 13.8453 70.3053 12.128C69.8573 10.4107 70.6786 8.28266 72.7693 5.74399C74.3373 3.87733 76.1293 2.53333 78.1453 1.71199C80.2359 0.890662 82.0653 0.666662 83.6333 1.04C85.2013 1.33866 85.9853 2.384 85.9853 4.17599C85.9853 5.29599 85.4253 6.41599 84.3053 7.536H83.8573ZM101.539 125.248C98.4779 125.099 95.4166 124.763 92.3552 124.24C89.2192 123.717 86.1579 123.008 83.1712 122.112L83.2832 121.328C88.8086 121.029 93.4379 120.171 97.1712 118.752C100.83 117.408 104.003 115.541 106.691 113.152C109.454 110.837 112.105 108.187 114.643 105.2C117.63 101.691 120.094 97.024 122.035 91.2C120.691 90.6027 119.422 89.856 118.227 88.96C117.107 88.064 116.099 87.0187 115.203 85.824C115.502 84.48 115.838 83.024 116.211 81.456C116.585 79.8133 117.033 78.0213 117.555 76.08H118.787C120.953 78.992 123.267 81.008 125.731 82.128C128.27 83.1733 131.63 83.696 135.811 83.696C137.454 83.696 138.611 84.1813 139.283 85.152C139.955 86.1227 140.291 87.3547 140.291 88.848C140.291 90.2667 139.955 91.4987 139.283 92.544C138.611 93.5147 137.454 94 135.811 94C134.094 94 132.414 93.888 130.771 93.664C129.129 93.44 127.486 93.104 125.843 92.656C125.694 94.672 125.321 96.6507 124.723 98.592C124.201 100.533 123.529 102.512 122.707 104.528C120.915 109.307 118.974 113.152 116.883 116.064C114.793 119.051 112.441 121.403 109.827 123.12C108.409 124.091 107.139 124.688 106.019 124.912C104.899 125.211 103.406 125.323 101.539 125.248ZM167.779 52.448C169.497 52.5227 170.915 53.2693 172.035 54.688C173.155 56.1067 173.977 57.8987 174.499 60.064C175.022 62.1547 175.283 64.2827 175.283 66.448C175.358 68.6133 175.171 70.5547 174.723 72.272C174.425 73.9893 173.678 75.8187 172.483 77.76C171.363 79.6267 170.206 81.1947 169.011 82.464C170.654 82.9867 172.745 83.3227 175.283 83.472C177.897 83.6213 180.585 83.696 183.347 83.696C184.841 83.696 185.961 84.2933 186.707 85.488C187.454 86.608 187.827 87.84 187.827 89.184C187.827 90.3787 187.491 91.4987 186.819 92.544C186.147 93.5147 185.139 94 183.795 94H181.555C171.998 94 163.934 92.096 157.363 88.288C153.331 90.1547 149.747 91.5733 146.611 92.544C143.475 93.5147 139.891 94 135.859 94C133.321 94 131.379 93.4773 130.035 92.432C128.691 91.312 127.982 90.1173 127.907 88.848C127.907 87.5787 128.579 86.4213 129.923 85.376C131.193 84.256 133.171 83.696 135.859 83.696C138.473 83.696 140.825 83.584 142.915 83.36C145.081 83.136 147.358 82.6507 149.747 81.904C148.329 79.7387 147.731 77.424 147.955 74.96C148.179 72.4213 148.889 69.8827 150.083 67.344C151.353 64.7307 152.921 62.2667 154.787 59.952C156.729 57.6373 158.819 55.7707 161.059 54.352C163.299 52.9333 165.539 52.2987 167.779 52.448ZM170.243 71.824C170.318 70.6293 170.094 69.3973 169.571 68.128C169.049 66.8587 168.414 65.664 167.667 64.544C166.995 63.4987 166.211 62.9387 165.315 62.864C164.494 62.7147 163.561 62.752 162.515 62.976C160.425 63.5733 158.446 64.6187 156.579 66.112C154.713 67.5307 153.593 69.024 153.219 70.592C153.369 72.384 154.115 73.9893 155.459 75.408C156.878 76.752 158.297 77.7227 159.715 78.32C160.686 78.096 161.918 77.648 163.411 76.976C164.979 76.2293 166.435 75.408 167.779 74.512C169.123 73.5413 169.945 72.6453 170.243 71.824ZM173.491 46.96C173.417 46.8107 172.969 46.3253 172.147 45.504C171.326 44.6827 170.43 43.7867 169.459 42.816C168.489 41.8453 167.705 41.0613 167.107 40.464V39.904L173.491 33.52H173.939C174.985 34.4907 176.067 35.536 177.187 36.656C178.307 37.776 179.315 38.8587 180.211 39.904V40.464L173.939 46.96H173.491ZM156.243 46.96C156.169 46.8107 155.721 46.3253 154.899 45.504C154.078 44.6827 153.182 43.7867 152.211 42.816C151.241 41.8453 150.457 41.0613 149.859 40.464V39.904L156.243 33.52H156.691C157.737 34.4907 158.819 35.536 159.939 36.656C161.059 37.776 162.067 38.8587 162.963 39.904V40.464L156.691 46.96H156.243ZM206.426 25.456C205.456 27.3973 204.522 28.9653 203.626 30.16C202.73 31.3547 201.946 32.4373 201.274 33.408C201.274 34.2293 201.498 36.544 201.946 40.352C202.394 44.16 202.768 49.1627 203.066 55.36C203.44 61.5573 203.514 68.6507 203.29 76.64C202.992 81.0453 202.282 84.5173 201.162 87.056C200.042 89.5947 198.026 91.3867 195.114 92.432C192.202 93.4773 187.872 94 182.122 94C179.584 94 177.68 93.4773 176.41 92.432C175.066 91.312 174.394 90.08 174.394 88.736C174.394 87.4667 175.066 86.3093 176.41 85.264C177.68 84.2187 179.584 83.696 182.122 83.696C184.736 83.696 187.349 83.6213 189.962 83.472C192.576 83.248 195.152 82.576 197.69 81.456C197.84 75.5573 197.653 69.3227 197.13 62.752C196.682 56.1813 195.973 49.6107 195.002 43.04C194.106 36.3947 193.024 30.0853 191.754 24.112C191.232 22.0213 191.493 20.3787 192.538 19.184C193.584 17.9893 195.264 16.2347 197.578 13.92C198.026 14.8907 198.624 16.16 199.37 17.728C200.117 19.2213 201.05 20.6773 202.17 22.096C203.365 23.5147 204.784 24.6347 206.426 25.456ZM227.232 14.48C227.381 15.9733 227.568 17.8773 227.792 20.192C228.091 22.5067 228.389 25.344 228.688 28.704C229.211 33.7067 229.696 38.8213 230.144 44.048C230.667 49.2747 231.115 54.24 231.488 58.944C231.936 63.648 232.272 67.792 232.496 71.376C232.795 74.96 232.944 77.6107 232.944 79.328C232.944 82.688 232.683 85.7493 232.16 88.512C231.712 91.2747 230.853 94.1867 229.584 97.248L228.24 96.8L218.944 23.104L225.44 13.92L227.232 14.48Z" fill="#F86A2F"/>
</svg>
