<svg width="188" height="98" viewBox="0 0 188 98" fill="none" xmlns="http://www.w3.org/2000/svg">
<g filter="url(#filter0_d_1_158)">
<path d="M22.52 39.8C22.4633 39.6867 22.1233 39.3183 21.5 38.695C20.8767 38.0717 20.1967 37.3917 19.46 36.655C18.7233 35.9183 18.1283 35.3233 17.675 34.87V34.445L22.52 29.6H22.86C23.6533 30.3367 24.475 31.13 25.325 31.98C26.175 32.83 26.94 33.6517 27.62 34.445V34.87L22.86 39.8H22.52ZM19.545 82.725C13.3683 82.725 8.665 81.2517 5.435 78.305C2.26167 75.3583 0.675 71.25 0.675 65.98C0.675 63.8267 0.958334 61.56 1.525 59.18C2.09167 56.7433 2.74333 54.505 3.48 52.465L5.52 52.635C3.70667 59.265 4.27333 64.535 7.22 68.445C10.2233 72.4117 15.2383 74.395 22.265 74.395C26.4583 74.395 30.3967 73.4883 34.08 71.675C37.7633 69.9183 41.135 67.7367 44.195 65.13C44.535 62.8067 44.28 60.37 43.43 57.82C42.58 55.27 41.4183 52.805 39.945 50.425C38.4717 48.045 36.9133 45.9767 35.27 44.22L37.735 36.91H38.67C41.9567 40.31 44.3367 44.22 45.81 48.64C47.34 53.0033 47.9917 57.2533 47.765 61.39C47.7083 64.3367 46.8867 67.085 45.3 69.635C43.77 72.2417 41.6733 74.5083 39.01 76.435C36.4033 78.4183 33.4283 79.9483 30.085 81.025C26.7417 82.1583 23.2283 82.725 19.545 82.725ZM64.3652 14.81C64.4786 15.9433 64.6202 17.3883 64.7902 19.145C65.0169 20.9017 65.2436 23.055 65.4702 25.605C66.2069 33.1417 66.8019 39.46 67.2552 44.56C67.7652 49.6033 68.0202 53.3717 68.0202 55.865C68.0202 58.415 67.8219 60.7383 67.4252 62.835C67.0852 64.9317 66.4336 67.1417 65.4702 69.465L64.4502 69.125L58.0752 21.355L63.1752 14.47L64.3652 14.81ZM74.7352 0.444996C73.3186 3.27833 71.4486 5.40333 69.1252 6.82C66.8586 8.18 64.2802 8.945 61.3902 9.115C59.8036 9.17166 58.3869 9.03 57.1402 8.69C55.9502 8.35 54.9869 7.98166 54.2502 7.58499C53.5136 7.13166 53.0602 6.87667 52.8902 6.82C52.8336 6.93333 52.6352 7.30166 52.2952 7.925C52.0119 8.49166 51.7002 9.115 51.3602 9.795C51.0202 10.475 50.7369 11.0133 50.5102 11.41H49.6602C50.0002 9.88 50.3119 8.435 50.5952 7.075C50.8219 5.65833 51.2186 4.58166 51.7852 3.845C52.3519 3.10833 53.2302 2.995 54.4202 3.505C55.7236 4.015 57.0836 4.41166 58.5002 4.695C59.9736 4.97833 61.3902 5.09166 62.7502 5.035C64.8469 4.92167 66.8302 4.49667 68.7002 3.76C70.6269 3.02333 72.3552 1.86166 73.8852 0.274998L74.7352 0.444996ZM77.6146 90.715C75.2913 90.6017 72.9679 90.3467 70.6446 89.95C68.2646 89.5533 65.9413 89.015 63.6746 88.335L63.7596 87.74C67.9529 87.5133 71.4663 86.8617 74.2996 85.785C77.0763 84.765 79.4846 83.3483 81.5246 81.535C83.6213 79.7783 85.6329 77.7667 87.5596 75.5C89.8263 72.8367 91.6963 69.295 93.1696 64.875C92.1496 64.4217 91.1863 63.855 90.2796 63.175C89.4296 62.495 88.6646 61.7017 87.9846 60.795C88.2113 59.775 88.4663 58.67 88.7496 57.48C89.0329 56.2333 89.3729 54.8733 89.7696 53.4H90.7046C92.3479 55.61 94.1046 57.14 95.9746 57.99C97.9013 58.7833 100.451 59.18 103.625 59.18C104.871 59.18 105.75 59.5483 106.26 60.285C106.77 61.0217 107.025 61.9567 107.025 63.09C107.025 64.1667 106.77 65.1017 106.26 65.895C105.75 66.6317 104.871 67 103.625 67C102.321 67 101.046 66.915 99.7996 66.745C98.5529 66.575 97.3063 66.32 96.0596 65.98C95.9463 67.51 95.6629 69.0117 95.2096 70.485C94.8129 71.9583 94.3029 73.46 93.6796 74.99C92.3196 78.6167 90.8463 81.535 89.2596 83.745C87.6729 86.0117 85.8879 87.7967 83.9046 89.1C82.8279 89.8367 81.8646 90.29 81.0146 90.46C80.1646 90.6867 79.0313 90.7717 77.6146 90.715ZM127.886 35.465C129.189 35.5217 130.266 36.0883 131.116 37.165C131.966 38.2417 132.589 39.6017 132.986 41.245C133.383 42.8317 133.581 44.4467 133.581 46.09C133.638 47.7333 133.496 49.2067 133.156 50.51C132.929 51.8133 132.363 53.2017 131.456 54.675C130.606 56.0917 129.728 57.2817 128.821 58.245C130.068 58.6417 131.654 58.8967 133.581 59.01C135.564 59.1233 137.604 59.18 139.701 59.18C140.834 59.18 141.684 59.6333 142.251 60.54C142.818 61.39 143.101 62.325 143.101 63.345C143.101 64.2517 142.846 65.1017 142.336 65.895C141.826 66.6317 141.061 67 140.041 67H138.341C131.088 67 124.968 65.555 119.981 62.665C116.921 64.0817 114.201 65.1583 111.821 65.895C109.441 66.6317 106.721 67 103.661 67C101.734 67 100.261 66.6033 99.2411 65.81C98.2211 64.96 97.6828 64.0533 97.6261 63.09C97.6261 62.1267 98.1361 61.2483 99.1561 60.455C100.119 59.605 101.621 59.18 103.661 59.18C105.644 59.18 107.429 59.095 109.016 58.925C110.659 58.755 112.388 58.3867 114.201 57.82C113.124 56.1767 112.671 54.42 112.841 52.55C113.011 50.6233 113.549 48.6967 114.456 46.77C115.419 44.7867 116.609 42.9167 118.026 41.16C119.499 39.4033 121.086 37.9867 122.786 36.91C124.486 35.8333 126.186 35.3517 127.886 35.465ZM129.756 50.17C129.813 49.2633 129.643 48.3283 129.246 47.365C128.849 46.4017 128.368 45.495 127.801 44.645C127.291 43.8517 126.696 43.4267 126.016 43.37C125.393 43.2567 124.684 43.285 123.891 43.455C122.304 43.9083 120.803 44.7017 119.386 45.835C117.969 46.9117 117.119 48.045 116.836 49.235C116.949 50.595 117.516 51.8133 118.536 52.89C119.613 53.91 120.689 54.6467 121.766 55.1C122.503 54.93 123.438 54.59 124.571 54.08C125.761 53.5133 126.866 52.89 127.886 52.21C128.906 51.4733 129.529 50.7933 129.756 50.17ZM132.221 31.3C132.164 31.1867 131.824 30.8183 131.201 30.195C130.578 29.5717 129.898 28.8917 129.161 28.155C128.424 27.4183 127.829 26.8233 127.376 26.37V25.945L132.221 21.1H132.561C133.354 21.8367 134.176 22.63 135.026 23.48C135.876 24.33 136.641 25.1517 137.321 25.945V26.37L132.561 31.3H132.221ZM119.131 31.3C119.074 31.1867 118.734 30.8183 118.111 30.195C117.488 29.5717 116.808 28.8917 116.071 28.155C115.334 27.4183 114.739 26.8233 114.286 26.37V25.945L119.131 21.1H119.471C120.264 21.8367 121.086 22.63 121.936 23.48C122.786 24.33 123.551 25.1517 124.231 25.945V26.37L119.471 31.3H119.131ZM157.216 14.98C156.48 16.4533 155.771 17.6433 155.091 18.55C154.411 19.4567 153.816 20.2783 153.306 21.015C153.306 21.6383 153.476 23.395 153.816 26.285C154.156 29.175 154.44 32.9717 154.666 37.675C154.95 42.3783 155.006 47.7617 154.836 53.825C154.61 57.1683 154.071 59.8033 153.221 61.73C152.371 63.6567 150.841 65.0167 148.631 65.81C146.421 66.6033 143.135 67 138.771 67C136.845 67 135.4 66.6033 134.436 65.81C133.416 64.96 132.906 64.025 132.906 63.005C132.906 62.0417 133.416 61.1633 134.436 60.37C135.4 59.5767 136.845 59.18 138.771 59.18C140.755 59.18 142.738 59.1233 144.721 59.01C146.705 58.84 148.66 58.33 150.586 57.48C150.7 53.0033 150.558 48.2717 150.161 43.285C149.821 38.2983 149.283 33.3117 148.546 28.325C147.866 23.2817 147.045 18.4933 146.081 13.96C145.685 12.3733 145.883 11.1267 146.676 10.22C147.47 9.31333 148.745 7.98166 150.501 6.225C150.841 6.96166 151.295 7.925 151.861 9.115C152.428 10.2483 153.136 11.3533 153.986 12.43C154.893 13.5067 155.97 14.3567 157.216 14.98ZM173.007 6.65C173.12 7.78333 173.262 9.22833 173.432 10.985C173.658 12.7417 173.885 14.895 174.112 17.445C174.508 21.2417 174.877 25.1233 175.217 29.09C175.613 33.0567 175.953 36.825 176.237 40.395C176.577 43.965 176.832 47.11 177.002 49.83C177.228 52.55 177.342 54.5617 177.342 55.865C177.342 58.415 177.143 60.7383 176.747 62.835C176.407 64.9317 175.755 67.1417 174.792 69.465L173.772 69.125L166.717 13.195L171.647 6.225L173.007 6.65Z" fill="#F86A2F"/>
</g>
<defs>
<filter id="filter0_d_1_158" x="0.674988" y="0.274994" width="186.667" height="97.525" filterUnits="userSpaceOnUse" color-interpolation-filters="sRGB">
<feFlood flood-opacity="0" result="BackgroundImageFix"/>
<feColorMatrix in="SourceAlpha" type="matrix" values="0 0 0 0 0 0 0 0 0 0 0 0 0 0 0 0 0 0 127 0" result="hardAlpha"/>
<feOffset dx="7" dy="4"/>
<feGaussianBlur stdDeviation="1.5"/>
<feComposite in2="hardAlpha" operator="out"/>
<feColorMatrix type="matrix" values="0 0 0 0 0 0 0 0 0 0 0 0 0 0 0 0 0 0 0.23 0"/>
<feBlend mode="normal" in2="BackgroundImageFix" result="effect1_dropShadow_1_158"/>
<feBlend mode="normal" in="SourceGraphic" in2="effect1_dropShadow_1_158" result="shape"/>
</filter>
</defs>
</svg>
