<!-- icon666.com - MILLIONS vector ICONS FREE --><svg id="Hijab" enable-background="new 0 0 512 512" viewBox="0 0 512 512" xmlns="http://www.w3.org/2000/svg"><path id="base" d="m455.5 496h-400c0-120 55.9-128 55.9-128-15.9-64 40.1-104 40.1-104-11.5-28-16-60.5-16-96 0-77.3 53.7-144 120-144s120 66.7 120 144c0 80-7.4 103.3-32 144 128 24 112 130.1 112 184z" fill="#e6e7e8"></path><path id="face" d="m176 192c0 53 27 96 80 96s80-43 80-96c0-72-80-96-80-96s-80 24-80 96z" fill="#ffddd4"></path><g fill="#ccc"><path id="hijab-2" d="m368 368c-112 56-224-8-216-104 26.1 63.5 88.3 104 216 104z"></path><path id="hijab-3" d="m111.9 368c-23.9 72 8.1 112 96.1 112-61.5-35.1-86.2-72.4-96.1-112z"></path><path id="hijab-4" d="m424 488v8c-120 0-184 0-184-80 0 0 48 72 184 72z"></path></g><path id="hijab-5" d="m336 192s-32-24-80-24-80 24-80 24c0-72 80-96 80-96s80 24 80 96z" fill="#e5c7c1"></path><path id="hijab-6" d="m336 192s-32-48-80-48-80 48-80 48c0-72 80-96 80-96s80 24 80 96z" fill="#26ffd0"></path><path id="hijab-7" d="m451.5 379.6c-16-37.2-47.9-61.8-95-73.1 21.1-37 27.5-63.8 27.5-138.5 0-39.5-13.1-77.2-37-106.1-24.4-29.6-56.7-45.9-91-45.9s-66.6 16.3-91 45.9c-23.9 28.9-37 66.6-37 106.1 0 36.8 4.7 67.4 14.4 93.4-8.8 7.6-16.6 16.4-23.1 26.1-15.5 23.3-21.3 49.1-16.7 75-17.1 7.3-54.6 34.4-54.6 133.5h16c0-58.4 13.7-88.1 25.1-102.7 6.4-8.2 12.8-12.6 17.4-14.9 13.4 43.6 44.6 78.3 97.5 108.6l7.9-13.9c-53-30.3-81.4-63.3-92.3-107-6-24.1-1.7-47.4 12.7-69.2 4.8-7.2 10.4-13.9 16.8-19.9 32.5 66.6 104.3 99 218.9 99v-16c-113 0-181.2-32.4-208.6-99-10.4-25.3-15.4-55.7-15.4-93 0-73.7 51.3-136 112-136s112 62.3 112 136c0 77.8-6.6 99.7-30.9 139.9-5.4 8.6-12.7 15.9-21.3 21.3l8.2 13.7c9.2-5.8 17.2-13.2 23.5-22 104.1 22.1 102 104 100.6 158.5-.1 5.9-.3 11.5-.3 16.6h16c0-4.9.1-10.4.3-16.2.9-28.1 1.9-66.5-12.6-100.2z" fill="#40150a"></path><path id="hijab-8" d="m246.6 411.5-13.3 8.9c.5.8 13.3 19.7 43.4 38.4 27.4 17 75.1 37.2 147.2 37.2v-16c-67.8 0-112.4-18.6-137.9-34.3-27.5-16.9-39.2-34-39.4-34.2z" fill="#40150a"></path><path id="hijab-9" d="m300.8 110.6c-12.9-9.6-27.2-17.2-42.5-22.3l-2.3-.7-2.3.7c-15.3 5.1-29.6 12.6-42.5 22.3-28.3 21.2-43.2 49.3-43.2 81.4 0 29.1 7.5 54.3 21.8 72.8 15.7 20.4 38.6 31.2 66.2 31.2s50.5-10.8 66.2-31.2c14.3-18.5 21.8-43.7 21.8-72.8 0-32.1-14.9-60.2-43.2-81.4zm-80.4 13.1c10.9-8.1 22.8-14.6 35.6-19.2 12.7 4.7 24.7 11.1 35.6 19.2 16 12.1 26.8 26.3 32.2 42.3-15.1-14.1-38.5-30-67.8-30s-52.7 15.9-67.8 30c5.4-16.1 16.2-30.2 32.2-42.3zm35.6 156.3c-52 0-71.2-43.7-72-85.5 6.4-8.5 34.1-42.5 72-42.5s65.6 34.1 72 42.5c-.8 41.8-20 85.5-72 85.5z" fill="#40150a"></path><path id="highlight" d="m184 112c4.4 0 8-3.6 8-8v-8c0-4.4-3.6-8-8-8s-8 3.6-8 8v8c0 4.4 3.6 8 8 8z" fill="#fff"></path></svg>