<!-- icon666.com - MILLIONS vector ICONS FREE --><svg id="Layer_1" viewBox="0 0 512 512" xmlns="http://www.w3.org/2000/svg" data-name="Layer 1"><path d="m391.762 301.567a192.608 192.608 0 0 0 -63.292-42.043 106.392 106.392 0 0 0 34.2-78.191v-53.333a106.667 106.667 0 1 0 -213.334 0v53.333a106.391 106.391 0 0 0 34.187 78.182 193.815 193.815 0 0 0 -80.049 61.185 190.236 190.236 0 0 0 -39.474 116.633 53.349 53.349 0 0 0 53.333 53.334h277.329a53.394 53.394 0 0 0 53.338-53.334 190.784 190.784 0 0 0 -56.238-135.766zm-135.762-258.9a85.419 85.419 0 0 1 85.259 82.433c-15.829-3.281-44.729-7.767-84.5-7.767-40.181 0-69.884 4.574-86.018 7.853a85.418 85.418 0 0 1 85.259-82.519zm-85.333 138.666v-34.3c13.39-2.953 43.714-8.368 86.089-8.368 42.127 0 71.556 5.352 84.577 8.3v34.365a85.333 85.333 0 1 1 -170.666 0zm223.995 288h-277.333a32.013 32.013 0 0 1 -32-32c0-74.2 48.693-140.4 119.011-162.706a105.859 105.859 0 0 0 40.993 12.841v75.2a10.667 10.667 0 0 0 21.334 0v-75.2a105.862 105.862 0 0 0 40.981-12.835 170.773 170.773 0 0 1 119.014 162.7 32.036 32.036 0 0 1 -32 32z"></path></svg>