<svg width="32" height="26" viewBox="0 0 32 26" fill="none" xmlns="http://www.w3.org/2000/svg">
<path d="M12.9649 16.549L5.04024 14.967V16.7804L15.0507 18.7787C14.9458 17.6943 14.1011 16.7758 12.9649 16.549Z" fill="white"/>
<path d="M16.9478 18.7787L26.9583 16.7804V14.967L19.0335 16.549C17.8974 16.7758 17.0526 17.6943 16.9478 18.7787Z" fill="white"/>
<path d="M3.16526 18.2294V1.53018L0 0.898338V20.8742L4.51126 21.7748L1.23225 26H7.92545L10.4045 22.9512L15.0625 23.8811V20.6044L3.16526 18.2294Z" fill="white"/>
<path d="M13.3499 14.8024C13.9824 14.9287 14.562 15.1802 15.0624 15.5261V2.40353C14.5471 2.04133 13.9476 1.77811 13.2923 1.64725L5.04024 0V13.1437L13.3499 14.8024Z" fill="white"/>
<path d="M32 20.8692V0.898342L28.8334 1.53043V18.2294L16.9375 20.6041V23.8811L21.5955 22.9512L24.0745 26H30.7677L27.4887 21.7748L32 20.8692Z" fill="white"/>
<path d="M18.6487 14.8024L26.9584 13.1437V3.04505e-06L18.7063 1.64725C18.0515 1.778 17.4525 2.04086 16.9375 2.40259V15.5251C17.4377 15.1798 18.0168 14.9285 18.6487 14.8024Z" fill="white"/>
</svg>
